<?xml version="1.0" encoding="utf-8"?>
<!-- Generator: Adobe Illustrator 21.0.0, SVG Export Plug-In . SVG Version: 6.00 Build 0)  -->
<svg version="1.1" id="Layer_1" xmlns="http://www.w3.org/2000/svg" xmlns:xlink="http://www.w3.org/1999/xlink" x="0px" y="0px"
	 viewBox="0 0 689 306" style="enable-background:new 0 0 689 306;" xml:space="preserve">
<style type="text/css">
	.st0{fill:#231F20;}
</style>
<path class="st0" d="M0.5,305.6h688.9l0-58.8h-4.1V243h-4.8v-5h-2.2v2.4h-3.5v-8.5h-2.6v-3.7h-2.4v3h-3.9v-3.1h-2.4v2h-2.6v3.5h-1.8
	v-5.5H655v-5.5h-6.3v-10.7h0.7v-5.2l-0.9-0.9V195l-1.8-1.8v-4h1.2v-3l-1.5-5v-7.8h-2.2v6.8l-2.4,4.2v3.3h1.1v4.8h-3.3v-4.6h-1.3
	v-10.3l-2.5-2.5v-13.4L633,159v-5.6h1.5v-3h-1.7v-3.9l-3.9-12v-10h-1.5v9.1h-3v-9.6H623v9.8l-3.9,13.3v3.9h-1.1v2.8h1.5V164h-3.7
	v-4.6l-3.7-9.8h-7l-7.6,18.1v8.5h-1.3v3.1h1.3v29.6h-2.4l-7.4-9.1h-2v-11.1h-1.1V200H580v-3h-3.7v-20.1h0.9v-2.6l-0.9-0.9v-4.3
	l-1.2-1.2v-3.4h-2.7l-5.5-16.4h-6.5l-5.4,17h-2.6v9.1h-1.7v3.9h1.3v24.2h-3.5V195h1.1v-7h-6.7v3.3h-1.2v-60.9h-2.5v-14.1L502,102.7
	l-5.9,5.4v20.5h-9.4v14.6h-6.4v94.6h-8.2v-90.9h-2.2v-4.4h2.4v-8.2h-11.7v-15.2h-8.1v-2.8h4.9V113h-9.2V98.2h-1.8v13.7h-10v2.6h2.5
	v4.9h-7.6v14.5h-11.9v14.3h-0.7v3.6h-3.6v7.6h-2.5v6.8h2.5v3h3.8v25.2h-19.4v5.1h-1.3v2.6h1.3v3.6h-2.3v12h-6.6v-20.6h-1.8v-5.1
	l-12.7-9.6l-13.8,11.4v5.9h-3.1v-7.6l-16.3-7.9l-9.9,5v-1.5h-5.4v4.2l-2,1v5.6h-5.4l-4.5-4.5v-0.3h-0.3l-2.5-2.5v-2.8l-3.3-6.4
	l-5.3,6.4l0.3,5.3h-3v2.1h1.3v0.9l-0.8,1.5l-6.9-0.5l-7.9-15.5v-5.2h-8.1v5.7l-6.7,13.1l-5.7-0.2l-0.2-63.5h2.2v-3.9h-2.5v-21.2
	l-0.9-0.9V95h-1.8v12.1h-2.2V95h-1.5V82.2h-2.7l-8.1-40.4V27.3H247v5.4h-1.5V9.1c0,0,1.7-1.2,2,0c0.2,1.2,0.4,5.3,1.6,6l0.9-2.7
	l1.2-0.5c0,0-0.7-4.2-0.6-5.7c0.1-1.5-1.5-5-4.1-4.9h-0.6l0.1-0.9h-1.3v32.4h-0.9v-5.8h-3.6v15.4L233,82.7h-3.7v24.4H226V95.3h-2.4
	V107h-1.8v21.8l-0.9,0.9v3h1.5v65.9h-1.6l-2.4-5l-3.1,4.6v-32h0.9v-2.9h-1.4v-9.2l-8.4-17h-4.8l-9.3,17.3v9.6h-1.2v2.9h1v43.7h-14.3
	l-15.1-15.9V181H161V194h-3.7v-29.4h1.2v-3h-1.4V152l-8-11.7v-5.2h-6.6v5.3l-7.4,11.3v9.7h-1.6v3.8h1.4v32.9h-4.3v6.6H123
	l-13.7,12.9h-5v-4.2h-6.4l-6.2-15.1L91.4,187H90v3h-6.6v-3.2h-2.8v3.3h-3.3v-3.8h-2.8v15.1l-4.4,11.5h-2.7l-4.1-13.8v-5.2h-1.5v4.6
	c0,0-10.3,0.4-10.3,0c0-0.4,0-5.4,0-5.4h-2.2v6.5H47v-6.2h-2.5v11.1l-6.9,15.3h-9.5v18h-6.5v9.9h-3.6l-2.3-6.3h-3"/>
</svg>
