<svg height="512pt" viewBox="-20 0 512 512.00155" width="512pt" xmlns="http://www.w3.org/2000/svg"><path d="m96.230469 501.046875 26.972656-69 28.023437 10.957031-26.972656 68.996094zm0 0"/><path d="m164.296875 501.042969 26.972656-69 28.019531 10.957031-26.972656 69zm0 0"/><path d="m232.921875 501.042969 26.972656-69 28.019531 10.953125-26.972656 69zm0 0"/><path d="m301.214844 501.039062 26.972656-69 28.023438 10.957032-26.976563 69zm0 0"/><path d="m383.730469 170.679688h-2.824219c-6.269531-45.890626-44.003906-81.902344-90.683594-85.5-7.148437-48.136719-48.746094-85.179688-98.835937-85.179688h-1.695313c-55.097656 0-99.921875 44.824219-99.921875 99.925781v30c-50.691406 7.316407-89.769531 51.050781-89.769531 103.734375v7.9375c0 57.589844 46.691406 104.472656 104.203125 104.800782l-18.953125 48.488281 28.023438 10.953125 23.230468-59.433594h34.757813l-18.949219 48.480469 28.019531 10.953125 23.230469-59.429688h36.324219l-18.949219 48.476563 28.019531 10.953125 23.230469-59.429688h35.992188l-18.949219 48.476563 28.019531 10.957031 23.230469-59.433594h43.25c48.445312 0 87.859375-39.414062 87.859375-87.863281s-39.414063-87.867187-87.859375-87.867187zm0 0"/></svg>