<?xml version="1.0" encoding="utf-8"?>
<!-- Generator: Adobe Illustrator 21.0.0, SVG Export Plug-In . SVG Version: 6.00 Build 0)  -->
<svg version="1.1" id="Layer_1" xmlns="http://www.w3.org/2000/svg" xmlns:xlink="http://www.w3.org/1999/xlink" x="0px" y="0px"
	 viewBox="0 0 679 295" style="enable-background:new 0 0 679 295;" xml:space="preserve">
<style type="text/css">
	.st0{fill:#231F20;}
</style>
<path class="st0" d="M679.6,236.6v-1.5h-3v-44.8h0.8v-2.7h-0.6v-13.4h2.1v-2.4h-1.8V169h-3v-18.3h-1.6l-1.5-7.9h-1.6l-1.1-5.7h-1.9
	v-7.5h-2v-5.7h-2.5l-1.3-6.2l-1.1-9.9h-0.8l-1.1,10.3l-1.6,5.7h-2v5.6h-2.4v8h-1.4l-1.3,5.4h-1.2l-2.6,7.8h-1.6v18.1h-2.9v2.4H638
	v2.4h1.6v13.6h-0.9v2.6h1v47.6h-8v-13h-6.8v-2.9h-6.6v-2.6h-12.1l-1.6-10.6h-2l-1.6,10.3h-11.2v-39.1h0.4v-5.4h-0.6v-3.1h-2.9v-23.2
	h-2.3v1.6h-2.9v-6h2v-6.3h-1.9v-6l-1.8-1.8v-10.6H577v-2.5h-0.9L575.5,98h-1l-3.5,10.4v12.8h-2.3v8.1l-1.8,1.3v5.9h-2.7v5.4h2.7v8.8
	h-2.4v-2.4h-4v23.1h-3.4v3H557v6.3h0.7v11.9h-2.3v5.7h-2.9v2.4h-5.2v-5.7h-3.5v7.5h-2.2v3.1h-1.6v5.4h1.5v5.3h-2.1v3.5H520v1.7h-8.4
	v-18h-3.4l-0.7-5h-1.2l-0.7,4h-3.1v14.9h-0.9v7.8l-19,9v3.8h-12.5v-63.2h2.8v-3.3h1.5v-5.8h-4.1v-3.1h-2.1v-37.3h1.8V119l-1.7-1.7
	l-1-14.3h-0.7l-1,10.6h-5.6V84.4h-2V74.2h-2.8V63.4h-2.8l-5.9-21.3l-2.3-4.3l-1.7-34.3H441l-1.7,33.8l-2.1,4.6l-6.6,21.4h-1.6v10.1
	l-1.9,1.9v9h-3.4v30.2h-5.4l-0.8-12.4h-0.7l-0.8,14l-2.6,2.1v6.3h2.3v35.8h-2.1v5.7h-3.7v5.9h1.3v3.7h3.3V249l-3.2-3.2l-1.6-1.6h-7
	v-4.8h-5.5l-1.2-13h-1.5l-1.2,7.7h-5.3l-2.4-15h-1.9l-2.4,10.3h-3.5v-6.8h-4.4v-5.9h2.9v-5.9h-5.7v-9h-2v-5.4c0,0-2-14.9-10-22.3
	c-8.4-7.8-17.1-8.4-17.1-8.4l-0.4-7.7H338v-8.6l-2.1-2.1v-8.5l-6.9-6.4l-1.8-1.8v-13h-3.1v13l-7.5,7.7v8.4l-2,2v8.1h-2.2l-0.7,8.1
	c0,0-10.1,1.4-17.2,10c-7.7,9.2-8.3,20.6-8.3,20.6l-0.2,7.3h-2.6l0.2,7.5h-3.3v9.2h3.3v8.6h-6.2v-21.6c0,0-0.4-10.6-5.9-15
	c-5.5-4.4-11.7-6.8-11.7-6.8l-1.1-13.2l-3.5-0.2v-3.3h-3.7v5.1h-3.7v-9h-3.7v9.5l-4.6,7v9.2l-10.8,10.8v29.7H223v-18.9
	c0,0,2.4,1.3,2.4,0c0-1.3,0-5.5,0-5.5h-2.9v-13.2h2v-3.1h-3.1v-14.5l-6.4-5.3v-6.8h-2.9v11.4l-5.5,5.5v10.8h-4.4v2.4h2v13.4H201v6.2
	h3.5l-0.2,66.7h-0.4v-9.2h0.2v-1.8l-5.2-3.4l-44.8-10l1-2.4l-9.2-3.7l-9.2,3.7l1,2.4l-44.8,10l-5.2,3.4v1.8h0.2v9.2H87v-41.7h-1
	v-11.7H75.6v-2.9h-11v1.3h-4.2v-1.5h-9.2v0.9h-15v11.9h-3.1v7H27v-68.4H24v-15.8l-8.8-8.8v-9.7h-2.4v10.3L4.3,159V174H0.2l0,120.5
	h113.5V291h0.1c1.5-2.3,8.1-8.7,16.4-12.3c7.7-3.3,14.6-2.9,15.6-2.8v0c0,0,0,0,0.1,0c0,0,0.1,0,0.1,0v0c1-0.1,7.9-0.5,15.6,2.8
	c8.3,3.6,15,10.1,16.4,12.3v3.5h501.3v-52.3h0.8v-5.1L679.6,236.6z M106.1,269.8c0-1.7,1.4-3,3-3c1.7,0,3,1.4,3,3v4.4l-6.1,1.4
	V269.8z M97.8,271.8c0-1.7,1.4-3,3-3c1.7,0,3,1.4,3,3v4.4l-6.1,1.4V271.8z M89.6,273.8c0-1.7,1.4-3,3-3c1.7,0,3,1.4,3,3v4.4
	l-6.1,1.4V273.8z M120.4,272.2l-6.1,1.4v-5.8c0-1.7,1.4-3,3-3c1.7,0,3,1.4,3,3V272.2z M128.7,270.2l-6.1,1.4v-5.8c0-1.7,1.4-3,3-3
	c1.7,0,3,1.4,3,3V270.2z M136.9,268.2l-6.1,1.4v-5.8c0-1.7,1.4-3,3-3c1.7,0,3,1.4,3,3V268.2z M151.1,268.2h-5.1h-0.1h-5.1
	c0,0,0-6,0-7.5c0-1.5,0.2-2.3,1.7-3.6c1.4-1.2,3.2-1.2,3.5-1.2c0,0,0,0,0,0c0,0,0,0,0,0c0.3,0,2.1,0,3.5,1.2
	c1.5,1.3,1.7,2.1,1.7,3.6C151.1,262.2,151.1,268.2,151.1,268.2z M161,269.7l-6.1-1.4v-4.4c0-1.7,1.4-3,3-3c1.7,0,3,1.4,3,3V269.7z
	 M169.2,271.7l-6.1-1.4v-4.4c0-1.7,1.4-3,3-3c1.7,0,3,1.4,3,3V271.7z M177.4,273.7l-6.1-1.4v-4.4c0-1.7,1.4-3,3-3c1.7,0,3,1.4,3,3
	V273.7z M196.1,273.8c0-1.7,1.4-3,3-3s3,1.4,3,3v5.8l-6.1-1.4V273.8z M187.8,271.8c0-1.7,1.4-3,3-3c1.7,0,3,1.4,3,3v5.8l-6.1-1.4
	V271.8z M179.6,269.8c0-1.7,1.4-3,3-3c1.7,0,3,1.4,3,3v5.8l-6.1-1.4V269.8z"/>
</svg>
