<?xml version="1.0" encoding="utf-8"?>
<!-- Generator: Adobe Illustrator 21.0.0, SVG Export Plug-In . SVG Version: 6.00 Build 0)  -->
<svg version="1.1" id="Layer_1" xmlns="http://www.w3.org/2000/svg" xmlns:xlink="http://www.w3.org/1999/xlink" x="0px" y="0px"
	 viewBox="0 0 451 412" style="enable-background:new 0 0 451 412;" xml:space="preserve">
<g>
	<path d="M330.5,8.2"/>
</g>
<g>
	<g>
		<path d="M367.5,108.5c0.2-1.6,0.2-3.2,0.2-4.9c0-30.4-24.8-55.2-55.2-55.2c-10.4,0-20.4,2.9-29,8.3c-5.3-31.4-34.2-55-67.9-53.1
			c-32.1,1.6-57.5,25.1-61.7,55.2c-5.8-2.1-11.8-3.1-17.9-3.1c-30.4,0-55.2,24.8-55.2,55.2c0,0.7,0,1.3,0.1,2
			c-15.4,4.2-37.6,13.1-37.5,44.7c0,23.4,19.5,43.6,46.1,44.8l8.1-12.5c-1,0-2,0.1-2.8,0.1l-2,0c-20.1,0-36.5-14.6-36.5-32.4
			c0-21.3,11.6-28.2,33.1-33.6l4.8-1.8l0.1-4.9l-0.3-2.6c-0.2-1.2-0.3-2.5-0.3-3.8c0-23.4,19-42.4,42.4-42.4c7,0,14,1.9,20.6,5.6
			l9.8,5.5l-0.2-11.2c-0.5-27.7,21.5-50.6,50.1-52l2.8-0.1c28.1,0,51.1,21.3,52.5,48.5c0.1,1,0,1.9-0.1,4.4l-0.6,16.5L282.3,74
			c8-8.2,18.8-12.7,30.2-12.7c23.4,0,42.4,19,42.4,42.4c0,2.9-0.3,5.7-0.9,8.5l-1.3,6.5l6.5,1.1c16.6,2.9,28.6,15.7,29.4,31.2
			c0.8,15.5-9.9,33.1-26.1,38.3l4.3,12c20.5-6.8,35.8-28,34.7-50.9C400.5,130.8,386.8,114.4,367.5,108.5z"/>
	</g>
	<g>
		<path d="M115.1,239.1L115.1,239.1c-16.4-22-15.3-59.7-16.1-47.6c-2,31.6-14.5,47.6-14.5,47.6l0,0c-1,2-1.6,4.2-1.6,6.5
			c0,8.4,7.6,15.2,16.9,15.2c9.4,0,16.9-6.8,16.9-15.2C116.7,243.3,116.1,241.1,115.1,239.1z"/>
	</g>
	<g>
		<path d="M191.9,196.6L191.9,196.6c-14.1-18.9-13.2-51.5-13.9-41.1c-1.8,27.3-12.5,41.1-12.5,41.1l0,0c-0.9,1.7-1.4,3.6-1.4,5.6
			c0,7.2,6.5,13.1,14.6,13.1c8.1,0,14.6-5.9,14.6-13.1C193.3,200.2,192.8,198.3,191.9,196.6z"/>
	</g>
	<g>
		<path d="M271.8,251.1L271.8,251.1c-10.6-14.2-9.9-38.6-10.4-30.8c-1.3,20.4-9.4,30.8-9.4,30.8l0,0c-0.7,1.3-1.1,2.7-1.1,4.2
			c0,5.4,4.9,9.8,10.9,9.8c6,0,10.9-4.4,10.9-9.8C272.8,253.7,272.5,252.4,271.8,251.1z"/>
	</g>
	<g>
		<path d="M311.2,186.2L311.2,186.2c-12.2-16.4-11.4-44.7-12-35.6c-1.5,23.6-10.8,35.6-10.8,35.6l0,0c-0.8,1.5-1.2,3.1-1.2,4.8
			c0,6.3,5.6,11.3,12.6,11.3c7,0,12.6-5.1,12.6-11.3C312.4,189.4,311.9,187.7,311.2,186.2z"/>
	</g>
	<g>
		<polygon points="170.2,412.2 172.3,409 244.4,297.8 174.3,297.7 233.9,202.4 239.7,202.4 199.4,285.3 274.5,285.7 		"/>
	</g>
</g>
</svg>
