<?xml version="1.0" encoding="utf-8"?>
<!-- Generator: Adobe Illustrator 21.0.0, SVG Export Plug-In . SVG Version: 6.00 Build 0)  -->
<svg version="1.1" id="Layer_1" xmlns="http://www.w3.org/2000/svg" xmlns:xlink="http://www.w3.org/1999/xlink" x="0px" y="0px"
	 viewBox="0 0 451 367" style="enable-background:new 0 0 451 367;" xml:space="preserve">
<g>
	<path d="M330.5,0.2"/>
</g>
<path d="M409.6,157.5c0-0.9,0.1-1.7,0.1-2.6c0-24.8-20.2-44.9-45-44.9c-7.7,0-15,1.9-21.6,5.5C338,92,316.7,74.7,291.4,74.7
	l-2.8,0.1c-22.3,1.1-40.5,15.5-47.3,35c-12.5-13-30.6-20.8-50.4-19.8c-31.6,1.6-56.6,24.6-60.9,54.1c-5.6-2-11.4-2.9-17.3-2.9
	c-30.1,0-54.7,24.5-54.7,54.6c0,0.6,0,1.1,0.1,1.7c-15.3,4.2-36.9,13.1-36.9,44.2c0,24.7,21.9,44.8,48.9,44.8l2.6-0.1
	c16.8-0.9,86.2,0,86.2,0l0-1.1c0.1,0,0.2,0,0.4,0.1l0.1,1.1l0-1.1c9.2,1.3,30.6,1.3,80.3,1.4c0,0,37.4,0.6,64.5,0.6
	c10.2,0,19-0.1,23.9-0.3c25.5-1.3,46.7-25.5,45.7-52c0,0,0,0,0,0c1.6,0,3.3,0,4.8,0c8.4,0,15.6-0.1,19.5-0.3
	c10.7-0.5,20.5-5.7,27.8-14.4c6.9-8.3,10.5-18.8,10-29C435.4,175.8,424.8,162.6,409.6,157.5z M360.7,235
	c0.9,17.4-13.1,37.7-33.1,38.7c-17.6,0.9-87.5-0.3-87.6-0.3c-31-0.1-78-0.2-80.5-0.3l-0.2,3l-0.1-3.1c0,0-32.1-0.4-58.1-0.4
	c-12.5,0-23.5,0.1-29,0.4l-1.9,0c-19.6,0-35.5-14.1-35.5-31.5c0-20.7,11.3-27.4,32.2-32.6l5-2.1l0.2-5.1l-0.3-2.5
	c-0.2-1.2-0.3-2.4-0.3-3.6c0-22.8,18.5-41.3,41.3-41.3c6.9,0,13.6,1.8,20,5.4l10.1,5.7l-0.2-11.6c-0.5-27.1,21-49.3,48.8-50.7
	l2.7-0.1c13,0,24.9,4.7,33.9,12.5c5.2,4.5,9.5,10,12.5,16.2c2.7,5.7,4.4,12,4.7,18.6c0.1,1,0,1.9-0.1,4.3l-0.6,17.2l12.1-12.3
	c7.8-8,18.3-12.4,29.4-12.4c22.8,0,41.3,18.5,41.3,41.3c0,2.8-0.3,5.6-0.8,8.2l-1.4,6.7l6.7,1.2c10.9,1.9,19.7,8.3,24.5,16.8
	C358.9,225.6,360.4,230.1,360.7,235C360.7,234.9,360.7,235,360.7,235z M415.9,211.8c-4.9,5.9-11.3,9.3-18.2,9.6
	c-5,0.3-15.2,0.3-26.3,0.3c-4.9-13.4-16.1-24.1-30.7-28.6c0.1-1.5,0.2-3,0.2-4.5c0-30.1-24.5-54.6-54.6-54.6
	c-10.1,0-19.8,2.7-28.3,7.9c-0.9-5-2.4-9.8-4.5-14.3c-0.5-1.1-1.1-2-1.7-3c1-19.6,16.9-35.4,37.5-36.5l2.1-0.1
	c21.1,0,38.5,16,39.5,36.4c0,0.8,0,1.5-0.1,3.3l-0.7,17.3l12.1-12.3c6-6.1,14-9.5,22.5-9.5c17.4,0,31.6,14.2,31.6,31.6
	c0,2.2-0.2,4.3-0.6,6.3l-1.4,6.7l6.7,1.2c12.2,2.1,21.1,11.6,21.7,22.9C423.1,198.8,420.6,206,415.9,211.8z"/>
</svg>
