<?xml version="1.0" encoding="utf-8"?>
<!-- Generator: Adobe Illustrator 21.0.0, SVG Export Plug-In . SVG Version: 6.00 Build 0)  -->
<svg version="1.1" id="Layer_1" xmlns="http://www.w3.org/2000/svg" xmlns:xlink="http://www.w3.org/1999/xlink" x="0px" y="0px"
	 viewBox="0 0 451 367" style="enable-background:new 0 0 451 367;" xml:space="preserve">
<g>
	<path d="M330.5,0.2"/>
</g>
<g>
	<path d="M274.7,109c1.5,1.7,4.2,1.9,5.9,0.4c1.7-1.5,1.9-4.2,0.4-5.9l-31.2-35.7c-1.5-1.8-4.2-1.9-5.9-0.4
		c-1.7,1.5-1.9,4.2-0.4,5.9L274.7,109z"/>
	<path d="M328.2,88.4c2.3,0,4.2-1.9,4.2-4.2l-0.3-47.5c0-2.3-1.9-4.2-4.2-4.2c-2.3,0-4.2,1.9-4.2,4.2l0.3,47.4
		C324,86.5,325.9,88.4,328.2,88.4z"/>
	<path d="M436.2,213.1l-42-22.1c-2.1-1.1-4.6-0.3-5.7,1.8c-1.1,2-0.3,4.6,1.8,5.7l42,22.1c2.1,1.1,4.6,0.3,5.7-1.8
		C439.1,216.8,438.3,214.2,436.2,213.1z"/>
	<path d="M446.1,133.4l-47.1,5.5c-2.3,0.3-4,2.4-3.7,4.7c0.3,2.3,2.3,3.9,4.6,3.7l47.1-5.5c2.3-0.3,4-2.3,3.7-4.7
		C450.5,134.8,448.4,133.1,446.1,133.4z"/>
	<path d="M353.3,220.7c-0.8-2.2-3.2-3.3-5.4-2.6c-2.2,0.8-3.3,3.2-2.6,5.3l15.8,44.8c0.8,2.2,3.2,3.3,5.3,2.6
		c2.2-0.8,3.3-3.2,2.6-5.4L353.3,220.7z"/>
	<path d="M376.8,104.6L406,67.2c1.4-1.8,1.1-4.5-0.7-5.9c-1.8-1.4-4.5-1.1-5.9,0.7l-29.2,37.4c-1.4,1.8-1.1,4.5,0.7,5.9
		C372.7,106.8,375.4,106.5,376.8,104.6z"/>
	<path d="M328,94.2c-34.1,0-61.9,27.8-61.9,61.9c0,3.6,0.4,7.1,1,10.6c5,0.3,9.7,1.2,14.3,2.7c-1.2-4.2-1.9-8.6-1.9-13.2
		c0-26.7,21.8-48.5,48.5-48.5c26.7,0,48.5,21.8,48.5,48.5c0,26.7-21.8,48.5-48.5,48.5c-4.3,0-8.5-0.6-12.5-1.7
		c1.6,4.5,2.6,9.3,2.9,14.2c3.1,0.5,6.3,0.8,9.5,0.8c34.1,0,61.9-27.8,61.9-61.9C389.9,122,362.1,94.2,328,94.2z"/>
	<path d="M318.5,225.5c0.1-1.5,0.2-3,0.2-4.5c0-1.3-0.1-2.6-0.2-3.8c-0.3-5-1.4-9.7-2.9-14.2c-5.6-15.8-18.2-28.3-34.2-33.6
		c-4.5-1.5-9.3-2.4-14.3-2.7c-1,0-1.9-0.1-2.9-0.1c-10.1,0-19.7,2.7-28.2,7.8c-1.6-8.7-5.1-16.8-9.9-23.8l29.4,2.4
		c2.3,0.2,4.3-1.5,4.5-3.9c0.2-2.3-1.5-4.3-3.8-4.5l-37.6-3.1c-12.5-12.5-30.2-19.9-49.3-18.9c-31.4,1.6-56.4,24.5-60.7,53.9
		c-5.6-1.9-11.3-2.9-17.2-2.9c-30,0-54.5,24.4-54.5,54.5c0,0.6,0,1.1,0.1,1.7c-15.2,4.2-36.8,13-36.7,44c0,24.6,21.9,44.7,48.7,44.7
		l2.6-0.1c16.7-0.8,85.9,0.1,85.9,0l0-1.1c0.1,0,0.2,0,0.4,0l0,1.1l0-1.1c9.2,1.2,30.5,1.3,80.1,1.4c0,0,37.3,0.6,64.3,0.6
		c0,0,0,0,0,0c10.1,0,18.9-0.1,23.7-0.3c12.8-0.6,24.7-6.8,33.5-17.4c8.3-10,12.7-22.8,12.1-35C350.8,247.5,337.5,231.3,318.5,225.5
		z M329.4,293.2c-6.4,7.7-14.9,12.2-23.9,12.6c-4.7,0.2-13.2,0.3-23,0.3c0,0,0,0,0,0c-26.9,0-64.1-0.6-64.2-0.6
		c-30.9-0.1-77.8-0.2-80.2-0.3l-0.2,3l-0.1-3c0,0-32-0.4-57.9-0.4c-12.4,0-23.4,0.1-28.9,0.4l-1.9,0c-19.5,0-35.4-14.1-35.4-31.4
		c0-20.6,11.3-27.3,32.1-32.4l4.7-2l0.4-4.7l-0.2-2.9c-0.2-1.2-0.3-2.4-0.3-3.6c0-22.7,18.4-41.1,41.1-41.1c6.8,0,13.6,1.8,19.9,5.4
		l10.1,5.7l-0.2-11.6c-0.5-26.9,20.9-49.1,48.6-50.5l2.7-0.1c12.3,0,23.6,4.3,32.5,11.3c0.4,0.6,1,1.1,1.7,1.5
		c9.7,8.5,16.1,20.6,16.8,34.3c0.1,0.9,0,1.9-0.1,4.3l-0.6,17.2l12.1-12.3c7.8-7.9,18.2-12.3,29.3-12.3c2.4,0,4.7,0.3,7,0.7
		c16.8,2.9,30.2,16,33.3,32.7c0.5,2.5,0.8,5,0.8,7.7c0,2.8-0.3,5.5-0.8,8.2l-1.4,6.7l6.8,1.2c16,2.8,27.7,15.2,28.5,30.2
		C338.8,276.3,335.6,285.7,329.4,293.2z"/>
</g>
</svg>
