<?xml version="1.0" encoding="utf-8"?>
<!-- Generator: Adobe Illustrator 21.0.0, SVG Export Plug-In . SVG Version: 6.00 Build 0)  -->
<svg version="1.1" id="Layer_1" xmlns="http://www.w3.org/2000/svg" xmlns:xlink="http://www.w3.org/1999/xlink" x="0px" y="0px"
	 viewBox="0 0 428 367" style="enable-background:new 0 0 428 367;" xml:space="preserve">
<g>
	<path d="M324.5,0.2"/>
</g>
<path d="M214.9,259c-42.2,0-76.5-34.3-76.5-76.5c0-42.2,34.3-76.5,76.5-76.5c42.2,0,76.5,34.3,76.5,76.5
	C291.4,224.7,257.1,259,214.9,259z M214.9,119.3c-34.8,0-63.2,28.3-63.2,63.2c0,34.8,28.3,63.2,63.2,63.2
	c34.9,0,63.2-28.3,63.2-63.2C278.1,147.6,249.7,119.3,214.9,119.3z"/>
<g>
	<path d="M155.3,115.8c1.9,2.2,1.7,5.6-0.5,7.5l0,0c-2.2,1.9-5.6,1.7-7.5-0.5l-39.6-45.2c-1.9-2.2-1.7-5.6,0.5-7.5l0,0
		c2.2-1.9,5.6-1.7,7.5,0.5L155.3,115.8z"/>
</g>
<g>
	<path d="M220.4,91.3c0,2.9-2.3,5.3-5.3,5.3l0,0c-2.9,0-5.3-2.3-5.4-5.3l-0.4-60.1c0-3,2.3-5.3,5.3-5.4l0,0c2.9,0,5.3,2.3,5.4,5.3
		L220.4,91.3z"/>
</g>
<g>
	<path d="M124,167.9c2.9,0.2,5.1,2.8,4.9,5.7l0,0c-0.2,2.9-2.8,5.1-5.7,4.9l-59.9-4.9c-2.9-0.2-5.1-2.8-4.9-5.7l0,0
		c0.2-2.9,2.8-5.1,5.7-4.9L124,167.9z"/>
</g>
<g>
	<path d="M133.6,224.8c2.5-1.6,5.8-0.8,7.3,1.6l0,0c1.6,2.5,0.8,5.8-1.7,7.3l-50.8,32.1c-2.5,1.6-5.8,0.8-7.3-1.6l0,0
		c-1.6-2.5-0.8-5.8,1.7-7.3L133.6,224.8z"/>
</g>
<g>
	<path d="M179,264.4c1-2.8,4.1-4.1,6.9-3.1l0,0c2.7,1,4.1,4.1,3.1,6.9l-21.2,56.2c-1.1,2.8-4.1,4.1-6.8,3.1l0,0
		c-2.8-1-4.2-4.1-3.1-6.9L179,264.4z"/>
</g>
<g>
	<path d="M293.8,236c-2.6-1.4-3.6-4.6-2.2-7.2l0,0c1.4-2.6,4.6-3.6,7.2-2.2l53.2,27.9c2.6,1.4,3.6,4.6,2.2,7.2l0,0
		c-1.4,2.6-4.6,3.6-7.2,2.2L293.8,236z"/>
</g>
<path d="M370.3,158.3c0.4,2.9-1.7,5.6-4.7,5.9l-59.7,7c-2.9,0.3-5.6-1.7-5.9-4.6l0,0c-0.4-2.9,1.7-5.6,4.7-5.9l59.7-7
	C367.3,153.3,369.9,155.4,370.3,158.3"/>
<g>
	<path d="M266.8,320.9c1,2.8-0.5,5.8-3.2,6.8l0,0c-2.8,1-5.8-0.5-6.8-3.3l-20-56.7c-1-2.8,0.5-5.8,3.2-6.8l0,0
		c2.8-1,5.8,0.5,6.8,3.2L266.8,320.9z"/>
</g>
<g>
	<path d="M276.6,117.3c-1.8,2.3-5.1,2.7-7.5,0.9l0,0c-2.3-1.8-2.7-5.1-0.9-7.5l37-47.4c1.8-2.3,5.2-2.7,7.5-0.9l0,0
		c2.3,1.8,2.7,5.2,0.9,7.5L276.6,117.3z"/>
</g>
</svg>
