<?xml version="1.0" encoding="utf-8"?>
<!-- Generator: Adobe Illustrator 21.0.0, SVG Export Plug-In . SVG Version: 6.00 Build 0)  -->
<svg version="1.1" id="Layer_1" xmlns="http://www.w3.org/2000/svg" xmlns:xlink="http://www.w3.org/1999/xlink" x="0px" y="0px"
	 viewBox="0 0 689 359" style="enable-background:new 0 0 689 359;" xml:space="preserve">
<style type="text/css">
	.st0{fill:#231F20;}
</style>
<path class="st0" d="M685.5,260.6v-7.9h-2.3v-14.9h-7.6v29.9h-0.7v2.6h-1.7v-11.1h-7.5v-1.3h-1.9v-0.9h1.8v-4.3h-1.8v-0.9h1.7v-4.3
	h-1.7v-0.9h1.6v-4.3h-1.6v-0.9h1.5v-4.3h-1.5v-26.8h-0.2v-3.2H663v-5.9h-1.6v1.6h-0.9v-1h-15.1v1h-3.3v7.5h-3.2v76.7h-2.1v-2.1h-1.2
	v-62.5h-0.2v-3.2h-0.7v-5.9h-1.6v5.9h-4.5v1.6h-12.7v1.6h-5.3v33.8h-7.2v33.3h-4.2v-4h0.2v-1H599v-2.4l1.8-1.6h-1.9v-2.5l-1.2-0.8
	v-0.4l1-0.9l-1.8-0.3l-2.1-1.8v-2.3h-0.5v2.3l-1.9,1.9l-0.6,0.1v-3.1h-0.6V271h-1v1.8H590v2.2l-7.6-3.1l-0.2-7.9l0.2-0.2v-1.5
	l1.2-1.2v-0.3l-1.7-1.5v-0.7l0.3-0.3v-0.5h-0.3v-0.9h-0.6v-1.7h-0.9c0,0-0.1-6.7-7-10.1v-1.5h-0.7v-2.3l0.2-0.2v-0.9l0.3-0.3l0-0.7
	l-0.5-0.5l-0.2-0.9h0.3v-0.6h-0.2v-1.1l-1.7-2.6v-1.3h0.2v-0.7H571l-0.2-4.9l-0.2,0l-0.3,4.9H570l0,0.8h0.2v1.2l-1.7,2.6v1.2h-0.3
	v0.6h0.2v0.7l-0.4,0.5l-0.1,0.6l0.2,0.5l-0.1,0.8l0.1,0.4v2.1h-0.6v1.8c0,0-5.6,3-7.3,10.8l-0.5,0.5v1.5H559v1.4h0.6v1.1l-1.8,1
	l-0.1,0.7l1.4,0.8l-0.2,1.4l0.3,0.3v6.2h-1.7v-1.6h-0.9v-15.5h-5.7v14.1h-1.6v1.4h-1.6v-18.4H547v-2h-0.1v-14h-0.5v-1.2h-1.9v0.5
	h-6.4v0.7H537v14h-3.6v2h-2.8v15.3h-2.4V263h-2.8v3.1h-0.5v8.2l-4.6-0.1l-0.7-14.2l0.4,0l-0.1-1.4l-0.2,0l0-0.9l1.7-2.9l0-0.7
	l-1.5,0.1l-0.1-2.3l0.2,0l0-0.9l-0.3,0l-0.1-1.2l0.2-0.3l-0.1-1.7l-1.8,0.1l-0.1-1.7l-0.6,0l-0.1-2.5l0.3,0l-0.1-1.3l-0.4,0
	l-0.1-1.7l1-0.9l0-0.7l-0.8-0.7l0-1.8l-0.6,0l-0.1-1.5l0.4,0l0-0.9l-0.6,0l-0.1-2l0.2,0l0-0.6l-0.5,0l-0.2-3.4l-0.3,0l0.2,3.4
	l-0.6,0l0,0.8l0.2,0l0.1,1.7l-0.7,0l-2.9-4.7l0-1.8l0.5,0l0-0.8l-0.6-0.4l-0.2-3.5l-1.2-1.1l-0.1-2.9l0.7-0.8l-0.1-1l-0.8,0.1
	l-0.1-2.8l-0.5,0l0.1,1.2l-0.4,0l-0.2-4.5l0.7-0.8l0-0.5l-0.7,0l-0.2-2.3l-0.8-0.5l0-1l-1.4-1.7l-0.3-0.1l-0.2-3.4l-0.3,0l0.2,3.4
	l-0.4,0l-1.1,1.7l0,0.9l-0.8,0.7l0.1,2.4l-0.7,0l0,0.8l0.8,0.4l0.2,4.5l-0.5,0l-0.1-1.8l-0.5,0l0.2,3.3l-1,0l-0.1,1l0.9,0.4l0.2,3.2
	l-0.2,0l-0.1-1.5l-0.5,0l0.1,2.6l-0.8,0.9l0.1,1.5l-0.5,0l0-1.4l-1.4-0.9l-0.3-6.1l-0.3,0l0.3,6.2l-1.2,1.3l0.2,3.3l-1.2,0.3l0,0.8
	l0.3,0.4l0.2,4l-0.9,0.1l0,1.5c0,0-0.7,0.2-0.7,0.3c0,0.1,0.1,0.7,0.1,0.7l0.6,0.4l0.5,1.9l-0.4,1l-0.3-1.5l-0.4,0l-0.1,2.2
	l-0.5,0.7l0.1,2.7l-0.7,0.4l0,0.6l0.4,0.4l0.1,1.4l-1.6,4.5l-0.1-1l-0.7,0l-0.3-4.3l-0.3,0l0,4.4l-0.5,0.1l0.2,3.2l-0.6,0l0.1,2.4
	l-0.6,0l0.1,1.2l0.6,0l0.3,5.7l-0.6,0l-0.1,2.1l-0.9,1.5l0.2,3.3l-1.3,1.8l0.1,1.2c0,0-19.9-7.7-29.6-8.9V263h-0.7v-3.6h-0.7v0.7
	l-14.2-5.6V248h-0.4v6.3h-0.3v-3.9h-6.3v-1.3h0.7v-1.7l-1-1l0.2-10.1l0.4-0.6v-1l-0.4-0.3l0.1-1.4l2-1v-1.7l-2.5-1.2v-1.7l-0.6,0
	l0.1-0.5l0.4,0v-2.5h-0.7v-3.8h-2c0,0-0.7-11.8-12.6-19v-0.6l0.8-1.1v-1.3h-0.9v-2.8l-0.4-0.4v-3.7l0.9-0.6v-0.6h-1l-0.1-2.9
	l0.2-0.2v-0.9l-0.3-0.3l-2.8-3.6l-0.1-1.1h0.3v-0.6h-0.3v-0.9l0.2-0.2v-0.5h-0.3l-0.2-4.8l-0.2,0l-0.2,0l-0.2,4.8h-0.3v0.5l0.2,0.2
	v0.9h-0.3v0.6h0.3l-0.1,1.1l-2.8,3.6l-0.3,0.3v0.9l0.3,0.2l-0.1,2.9h-1v0.6l0.9,0.6v3.7l-0.4,0.4v2.8h-0.9v1.3l0.8,1.1v0.6
	c-11.8,7.2-12.6,19-12.6,19h-2v3.8h-0.7v2.5l0.4,0l0.1,0.5l-0.6,0v1.7l-2.5,1.2v1.7l2,1l0.1,1.4l-0.4,0.3v1l0.4,0.6l0.2,10.1l-1,1
	v1.7h0.7v1.3h-6.3v3.9h-0.3V248h-0.4v6.5l-14.2,5.6v-0.7h-0.7v3.6h-0.7v0.8c-6.7,0.9-17.9,4.6-24.1,6.8l-6.7-13.8l0-1.2l-0.6,0
	l0.1-2.4l-0.6,0l0.1-3.2l-0.5-0.1l-0.1-4.4l-0.3,0l-0.2,4.3l-0.7,0l0,1l-1.7-4.5l0-1.4l0.4-0.4l0-0.6l-0.7-0.4l0-2.7l-0.5-0.7
	l-0.1-2.2l-0.4,0l-0.3,1.5l-0.4-1l0.4-2l0.6-0.5c0,0,0.1-0.6,0.1-0.7c0-0.1-0.7-0.3-0.7-0.3l0-1.5l-0.9-0.1l0.1-4l0.3-0.4l0-0.8
	l-1.2-0.2l0.1-3.3l-1.3-1.3l0.1-6.2l-0.3,0l-0.1,6.2l-1.3,1l0,1.4l-0.5,0l0-1.5l-0.8-0.9l0.1-2.6l-0.5,0l0,1.5l-0.2,0l0.1-3.2
	l0.9-0.4l-0.1-1l-1,0l0.1-3.3l-0.5,0l0,1.8l-0.5,0l0.1-4.5l0.8-0.4l0-0.8l-0.7,0l0.1-2.4l-0.8-0.7l0-0.9l-1.1-1.7l-0.4,0l0.1-3.4
	l-0.3,0l-0.1,3.4l-0.3,0.1l-1.3,1.7l0,1l-0.8,0.6l-0.1,2.3l-0.7,0l0,0.5l0.7,0.7l-0.1,4.5l-0.4,0l0-1.2l-0.5,0l-0.1,2.8l-0.8,0
	l-0.1,1l0.7,0.7l-0.1,2.9l-1.2,1.1l-0.1,3.5l-0.6,0.4l0,0.8l0.5,0l0,1.8l-2.7,4.8l-0.7,0l0-1.7l0.2,0l0-0.8l-0.6,0l0.1-3.4l-0.3,0
	l-0.1,3.4l-0.5,0l0,0.6l0.2,0l0,2l-0.6,0l0,0.9l0.4,0l0,1.5l-0.6,0l0,1.8l-0.8,0.7l0,0.7l1,0.9l0,1.7l-0.4,0l0,1.3l0.3,0l-0.1,2.5
	l-0.6,0l0,1.7l-1.8,0l0,1.5l-1-2.8h-5.6l-9.8,24.2l-1-2.4v-26.4h-1v-2h-0.5v-10.1h-1.4v10.1H286V216h-3v-1.7h-10.9v1.7h-0.9v33.8
	c-2.2-3.2-4.7-4.6-4.7-4.6v-1.8h-0.6v-2.1l0.1-0.4L266,240l0.2-0.5l-0.1-0.6l-0.4-0.5v-0.7h0.2v-0.6h-0.3v-1.2l-0.9-1.4v-22.4
	l0.4-0.4v-12.8l-0.1-6.1l-0.7-40.2l-2.8-37l0.3-2.7l-0.4-5.8l-2.8-29.8L258,63.6l1-2.5l-0.4-3.4l-1-1.1L257.1,45l0.8-2.2l-1-2.6
	c0,0,3.6-1.9,4-3.3c0.5-1.4,0.7-3.3-0.9-5.5c-1.6-2.2-4.9-6-4.9-6s-3.6,4.2-4.3,5.2c-0.7,1-3.3,4.6-1.4,7.2c2,2.6,3.4,2.8,3.4,2.8
	l-0.8,2.5l0.6,2.1l-1.6,11.4l-0.7,1l-0.4,3.9l1.4,2.6l-5,44.4l0.2,1.5l-1.2,0.2l1.1,3.9l-1.1,3.9l-5.8-2l-2.3-27.9l0.6-3.6l-1.2-4.6
	l-1.1-24.7l-1.7-5.8l-0.4-11.7l1.5-3.4l-1.8-5.2l-0.6-11.6l0.7-1.6l-0.6-1.6c0,0,4.4-2.3,4.3-4.3c-0.1-2-1.9-5.1-3.3-6.8
	c-1.4-1.6-2.8-3-2.8-3l-3.4,3.3c0,0-4.1,4.4-2.9,6.7c1.2,2.2,3.7,4.2,3.7,4.2l-0.5,1.3l0.7,1.9l-0.9,11.9l-1.7,5l1.3,3.1l-1,12.3
	l-1.2,5.6l-2.4,23.4l-1.1,3l1.1,4.6l-3.6,29.7l-2.4,43.4l-0.5,4.8l-3.5-0.9l0.2-3.3l-1.5-0.5l-0.7-21.9l-0.3-3.7l2.1-1.7
	c0,0,1.3-2,1-3.5c-0.3-1.5-4.4-5.6-4.4-5.6s-4.3,4.9-4.3,5.2c0.1,4.2,1.7,4.6,2.6,5.2l0.1,3.7l-0.9,3.6l0.9,2.6l-1,8.5l-0.8-0.2
	l-1.4-6.9l0.3-3.3l-0.7-0.9l1.3-1.7l-1.5-0.3l-1.5,0.3l1.3,1.7l-0.7,0.9l0.3,3.3l-1.4,6.9L200,152l-1-8.5l0.9-2.6l-0.9-3.6l0.1-3.7
	c0.9-0.7,2.5-1,2.6-5.2c0-0.4-4.3-5.2-4.3-5.2s-4,4-4.4,5.6c-0.3,1.5,1,3.5,1,3.5l2.1,1.7l-0.3,3.7l-0.7,21.9l-1.5,0.5l0.2,3.3
	l-3.5,0.9l-0.5-4.8l-2.4-43.4l-3.6-29.7l1.1-4.6l-1.1-3l-2.4-23.4l-1.2-5.6l-1-12.3l1.3-3.1l-1.7-5l-0.9-11.9l0.7-1.9l-0.5-1.3
	c0,0,2.5-2,3.7-4.2c1.2-2.2-2.9-6.7-2.9-6.7l-3.4-3.3c0,0-1.4,1.4-2.8,3c-1.4,1.6-3.2,4.8-3.3,6.8c-0.1,2,4.3,4.3,4.3,4.3l-0.6,1.6
	l0.7,1.6l-0.6,11.6l-1.8,5.2l1.5,3.4l-0.4,11.7l-1.7,5.8l-1.1,24.7l-1.2,4.6l0.6,3.6l-2.3,27.9l-5.8,2l-1.1-3.9l1.1-3.9l-1.2-0.2
	l0.2-1.5l-5-44.4l1.4-2.6l-0.4-3.9l-0.7-1l-1.6-11.4l0.6-2.1l-0.8-2.5c0,0,1.4-0.2,3.4-2.8c2-2.6-0.7-6.2-1.4-7.2
	c-0.7-1-4.3-5.2-4.3-5.2s-3.3,3.8-4.9,6c-1.6,2.2-1.4,4.1-0.9,5.5c0.5,1.4,4,3.3,4,3.3l-1,2.6l0.8,2.2l-0.6,11.6l-1,1.1l-0.4,3.4
	l1,2.5l-0.6,13.8l-2.8,29.8l-0.4,5.8l0.3,2.7l-2.8,37l-0.7,40.2l-0.1,6.1v12.8l0.4,0.4v47.2l-3.8,0.2l-4.9,9.3l-9.8-21.6l-5.7-0.3
	l-1.2,3h-4.4V261l-1.2,3h-2.3v5.8l-0.1,0.3l-1.1-0.8l-9-22.4h-5.6l-2.3,6.1l-0.1-10.2l1-1v-1.5l-0.8-0.3v-2.4l0.4-0.4v-2h-0.4
	l0-13.8h0.8l-0.1-4.6l0.5-0.7l0-8.3l-1.1-0.7v-3l1.3-1.3l-0.2-3.2l-0.6-0.3l-0.4-4.2l-2-1.1l-3.2,1.2v4.2l-0.5,0.5l-0.2,2.8l0.6,0.7
	l-0.1,0.7l-7.5-6.9v-7.5h-0.7v-4l0.9-1.3v-7.9l-0.7-0.7v-17.2l-2.7-2.7l-1.3-9.4l1.1-1.4l0.2-2.5l-1.7-0.8l-0.8-9.2l1-1.8l-1.2-0.7
	l-0.9-15.5l0.7-1.1l1.1-0.3l-1.7-1.4l-0.3-1.2l0.3-0.6l-0.6-0.6l0.1-1.7l1.2-1.1l-1.2-1l-0.2-3.9l-0.2-0.1l-0.2,0.1l-0.2,3.9l-1.2,1
	l1.2,1.1l0.1,1.7l-0.6,0.6l0.3,0.6l-0.3,1.2l-1.7,1.4l1.1,0.3l0.7,1.1l-0.9,15.5l-1.2,0.7l1,1.8l-0.8,9.2l-1.7,0.8l0.2,2.5l1.1,1.4
	l-1.3,9.4l-2.7,2.7v17.2l-0.7,0.7v7.9l0.9,1.3v4h-0.7v7.5l-7.5,6.9l-0.1-0.7l0.6-0.7l-0.2-2.8l-0.5-0.5v-4.2L51,194l-2,1.1l-0.4,4.2
	l-0.6,0.3l-0.2,3.2l1.3,1.3v3L48,208l0,8.3l0.5,0.7l-0.1,4.6h0.8l0,13.8h-0.4v2l0.4,0.4v2.4l-0.8,0.3v1.5l1,1l-0.1,10.3l-0.9,3v2.5
	l-17.2,11.5V264h-3.6v-13.9H20v6.9l1,1.8l-0.2,14.2l-3.1,3.4l3.4,5.7v10.3h-0.6v-5.3h-2.3v5.3h-1v3.5H15v2.1h-4.7v-1.6H8.6v-2.1h1.6
	v-2.4H8.6v-2.1h1.6v-2.4H8.6v-2.1h1.5v-2.4H8.6v-2.1H10v-2.4H8.6v-2.1h1.3v-2.4H8.6v-2.1h1.2v-2.4H8.6v-2.1h1.1v-2.4H8.6v-2.1h1
	v-2.4h-1v-2.1h1v-2.4h-1v-20.5h-8.7v123.3h688.9v-98H685.5z M315.2,250.3l0,0.1L315.2,250.3L315.2,250.3z M241.9,125.9l2.4,3
	l-1.6,16.5l-3,0.1c0,0-0.2-17.7-0.2-17.9C239.6,127.5,241.9,125.9,241.9,125.9z M215.4,175.8l-0.1,24.2l-1,0.9l-1.1-26.4
	L215.4,175.8z M192.6,174.5l-1.1,26.4l-1-0.9l-0.1-24.2L192.6,174.5z M163.9,125.9c0,0,2.3,1.6,2.3,1.8c0,0.1-0.2,17.9-0.2,17.9
	l-2.9-0.1l-1.6-16.5L163.9,125.9z"/>
</svg>
