<?xml version="1.0" encoding="utf-8"?>
<!-- Generator: Adobe Illustrator 21.0.0, SVG Export Plug-In . SVG Version: 6.00 Build 0)  -->
<svg version="1.1" id="Layer_1" xmlns="http://www.w3.org/2000/svg" xmlns:xlink="http://www.w3.org/1999/xlink" x="0px" y="0px"
	 viewBox="0 0 376 200" style="enable-background:new 0 0 376 200;" xml:space="preserve">
<style type="text/css">
	.st0{fill:#231F20;}
</style>
<path class="st0" d="M371.5,189.4v-10.7h-0.6v-0.4h-0.6v0.4h-0.1v7.6h-0.5v-23.1l-3.6-4.6h-1.1v-0.3h-2.6v-3.3h-1.1v3.3h-0.3v0.3
	h-0.5v0.4h-0.3v0.9h0.3v0.4h-0.3v0.9h0.3v0.4h-0.3v0.9h0.3v0.4h-0.3v0.9h0.3v0.4h-0.3v0.9h0.3v0.4h-0.3v0.9h0.3v0.4h-0.3v0.9h0.3
	v0.4h-0.3v0.9h0.3v0.4h-0.3v0.9h0.3v0.4h-0.3v0.9h0.3v0.4h-0.3v0.9h0.3v0.4h-0.3v0.8h-4.6v11.4h-0.6l-0.2-14.3l0.5-0.2v-0.8
	l-0.3-0.2v-1.2h0.1v-0.6h-0.1v-1.5l1.7-1.3v-0.9h0.7v-1.1h-2.4v-1.2h-0.4v-2.8l1.1-1.4v-0.7h-23.3v-0.3h-1.2v-0.9h-3v-2.4h0.6v1.7
	h0.4l0.3-1.7l-0.2-0.7l0.2-1.3l-0.3-0.4l0.3-0.2l0.2-0.7l-0.1-1.3l-0.5-0.1l-1.3,1.4l0.1,0.7l-1.2,0.4l-0.1,1.4l0.2,1.4l-0.3,0.4
	v1.4h-0.9l0-2.7l0.3-0.6l-0.2-1.2l-0.3-0.1l-0.3-2.2l-0.4-0.5l-0.7,0.2l0.1-1.5l0.1-1.2l-0.5-0.7l-0.4,0.2l-0.6-0.6l-0.5-0.1l0-1.2
	c0,0,1.1-0.1,1.1-0.9c0-0.4-0.1-1-0.8-1l0-0.4l1.8-1.4l0.2-0.8l-2,1.1l0-0.5l-0.5-0.4l-0.5,0.4l0,0.5l-2-1.1l0.2,0.8l1.8,1.4l0,0.4
	c-0.7,0-0.9,0.6-0.8,1c0,0.8,1.1,0.9,1.1,0.9l0,1.2l-0.5,0.1l-0.6,0.6l-0.4-0.2l-0.5,0.7l0.1,1.2l0.1,1.5l-0.7-0.2l-0.4,0.5
	l-0.3,2.2l-0.3,0.1l-0.2,1.2l0.3,0.6l0,2.7h-0.9V154l-0.3-0.4l0.2-1.4l-0.1-1.4l-1.2-0.4l0.1-0.7l-1.3-1.4l-0.5,0.1l-0.1,1.3
	l0.2,0.7l0.3,0.2l-0.3,0.4l0.2,1.3l-0.2,0.7l0.3,1.7h0.4v-1.7h0.6v2.4h-3v0.9H312v0.3h-23.3v0.7l1.1,1.4v2.8h-0.4v1.2H287v1.1h0.7
	v0.9l1.7,1.3v1.5h-0.1v0.6h0.1v1.2l-0.3,0.2v0.8l0.5,0.2l-0.1,8.9h-1.2v-5.7H288v-0.6h-2.5v0.6h-2.6v12h-2.3v-0.9h-0.7v-0.7h0.7
	v-1.3h-0.7v-0.7h0.7v-1.3h-0.7v-0.7h0.7v-1.3h-0.7v-0.7h0.7v-1.3h-0.7v-0.7h0.7v-1.3h-0.7v-0.7h0.7v-1.3h-0.7v-0.7h0.7v-1.3h-0.7
	v-0.7h0.7v-1.3h-0.7v-0.7h0.7v-1.3h-0.7v-0.7h0.7v-1.3h-0.7v-0.7h0.7v-1.3h-0.7v-0.7h0.7v-1.3h-0.7v-0.7h0.7V159h-0.7v-0.7h0.7V157
	h-0.7v-0.7h0.7V155h-0.7v-0.7h0.7V153h-0.7v-0.7h0.7V151h-0.7v-0.7h0.7V149h-0.7v-0.7h0.7V147h-0.7v-0.7h0.7V145h-0.7v-0.7h0.7v-1.3
	h-0.7v-0.7h0.7v-1.3h-0.7v-0.7h0.7v-1.3h-0.7v-0.7h0.7v-1.3h-0.7v-13.2h-1.4v-8.3h-0.6V114h-0.4v-0.8h-2.1v0.8h-2.2v1.7h-7.7v8.3
	h-1.5v56.3h-2.7v-46.7h-1.4v-7h-1.6v-3.7h-0.7v3.7h-10.7v7h-1.5v41.9h-4.6l-0.2-9.3h0.5v-0.9h-0.3v-1.6l1.8-1.8h-1.9v-0.8l0.5-0.4
	h-0.6V160h-0.5l0-0.8l0.2-0.2v-1.5l0.4-1h-0.7l-0.8,1.4l-0.2,0v0.3l-0.5,0.3v-0.8l0.4-0.5v-0.3h-0.5v-0.4l-0.9-0.9l0-4.7l0.2-0.4
	l-0.2,0v-0.1l1.4-1.3l-1.5-0.1v-0.5l-0.4-0.3l0-0.8l-1.5,0c0-0.2-0.2-0.4-0.3-0.4c-0.2,0-0.3,0.2-0.3,0.4l-2.4,0
	c0-0.2-0.2-0.4-0.3-0.4c-0.2,0-0.3,0.2-0.3,0.4l-2.4,0c0-0.2-0.2-0.4-0.3-0.4c-0.1,0-0.1,0-0.2,0.1l-0.1-9.6h-0.2l-0.1,9.9l-2.2,0
	c0-0.2-0.2-0.4-0.3-0.4c-0.2,0-0.3,0.2-0.3,0.4l-1.7,0l-2.8,2.3l0,0.8l-1.6,1.2l1.2,0.9v4.6h-5l-0.1-7.8h-0.2l-0.1,7.8h-3.6
	l-1.7,1.4l0,0.4h-3.5v-1l0.2-0.5h-0.5v-0.1c0.1,0,0.2-0.1,0.2-0.2c0-0.1-0.1-0.2-0.2-0.2v-0.1h-0.1v0.1c-0.1,0-0.2,0.1-0.2,0.2
	c0,0.1,0.1,0.2,0.2,0.2v0.1h-0.5l0.2,0.5v1H201v-1.1l0.2-0.5h-0.5v-0.1c0.1,0,0.2-0.1,0.2-0.2c0-0.1-0.1-0.2-0.2-0.2v-0.1h-0.1v0.1
	c-0.1,0-0.2,0.1-0.2,0.2c0,0.1,0.1,0.2,0.2,0.2v0.1H200l0.2,0.5v1.1H195l0-2.4h0.1l0.8-1.4l-1.1-0.4v-0.8h-0.4V154h-0.1v-0.3
	l0.5-0.9l-0.7-0.3l0-0.3l0.2-0.2l-0.4-0.5l0-0.3l-0.4,0v-1.5l0.3-0.7v-0.3l0.3-0.5l-0.8-0.4l0.1-0.4v-0.4H193l0.1-0.9l-0.4-0.3
	l0-0.7h-0.4v0.7l-0.5,0.5v0.7h-0.3v0.4l0.1,0.3l-0.8,0.6l0.3,0.3l0,0.4l0.2,0.5v1.7h-0.2l-0.5,0.7l0.2,0.3v0.4h-0.3l-0.2,0.4
	l-0.6-0.7l0.2-0.4l-0.8-0.8l0.1-0.4l-0.8-0.8l0.1-0.3l-0.9-0.8l0.1-0.2l-0.9-0.8l0.1-0.2l-1.1-0.7l0-0.2l-0.5-0.4l-0.6-0.2l-0.4-0.4
	l-0.9-0.3l-0.2-0.2l-1.1-0.4l-1.3-0.4c0,0,0.2-0.3-0.9-0.7c-1.1-0.4-2.8-0.5-2.8-0.5s-1.7,0.1-2.8,0.5c-1.1,0.4-0.8,0.7-0.8,0.7
	l-1.3,0.4L171,145l-0.2,0.2l-0.9,0.3l-0.4,0.4l-0.6,0.2l-0.5,0.4l0,0.2l-1.1,0.7l0.1,0.2l-0.9,0.8l0.1,0.2l-0.9,0.8l0.1,0.3
	l-0.8,0.8l0.1,0.4l-0.8,0.8l0.2,0.4l-0.6,0.7l-0.2-0.4h-0.3v-0.4l0.2-0.3l-0.5-0.7h-0.2v-1.7l0.2-0.5l0-0.4l0.3-0.3l-0.8-0.6
	l0.1-0.3v-0.4h-0.3v-0.7l-0.5-0.5v-0.7h-0.4l0,0.7l-0.4,0.3l0.1,0.9h-0.5v0.4l0.1,0.4l-0.8,0.4l0.3,0.5v0.3l0.3,0.7v1.5l-0.4,0
	l0,0.3l-0.4,0.5l0.2,0.2l0,0.3l-0.7,0.3l0.5,0.9v0.3h-0.1v0.2h-0.4v0.8l-1.1,0.4l0.8,1.4h0.1l0,2.4h-5.2v-1.1l0.2-0.5h-0.5v-0.1
	c0.1,0,0.2-0.1,0.2-0.2c0-0.1-0.1-0.2-0.2-0.2v-0.1h-0.1v0.1c-0.1,0-0.2,0.1-0.2,0.2c0,0.1,0.1,0.2,0.2,0.2v0.1h-0.5l0.2,0.5v1.1
	h-4.7v-1l0.2-0.5h-0.5v-0.1c0.1,0,0.2-0.1,0.2-0.2c0-0.1-0.1-0.2-0.2-0.2v-0.1h-0.1v0.1c-0.1,0-0.2,0.1-0.2,0.2
	c0,0.1,0.1,0.2,0.2,0.2v0.1h-0.5l0.2,0.5v1H144l0-0.4l-1.7-1.4h-3.6l-0.1-7.8h-0.2l-0.1,7.8h-5v-4.6l1.2-0.9l-1.6-1.2l0-0.8
	l-2.8-2.3l-1.7,0c0-0.2-0.2-0.4-0.3-0.4c-0.2,0-0.3,0.2-0.3,0.4l-2.2,0l-0.1-9.9h-0.2l-0.1,9.6c0,0-0.1-0.1-0.2-0.1
	c-0.2,0-0.3,0.2-0.3,0.4l-2.4,0c0-0.2-0.2-0.4-0.3-0.4c-0.2,0-0.3,0.2-0.3,0.4l-2.4,0c0-0.2-0.2-0.4-0.3-0.4c-0.2,0-0.3,0.2-0.3,0.4
	l-1.5,0l0,0.8l-0.4,0.3v0.5l-1.5,0.1l1.4,1.3v0.1l-0.2,0l0.2,0.4l0,4.7l-0.9,0.9v0.4h-0.5v0.3l0.4,0.5v0.8l-0.5-0.3V158l-0.2,0
	l-0.8-1.4h-0.7l0.4,1v1.5l0.2,0.2l0,0.8h-0.5v0.6H113l0.5,0.4v0.8h-1.9l1.8,1.8v1.6h-0.3v0.9h0.5l-0.3,12.9l-0.2,0.5h-0.5v1.4h-0.5
	v0.6h0.2v2.8h-0.9v-3h-2.1v-20.9H98v4.8h-1.2v-4.2H96v-1.3l-0.4-0.4v-5.8L96,153l-0.4-0.3l0-0.5l0.9-1.2l-1.1-0.9V149l0.2-0.3
	l-0.7-0.5v-1.8l-0.3-0.9l-0.4,0.9v0.9l-0.7-0.4c0,0,0.3-5.6-5.1-6.9v-0.2l-0.8-0.1l-0.1-1.5l-0.2-0.1v-0.6c0,0,0.7-0.2,0.8-0.7
	c0-0.4-0.1-0.9-0.8-1v-2.2h-0.1v2.2c-0.7,0-0.8,0.5-0.8,0.9c0,0.4,0.4,0.8,0.7,0.8l0,0.6l-0.2,0.2v1.4l-0.6,0.2l0,0.2
	c0,0-5,2.2-5,7.8c0,0-0.7,0.6-0.7,1c0,0.5,0.1,0.7,0.1,0.7l-0.5,0.8l-0.4,0l-0.5,3.2l0,0.8l0.7,0.4v6.5l-0.6,1v0.6l-0.3,0.6v1.7
	l0.8,1.1l-2.3,0c0,0-0.2-1.4-1.3-2.2l-1.3-66.6H76v-2.4h0.2v-1h-0.4v-2.5c3.4-1.3,5.9-4.6,5.9-8.4c0-4-2.6-7.3-6.1-8.5v-1.1H77v-1.2
	h-1.4v-0.4h1.3V71h-0.1l0-0.4h0.1v-1.2h-0.2l0-0.4h0.2v-1.2h-0.3l0-0.4h0.4v-1.2h-0.5l0-0.4h0.6v-1.2h-0.7l0-0.4h0.8v-1.2h-0.6v-0.4
	h0.7v-1.2h-2.5L73.3,1h-1.2L71,61.6h-2.4v1.2h0.7v0.4h-0.7v1.2h0.8l0,0.4h-0.8v1.2h0.7l0,0.4h-0.6v1.2H69l0,0.4h-0.5V69h0.4l0,0.4
	h-0.3v1.2h0.2l0,0.4h-0.1v1.2h1.4v0.4h-1.4v1.2h1.4v1.1c-3.6,1.2-6.2,4.5-6.2,8.5c0,3.9,2.5,7.2,5.9,8.4v2.5h-0.4v1h0.2v2.4h0.8
	l-1,50c-0.6-4.3-3.1-12.2-13.4-15.9l-0.3-0.9l0-3.9c0,0-1.3-1.1-1.5-2.1c-0.3-1-0.3-3.4-0.3-3.4l-0.5-0.4l0-0.4c0,0,0.3-0.2,0.3-0.5
	c0-0.4-0.3-0.5-0.4-0.5c-0.1,0,0-0.4,0-0.4l0.2-0.1l0-3.5l-0.2,0l-0.2,0l0,3.5l0.2,0.1c0,0,0.1,0.4,0,0.4c-0.1,0-0.4,0.1-0.4,0.5
	c0,0.4,0.3,0.5,0.3,0.5l0,0.4l-0.5,0.4c0,0,0,2.4-0.3,3.4c-0.3,1-1.5,2.1-1.5,2.1l0,3.9l-0.3,0.9c-14.5,5.2-13.5,18.7-13.5,18.7
	l-0.4,0.1l-0.1-2.7l-0.4-1.5l-0.6,1.5l-0.2,3.4l-0.2,0.5l0.2,0.4l-0.9,1.2l0.5,0.5v0.4l-1,1.2l0.9,0.8v1.2h-0.2v0.4l0.3,0.5v7.5
	l-0.3,0.6l-0.3,0c-0.6-2.2-2-2.6-2.7-2.6v-1.2h-0.4v1.2c-2.1,0.2-2.5,2.6-2.5,2.6l-2.3,0l0.8-1.1v-1.7l-0.3-0.6v-0.6l-0.6-1v-6.5
	l0.7-0.4l0-0.8l-0.5-3.2l-0.4,0l-0.5-0.8c0,0,0.1-0.3,0.1-0.7c0-0.5-0.7-1-0.7-1c0-5.5-5-7.8-5-7.8l0-0.2l-0.6-0.2v-1.4l-0.2-0.2
	l0-0.6c0.4-0.1,0.7-0.4,0.7-0.8c0-0.4-0.1-0.9-0.8-0.9v-2.4h-0.1v2.4c-0.7,0-0.8,0.5-0.8,1c0,0.5,0.8,0.7,0.8,0.7v0.6l-0.2,0.1
	l-0.1,1.5l-0.8,0.1v0.2c-5.4,1.3-5.1,6.9-5.1,6.9l-0.7,0.4v-0.9l-0.4-0.9l-0.3,0.9v1.8l-0.7,0.5l0.2,0.3v1.1L9.5,151l0.9,1.2l0,0.5
	l-0.4,0.3l0.4,0.8v5.8l-0.4,0.4v1.3H9.4v4.3H8.9v0.4H8.7l0.3,0.4v1.3l-2.4,0.1l2.2,2.1v2.1H8.2l0.5,2.3v7l-0.8,0L6.6,183l1.2,1.1
	v0.8h0.2v6.4H6.1v-2.2H5.2v-2.4H4v2.4H3.8v5.4H3.5v-0.8H3v-0.3h0.5v-0.9H3v-0.3h0.5v-0.9H3v-0.3h0.5V190H3v-0.3h0.5v-0.9H3v-0.3h0.5
	v-0.9H3v-0.3h0.5v-0.9H3V186h0.5v-0.9H3v-0.3h0.5v-0.9H3v-0.3h0.5v-0.9H3v-0.3h0.5v-0.9H3v-0.3h0.5v-0.9H3v-0.3h0.5V179H3v-0.3h0.5
	v-0.9H3v-0.3h0.5v-0.9H3v-0.3h0.5v-0.9H3V175h0.5v-0.9H3v-0.4H2.6v-0.3H0.6v0.3H0v26.5h372v-10.8H371.5z M355.8,187.3v1.7h-0.6
	l0-1.7H355.8z M351.7,171.1l-0.1,5.7h-0.5v0.8h-1.6v0.7h-1.2V192h-0.9v4.5H344v-0.6h-0.3l-0.4-24.8H351.7z M340.1,171.1l-0.4,24.8
	h-0.3v0.6h-7.6v-0.6h-0.3l-0.4-24.8H340.1z M327.8,171.1l-0.4,24.8h-0.3v0.6h-9.7v-0.6h-0.3l-0.4-24.8H327.8z M313.5,171.1
	l-0.4,24.8h-0.3v0.6h-7.6v-0.6h-0.3l-0.4-24.8H313.5z M301.3,171.1l-0.2,15.4h-0.4v-0.7h-0.3v-6.9h-0.8v-2.2h-0.4V174h-4.8v9.4H293
	l-0.2-12.3H301.3z"/>
</svg>
