<?xml version="1.0" encoding="utf-8"?>
<!-- Generator: Adobe Illustrator 21.0.0, SVG Export Plug-In . SVG Version: 6.00 Build 0)  -->
<svg version="1.1" id="Layer_1" xmlns="http://www.w3.org/2000/svg" xmlns:xlink="http://www.w3.org/1999/xlink" x="0px" y="0px"
	 viewBox="0 0 689 304" style="enable-background:new 0 0 689 304;" xml:space="preserve">
<style type="text/css">
	.st0{fill:#231F20;}
</style>
<path class="st0" d="M684.1,212.1l1.6-2.1v-3.8l-3-0.2c-2.7-13.7-13.2-16.2-13.2-16.2v-1.3l0.9-0.9v-1.7h-2v-20.5h-1L667,157
	c-2.5-36.7-36.7-56.7-36.7-56.7v-1.6h-1.8v-5.9l-3.1-1.6l-0.3-1.9l-0.7-0.5v-5.6l1.9-1.2v-1.2l-2-0.5v-5.2l-1.9,0l-3.8-9.3l0.2-1.5
	c0,0,0.8-0.7,1-1.1c0.2-0.4,0-1.5-0.2-1.9c-0.2-0.4-1.5-1.1-1.5-1.1l0.2-2.1l0.4-0.3l-0.1-0.5l-0.9-0.4v-2.4H617v2.5l-0.5,0.4v0.6
	l0.3,0.4l-0.1,2c0,0-1,0.8-1.4,1.2c-0.3,0.3-0.4,1-0.3,1.5c0.1,0.5,1.1,1.4,1.1,1.4v1.5l-3.8,9.4l-1.9,0.2l-0.2,5.8l-1.3,0.2v0.6
	l1.5,1.6l0.1,5.6l-0.9,0.3l-0.2,1.9l-3.8,1.8v5.7h-1.8l0.2,1.2c-32.6,23.9-35.7,51-35.7,51v2.2h-0.5v4.6h-0.6v11l-0.7,0.2l0.1,8
	l-58.1-0.3v-7.2h1.4v-5.8h-0.9v-5.1h-6.7v-16.2h-0.8v-5.7H495v5.7h-9.1v14.6h-5.3v3.7h-1.4v2.3h-1.9v6.7h1.9v6.9l-13.7-0.1
	c0,0-0.1-2.5-0.2-2.6c-0.1-0.2,1.4-1.1,1.4-1.1l0.2-9h-10.7v2.8h-1.8v-2.5l-3.5-0.1l0.1-2.7h1.1v-1.9H451l0.3-40.4l1.5-1.8v-7.2
	l-4.2-0.1l-12.1-4v-2.2h-1.3V82.6h-0.3v20.7h-1.2l-0.1,2.4l-13.6,3.8l-2.7,0.1l-0.3,2.7l0.5,0.1v4.5l1.4,2.6v41.2h-0.8v1.5h1.1v23.7
	h-0.5v1.3h0.4v22.5h-0.7v1.4h0.5v8.5h-6.7v-6.4l-3.9-1.9l-3.7,0.2v-3l-1.7-0.6v-0.5h-2.4l0,0.4l-1.8,0.4v4.8h-1.1v-11.7h0.3V199
	h-0.4v-15h0.2l0.1-2.7l0.4-0.4v-3.4h-1.2v-5.4h-0.7v-8.4h-1.4l-4.6-24.7v-1.9l-0.4-0.5l-0.2-2.6h-0.4l-0.2,2.5l-0.3,0.7v1.8
	l-4.9,25.1h-1.3v8.2c0,0-0.6,0-0.7,0c-0.1,0,0,5.4,0,5.4h-1.2v3.6h0.8v2.8h0.2l-0.1,14.8h-0.3v4.6l0.2,0.2v3.2h-2.2l-1.5-104.5
	l1.2-0.7v-1.4l-1-1.4v-2.6c0,0,1.3-1.3,1.7,0.1c0.4,1.4,2.2,3.7,5.5,3.2c3.3-0.5,1.8-7.6,1.8-7.6l2.2-1.4l-6.2-3.2v-3.1l1.6-0.5
	l0.3-2.9l10-0.9l0.1-4.5l3.5-1.2v-1.3l-3.2-2.6l-0.1-1.9l-16.3-11.7l2.5-2.9l0.3-2.7l-1.8-2.7v-2.2l-2.1-2.3v-4l4.3-3.4l0.8-9.3
	l-5.1-3.8l-0.4-4.3l-6-7.1l0.9-6.9L366,0.2l-1.6,1.2l-0.3,5.6l2.5,2.5l-0.3,2.7l-4.7,1.9l-0.3,8.4l-3.6,8.6l0.5,8.2l4.1,4.8l-1,8.8
	l-2.5,1.4l0.1,1.7l-16.3,3.5l-0.1,1.8h-3.8l-0.4,1.7l4.1,3.6l0.1,4.1l12.1,9.3v3.1l-6.4-0.1l0.1,1.3l1.8,1.6c0,0-0.4,2.9,0,6
	c0.4,3.1,3.4,3.6,4.8,3.5c1.4-0.1,2.1-2.1,2.1-2.1l2.6,1l0.3,3.6l-1.3,1.9l1.7,2.1l-1.9,131.7h-0.9v-7.5l0.9-0.9V224h-2.1v-15.7
	l0.4-0.4v-1.4l-0.6-0.6v-10.6l0.3-0.3v-3.4l0.5-0.5v-0.9h-1.4v-2.1l1.3-1.3l-0.9-0.9h-0.7v-1h-0.5v-5.2l0.5-0.5v-1.5h-0.8v-6.7
	l-0.6-2.8H354l-0.5,2.8v3.4h-0.2v-3.3l-1.5-4.7l-0.1-1.7l-0.8,0l0.1,1.9l-1.1,4.2v4.1h-0.3v-3.3l-0.8-2.2h-0.3l-0.5,2.3v12.4
	l-10.3-13.4v-1h0.2v-0.6l-0.3-0.3v-0.9h-0.5v-1.9h-0.7v1.8h-0.8v0.8v0.7v1.8l-10.2,12.5l-0.1-3.8h0.4v-2.1h-0.4v-12.3l0.2-0.2v-1.8
	h-0.2v-12.1l0.2-0.2v-0.7h-0.4v-7.2l1.8-1.6v-1l-1.7-0.2v-0.8l-2-1l0-4.5h0.6V133l-0.7-1.1l0-5.8l-0.5-3h-0.4l-0.5,2.6l-0.1,3.6
	l-0.2-0.1v-3.5l-1.1-4.6v-1.7l-0.7,0v1.7l-1.1,4.7v3.3h-0.2v-2.3l-0.4-2.6l-0.3-0.1l-0.5,2.6v11.7l-25-26.5l-0.1-1l-1-0.2l0.8-1.8
	l-0.9-1.4l0.2-1.5c0,0,0.5-2.2,0.2-3.3c-0.3-1.1-0.8-1.3-0.8-1.3l-0.2,0.6l-1.1-1.1L289,100l1.9-0.2l-0.1-0.7l-1.6-0.3l-0.1-2
	l-0.4-0.2l-0.4,0.2l-0.1,2l-1.6,0.3l-0.1,0.7l1.9,0.2l-0.1,1.1l-1.1,1.1l-0.2-0.6c0,0-0.5,0.2-0.8,1.3c-0.3,1.1,0.2,3.3,0.2,3.3
	l0.2,1.5l-0.9,1.4l0.8,1.8l-1,0.2l-0.1,1l-25,26.5v-11.7l-0.5-2.6l-0.3,0.1l-0.4,2.6v2.3h-0.2v-3.3l-1.1-4.7v-1.7l-0.7,0v1.7
	l-1.1,4.6v3.5l-0.2,0.1l-0.1-3.6l-0.5-2.6h-0.4l-0.5,3l0,5.8l-0.7,1.1v1.3h0.6l0,4.5l-2,1v0.8l-1.7,0.2v1l1.8,1.6v7.2h-0.4v0.7
	l0.2,0.2v12.1h-0.2v1.8l0.2,0.2v12.3h-0.4v2.1h0.4l-0.1,3.8l-10.2-12.5v-1.8v-0.7V168H241v-1.8h-0.7v1.9h-0.5v0.9l-0.3,0.3v0.6h0.2
	v1l-10.3,13.4v-12.4l-0.5-2.3h-0.3l-0.8,2.2v3.3h-0.3V171l-1.1-4.2l0.1-1.9l-0.8,0l-0.1,1.7l-1.5,4.7v3.3H224v-3.4l-0.5-2.8h-0.3
	l-0.6,2.8v6.7h-0.8v1.5l0.5,0.5v5.2h-0.5v1h-0.7l-0.9,0.9l1.3,1.3v2.1h-1.4v0.9l0.5,0.5v3.4l0.3,0.3v10.6l-0.6,0.6v1.4l0.4,0.4v6.3
	h-0.7v0.6h-0.6v-0.6h-3.1v0.6h-0.6v-0.6h-3.1v0.6h-0.6v-0.6h-3.1v0.6h-0.6v-0.6h-3.1v0.6h-0.6v-0.5h-3.1v0.5h-0.6v-0.5h-3.1v0.5
	h-0.6v-0.5h-3.1v0.5h-0.6v-0.5h-3.1v0.5h-0.6v-0.5h-3.1v0.5h-0.6v-0.5h-3.1v0.5H183v-0.5h-3.1v0.5h-0.6v-0.5h-3.1v0.5h-0.6v-0.5
	h-3.1v0.5H172v-0.5H169v0.5h-0.6v-0.5h-3.1v0.5h-0.6v-0.4h-3.1v0.4h-0.6v-0.4H158v0.4h-0.6v-0.4h-3.1v0.4h-0.6v-0.4h-3.1v0.4h-0.6
	v-0.4H147v0.4h-0.6v-0.4h-3.1v0.4h-0.6v-0.4h-3.1v0.4h-0.6v-0.4h-3.1v0.4h-0.6v-0.4h-3.1v0.4h-0.6v-0.4h-3.1v0.4h-0.6v-0.3h-3.1v0.3
	h-0.6v-0.3h-3.1v0.3h-0.6v-0.3h-3.1v0.3h-0.6v-0.3h-3.1v0.3h-0.6v-0.3h-3.1v0.3H110v-0.3h-2v-0.5l0.7-0.6v-0.4l0.9-0.6v-0.3h-1.8
	l0-1l-0.4-0.5v-5.8l-0.5-0.4v-3.3l0.9-0.8l0-0.4l0.6-0.4v-0.3h-5.8l-0.3-0.3h-1.1c0,0,1.1-0.7,0.6-2c-0.5-1.2-2.4-4.6-8.3-7.3
	c-5.9-2.8-10.8-5.9-12-7.9l-0.5-0.8c0,0,1-0.6,0.9-1.4c-0.1-0.8-0.7-1.6-1.6-1.7c-0.8-0.1-1.7,0.9-1.7,0.9v-5.9l-0.2-0.1v-1.6
	l0.7-0.4l0.9-0.8l1-2.6L54.9,154l-26.1,13.9l1,2.6l0.9,0.8l0.7,0.4v1.6l-0.2,0.1v5.9c0,0-0.8-0.9-1.7-0.9c-0.8,0.1-1.5,0.9-1.6,1.7
	c-0.1,0.8,0.9,1.4,0.9,1.4l-0.5,0.8c-1.2,2-6.1,5.2-12,7.9c-5.9,2.8-7.8,6.1-8.3,7.3c-0.5,1.2,0.6,2,0.6,2H7.5l-0.3,0.3H1.5v0.3
	l0.6,0.4l0,0.4l0.9,0.8v3.3l-0.5,0.4v5.8L2,211.5l0,1H0.2v0.3l0.9,0.6v0.4l0.7,0.6v1.7l-0.3,0l-0.1,1.7l-0.6,0.6l0.7,0.7l0.5,0.5
	V245H0.5v58.5h688.9v-73.5L684.1,212.1z M219.6,249.6v10.5h0.1v0.4h-9.9v-5.7C213,252.6,216.3,250.9,219.6,249.6z M168.2,232.6
	c0-2.6,2.6-4.7,5.8-4.7s5.8,2.1,5.8,4.7c0,0,0,0,0,0v6.9h-11.7V232.6z M154.3,232.9c0-2.6,2.6-4.7,5.8-4.7c3.2,0,5.8,2.1,5.8,4.7
	c0,0,0,0,0,0v6.9h-11.7V232.9z M140.4,232.6c0-2.6,2.6-4.7,5.8-4.7c3.2,0,5.8,2.1,5.8,4.7c0,0,0,0,0,0v6.9h-11.7V232.6z M159.3,245
	c0,0,17.7-0.9,33.6,9.9v5.7h-65.1l0.1-5.6C127.9,254.9,141.3,244.6,159.3,245z M107.9,252.4c2.5,1.5,3.9,2.5,3.9,2.5l0.1,5.6h-4
	V252.4z"/>
</svg>
