<?xml version="1.0" encoding="utf-8"?>
<!-- Generator: Adobe Illustrator 21.0.0, SVG Export Plug-In . SVG Version: 6.00 Build 0)  -->
<svg version="1.1" id="Layer_1" xmlns="http://www.w3.org/2000/svg" xmlns:xlink="http://www.w3.org/1999/xlink" x="0px" y="0px"
	 viewBox="0 0 689 321" style="enable-background:new 0 0 689 321;" xml:space="preserve">
<style type="text/css">
	.st0{fill:#231F20;}
</style>
<polygon class="st0" points="677.1,244.1 677.1,236.6 667.6,236.6 667.6,239.6 662,239.6 662,244.8 657.9,244.8 657.9,238.6 
	637,238.6 637,222.1 632.7,222.1 632.7,214.9 630.3,214.9 630.3,207.8 627.4,207.8 627.4,192.1 616.5,181.3 613.9,181.3 
	607.3,187.9 607.3,164.4 602.6,164.4 602.6,160.3 585.6,160.3 585.6,157.1 581.8,157.1 581.8,160.6 579.6,160.6 579.6,164.8 
	570.5,164.8 570.5,167.9 559.4,167.9 559.4,223.5 550.6,218.2 545.6,218.2 541.8,221.1 541.8,223.8 540.7,223.8 540.7,220 
	538.5,220 538.5,214.8 539.6,214.8 539.6,148 532,143.9 532,139.9 522.5,135.7 522.5,118.8 522.5,109.9 521.9,109.9 521.9,119.1 
	521.2,119.1 521.2,135.6 513.5,141 513.5,144.2 507.2,148.6 507.2,166.7 492.2,166.7 492.2,174.5 489.5,174.5 489.5,198.6 
	487.5,198.6 487.5,266.7 485.8,266.7 485.8,216.4 478.9,216.4 478.9,218.7 475.3,218.7 475.3,189.8 474.3,189.8 474.3,187.9 
	475.2,187.9 475.2,187.2 475.8,187.2 475.8,186.1 475.2,186.1 475.1,185.2 475.8,185.2 475.7,184.1 475.1,184.1 475.1,183.2 
	475.7,183.2 475.7,182.1 475,182.1 475,181.3 475.6,181.3 475.6,180.2 475,180.2 474.9,179.3 475.6,179.3 475.6,178.2 474.9,178.2 
	474.9,177.3 475.5,177.3 475.5,176.2 474.8,176.2 474.8,175.4 475.5,175.4 475.5,174.3 474.8,174.3 474.8,173.4 475.4,173.4 
	475.4,172.3 474.7,172.3 474.7,171.4 475.4,171.4 475.4,170.3 474.7,170.4 474.6,169.5 475.3,169.5 475.3,168.4 474.6,168.4 
	474.6,167.5 475.3,167.5 475.2,166.4 474.5,166.4 474.5,165.6 475.2,165.5 475.2,164.4 474.5,164.5 474.4,163.6 475.2,163.6 
	475.1,162.5 474.4,162.5 474.4,161.6 475.1,161.6 475.1,160.5 474.3,160.5 474.3,159.7 475.1,159.6 475,158.5 474.3,158.6 
	474.2,157.7 475,157.7 475,156.6 474.2,156.6 474.2,155.7 475,155.7 474.9,154.6 474.1,154.6 474.1,153.8 474.9,153.7 474.9,152.6 
	474.1,152.7 474,151.8 474.9,151.8 474.8,150.7 474,150.7 474,149.8 474.8,149.8 474.8,148.7 474,148.7 473.9,147.9 474.7,147.8 
	474.7,146.7 473.9,146.8 473.9,145.9 474.7,145.9 474.7,144.8 473.8,144.8 473.8,143.9 474.6,143.9 474.6,142.8 473.8,142.8 
	473.7,142 474.6,141.9 474.6,140.8 473.7,140.9 473.7,140 474.5,140 474.5,138.9 473.6,138.9 473.6,138 474.5,138 474.5,136.9 
	473.6,136.9 473.5,136.1 474.4,136 474.4,134.9 473.5,135 473.5,134.1 474.4,134.1 474.3,133 473.4,133 473.4,132.1 474.3,132.1 
	474.3,131 473.4,131 473.4,130.2 474.3,130.1 474.2,129 473.3,129.1 473.3,128.2 474.2,128.2 474.2,127.1 473.3,127.1 473.2,126.2 
	474.2,126.2 474.1,125.1 473.2,125.1 473.2,124.3 474.1,124.2 474.1,123.1 473.1,123.2 473.1,121.7 471.9,121.7 471.9,120.6 
	473.6,120.6 473.6,119.5 472.9,119.6 472.9,118.4 473.5,118.4 473.5,117.4 472.8,117.4 472.8,116.3 473.3,116.3 473.3,115.2 
	472.7,115.2 472.7,114.1 473.2,114.1 473.2,113 472.6,113.1 472.6,111.9 473.1,111.9 473,110.9 472.5,110.9 472.5,109.8 
	472.9,109.8 472.9,108.7 472.4,108.7 472.4,107.6 472.8,107.6 472.7,106.5 472.3,106.6 472.3,105.4 472.6,105.4 472.6,104.4 
	472.2,104.4 472.2,103.3 472.5,103.3 472.4,102.2 472.1,102.2 472.1,101.1 472.3,101.1 472.3,100 472,100.1 472,98.9 472.2,98.9 
	472.2,97.9 471.9,97.9 471.9,96.8 472,96.8 472,95.7 471.8,95.7 471.8,94.6 471.9,94.6 471.9,93.5 471.7,93.5 471.7,92.4 
	471.7,92.4 471.7,91.4 471.6,91.4 471.6,90.3 471.6,90.3 471.6,89.2 471.5,89.2 471.2,82.1 469.8,82.1 469.8,78.1 471,78.1 
	471,77.8 471.8,77.8 471.8,76.1 470.9,76.2 470.9,75.2 471.7,75.2 471.6,73.5 470.8,73.6 470.8,72.6 471.5,72.6 471.5,70.9 
	470.7,71 470.7,70 471.4,70 471.3,68.3 470.6,68.4 470.6,67.4 471.2,67.4 471.2,65.7 470.5,65.7 470.5,64.8 471.1,64.8 471,63.1 
	470.4,63.1 470.4,62.2 470.9,62.2 470.9,60.5 470.3,60.5 470.3,59.6 470.7,59.6 470.7,57.9 470.2,57.9 470.2,57 470.6,57 
	470.5,55.3 470.1,55.3 470.1,54.4 470.4,54.4 470.4,52.7 470,52.7 470,51.8 470.3,51.8 470.2,50.1 468.6,50.2 468.6,48.6 
	469.7,48.6 467.6,27.2 466.7,27.2 466.2,17.5 465.4,16.7 464.6,9.8 456.6,-0.4 449.9,-0.4 449.9,0.4 447.1,0.4 447.1,-0.3 
	440.5,-0.3 433,10.6 431.9,17.8 431,18 430.3,27.6 429.6,27.6 428.2,49 429.6,49 429.6,50.2 428.5,50.2 428.5,51.9 428,51.9 
	428,53.6 428.4,53.6 428.4,54.5 427.9,54.5 427.9,56.2 428.3,56.2 428.3,57.1 427.8,57.1 427.8,58.8 428.3,58.8 428.2,59.7 
	427.7,59.7 427.7,61.4 428.2,61.4 428.2,62.3 427.6,62.3 427.6,64 428.1,64 428.1,64.9 427.6,64.9 427.6,66.6 428,66.6 428,67.5 
	427.5,67.5 427.5,69.2 428,69.2 427.9,70.2 427.4,70.2 427.4,71.8 427.9,71.8 427.9,72.8 427.3,72.8 427.3,74.4 427.8,74.4 
	427.8,75.4 427.2,75.4 427.2,77 427.7,77 427.7,78 427.1,78 427.1,79.6 427.7,79.6 427.6,80.4 428.8,80.4 428.8,83.5 427.6,83.5 
	427.5,97.1 427.5,97.1 427.5,98.2 427.5,98.2 427.5,99.3 427.4,99.3 427.4,100.4 427.5,100.4 427.5,101.5 427.3,101.5 427.3,102.5 
	427.5,102.5 427.5,103.7 427.2,103.7 427.2,104.7 427.5,104.7 427.5,105.8 427.1,105.8 427.1,106.9 427.4,106.9 427.4,108 427,108 
	427,109 427.4,109 427.4,110.2 427,110.2 427,111.2 427.4,111.2 427.4,112.3 426.9,112.3 426.9,113.4 427.4,113.4 427.4,114.5 
	426.8,114.5 426.8,115.6 427.4,115.6 427.4,116.7 426.7,116.7 426.7,117.7 427.3,117.7 427.3,118.9 426.6,118.9 426.6,119.9 
	427.3,119.9 427.3,121 426.5,121 426.5,122.1 427.3,122.1 427.3,122.6 428.1,122.6 428.1,124.3 427,124.3 427,124.6 426.1,124.6 
	426.1,125.7 427,125.7 427,126.6 426.1,126.6 426.1,127.7 427,127.7 427,128.6 426.1,128.6 426.1,129.7 427,129.7 427,130.5 
	426.1,130.5 426.1,131.6 427,131.6 427,132.5 426.1,132.5 426.1,133.6 427,133.6 426.9,134.5 426.1,134.5 426.1,135.6 426.9,135.6 
	426.9,136.4 426.1,136.4 426.1,137.5 426.9,137.5 426.9,138.4 426.1,138.4 426.1,139.5 426.9,139.5 426.9,140.4 426.1,140.4 
	426.1,141.5 426.9,141.5 426.9,142.3 426.1,142.3 426.1,143.4 426.9,143.4 426.9,144.3 426.1,144.3 426.1,145.4 426.9,145.4 
	426.9,146.3 426.1,146.3 426.1,147.4 426.9,147.4 426.9,148.2 426.1,148.2 426.1,149.3 426.9,149.3 426.8,150.2 426.1,150.2 
	426.1,151.3 426.8,151.3 426.8,152.2 426.1,152.2 426.1,153.3 426.8,153.3 426.8,154.1 426.1,154.1 426.1,155.2 426.8,155.2 
	426.8,156.1 426.1,156.1 426.1,157.2 426.8,157.2 426.8,158.1 426.1,158.1 426.1,159.2 426.8,159.2 426.8,160 426.1,160 
	426.1,161.1 426.8,161.1 426.8,162 426.1,162 426.1,163.1 426.8,163.1 426.8,164 426.1,164 426.1,165.1 426.8,165.1 426.8,165.9 
	426.1,165.9 426.1,167 426.7,167 426.7,167.9 426.1,167.9 426.1,169 426.7,169 426.7,169.9 426.1,169.9 426.1,171 426.7,171 
	426.7,171.8 426.1,171.8 426.1,172.9 426.7,172.9 426.7,173.8 426.1,173.8 426.1,174.9 426.7,174.9 426.7,175.8 426.1,175.8 
	426.1,176.9 426.7,176.9 426.7,177.7 426.1,177.7 426.1,178.8 426.7,178.8 426.7,179.7 426.1,179.7 426.1,180.8 426.7,180.8 
	426.7,181.7 426.1,181.7 426.1,182.8 426.6,182.8 426.6,183.6 426.1,183.6 426.1,184.7 426.6,184.7 426.6,185.6 426.1,185.6 
	426.1,186.7 426.6,186.7 426.6,187.6 426.1,187.6 426.1,188.7 426.6,188.7 426.6,189.3 427.1,189.3 427.1,191.2 426.4,191.2 
	426.4,201.2 415,201.2 415,236.1 409.6,236.1 409.6,231.6 403.3,231.6 403.3,181.4 398.4,181.4 398.4,178.8 384,178.8 384,182.1 
	375.6,182.1 375.6,205.4 373.7,205.4 373.7,181.9 369.1,181.9 369.1,178.7 367.4,178.7 367.4,172.6 366.8,172.6 366.8,178.7 
	360.6,178.7 360.6,182.4 357.5,182.4 357.5,179.8 348.8,179.8 348.8,182.7 343.1,182.7 343.1,184.3 342.4,184.3 342.4,188.6 
	343.1,188.6 343.1,189.4 342.4,189.4 342.4,193.7 343.1,193.7 343.1,194.5 342.4,194.5 342.4,198.8 343.1,198.8 343.1,199.7 
	342.4,199.7 342.4,203.9 343.1,203.9 343.1,204.8 342.4,204.8 342.4,209 343.1,209 343.1,209.9 342.4,209.9 342.4,214.2 
	343.1,214.2 343.1,215 342.4,215 342.4,219.3 343.1,219.3 343.1,220.2 342.4,220.2 342.4,224.4 343.1,224.4 343.1,225.3 
	342.4,225.3 342.4,228.7 336.2,228.7 336.2,231.3 323.1,231.3 323.1,214.7 321.9,214.7 321.9,187.5 320.8,187.5 320.8,186.4 
	319.1,186.4 319.1,185.7 317.1,185.7 317.1,182.1 316.2,182.1 316.2,185.7 306.2,185.7 306.2,186.4 283.3,186.4 283.3,187.5 
	282.1,187.5 282.1,206.4 279.7,206.4 279.7,199.4 279.1,199.4 279.1,206.4 262.5,206.4 262.5,207.8 258.7,207.8 258.7,211.6 
	258.3,211.6 258.3,234 254.8,234 254.8,264.8 250.6,264.8 250.6,253 248.7,253 248.7,251 235.3,251 235.3,240.2 226.1,240.2 
	226.1,239.3 216.2,239.3 216.2,232 214.6,232 214.6,225 213.4,225 213.4,232 206.6,232 203.2,237.7 203.2,243.1 198.1,243.1 
	198.1,141.4 195.3,137 192.7,137 192.7,135.1 192,135.1 192,129.1 192.3,129.1 192.3,125.5 182.9,107.5 182.9,93.4 182.4,93.4 
	182.4,58.6 181.8,58.6 181.3,58.6 181.3,93.4 180.7,93.4 180.7,107.5 171.3,125.5 171.3,129.1 171.6,129.1 171.6,135.1 171,135.1 
	171,137 168.3,137 165.6,141.4 165.6,260.1 163.6,260.1 163.6,208.3 161.2,208.3 161.2,162.5 158.9,162.5 158.9,159.7 148.3,159.7 
	148.3,180.9 145.4,180.9 145.4,183.3 135.6,183.3 135.6,181.6 126.6,181.6 126.6,183 120,183 120,199.1 118.4,199.1 118.4,209.6 
	113.1,209.6 113.1,200.5 110.6,200.5 110.6,198.5 97.3,198.5 97.3,200.2 95.4,200.2 95.4,172.2 93.3,172.2 93.3,169.8 81.5,169.8 
	81.5,163.6 75.4,163.6 75.4,123.5 71.6,118.4 37,118.4 37,174.6 39.2,174.6 39.2,179.7 37.3,179.7 37.3,223.9 39,223.9 39,229 
	37.5,229 37.5,229.7 36.8,229.7 36.8,232.4 37.5,232.4 37.5,232.8 36.8,232.8 36.8,235.5 37.5,235.5 37.5,235.9 36.8,235.9 
	36.8,238.6 37.5,238.6 37.5,238.9 36.7,238.9 36.7,241.6 37.5,241.6 37.5,242 36.7,242 36.7,242.2 0.4,242.4 -0.1,320.6 
	689.5,320.6 689.5,244.1 "/>
</svg>
