<?xml version="1.0" encoding="utf-8"?>
<!-- Generator: Adobe Illustrator 21.0.0, SVG Export Plug-In . SVG Version: 6.00 Build 0)  -->
<svg version="1.1" id="Layer_1" xmlns="http://www.w3.org/2000/svg" xmlns:xlink="http://www.w3.org/1999/xlink" x="0px" y="0px"
	 viewBox="0 0 689 288" style="enable-background:new 0 0 689 288;" xml:space="preserve">
<style type="text/css">
	.st0{fill:#231F20;}
</style>
<path class="st0" d="M690.7,190.7v-3.1h-1.8c0,0-3.2-7.4-7.1-9.7c-3.9-2.3-6.7-3.2-6.7-3.2l0.6-1v-0.8H675V159h1.2v-0.8
	c0,0-2.3-1.2-2.3-1.6c0-0.3,1.1-2.2,0.6-4.7c-0.5-2.5-2.5-6.5-4.6-8.3v-1.1l0.3-0.3V142c0,0-1.5-0.4-2.2-1.3c-0.7-0.9-2-3.6-2-3.6
	s3-1,3.2-3.1c0.2-2.1-3.1-4-4.8-5c0,0-1.3-1-1.3-3.3c-0.1-2.3-0.2-11-0.2-11h-0.5v11c0,0-0.3,2.8-1.3,3.3c-0.9,0.6-5.8,3.6-4.5,5.7
	c1.3,2.1,3,2.5,3,2.5l-1.7,3.3l-3,1.4v0.6h0.7v1.2c0,0-4.7,4.2-4.6,7.9c0.1,3.7,0.7,4.8,0.7,4.8l-2.5,1.9v0.6h1.7v15.4H649v-20.2h1
	v-0.7l-1.9-1.9c0,0,0.7-3.9-1.2-5.9c-1.9-2-3.6-4.6-3.6-4.6V140h-0.9l-3.6-3.7c0,0,3-1.9,3.1-3.7c0.1-1.7-4.3-5.6-5.3-6.7v-13.9
	h-0.6v13.6c0,0-6.6,4.8-6.1,6.7c0.4,1.8,2.8,3.9,2.8,3.9l-4,3.6h-0.8v1.4l-0.9,1.1l-3.4-2.7V137c0,0,2.6-0.3,2.5-2
	c-0.1-1.7-4.9-6.3-4.9-6.3v-4.7h-0.8v-10.4h-0.4v10.4h-0.6v4.6l-1.3,1.3v-3.1c0,0,1.7-6,0.1-8.1c-1.7-2.1-7.8-6.6-8.6-7.6
	c-0.8-0.9-2.3-2.1-2.2-6.5l1.1-1.3l-1.8-0.3v-8.8l2.6-1l0.2-0.8l-4.1-3.9c0,0,2.2-1.8,1.9-4.7c-0.3-2.8-3.7-5.2-4.5-6.5
	c-0.8-1.3-0.8-9.9-0.8-9.9s0.7-0.4,0.7-1.1c0-0.7-0.7-1.4-1-1.5V50.9h-0.4h-0.4v13.9c-0.3,0.1-1,0.8-1,1.5c0,0.7,0.7,1.1,0.7,1.1
	s0.1,8.6-0.8,9.9c-0.8,1.3-4.2,3.7-4.5,6.5c-0.3,2.8,1.9,4.7,1.9,4.7l-4.1,3.9l0.2,0.8l2.6,1v8.8l-1.8,0.3l1.1,1.3
	c0.2,4.4-1.3,5.5-2.2,6.5c-0.8,0.9-7,5.5-8.6,7.6c-1.7,2.1,0.1,8.1,0.1,8.1v3.1l-1.3-1.3v-4.6h-0.6v-10.4h-0.4v10.4H581v4.7
	c0,0-4.8,4.6-4.9,6.3c-0.1,1.7,2.5,2,2.5,2v2.7l-3.4,2.7l-0.9-1.1v-1.4h-0.8l-4-3.6c0,0,2.4-2.1,2.8-3.9s-6.1-6.7-6.1-6.7v-13.6
	h-0.6V126c-1.1,1.1-5.4,5-5.3,6.7c0.1,1.7,3.1,3.7,3.1,3.7l-3.6,3.7h-0.9v1.2c0,0-1.7,2.6-3.6,4.6c-1.9,2-1.2,5.9-1.2,5.9l-1.9,1.9
	v0.7h1v20.2h-1.9V159h1.7v-0.6l-2.5-1.9c0,0,0.6-1.1,0.7-4.8c0.1-3.7-4.6-7.9-4.6-7.9v-1.2h0.7V142l-3-1.4l-1.7-3.3
	c0,0,1.6-0.3,3-2.5c1.3-2.1-3.5-5.1-4.5-5.7c-0.9-0.6-1.3-3.3-1.3-3.3v-11h-0.5c0,0-0.2,8.7-0.2,11c-0.1,2.3-1.3,3.3-1.3,3.3
	c-1.7,1-5,3-4.8,5c0.2,2.1,3.2,3.1,3.2,3.1s-1.3,2.7-2,3.6c-0.7,0.9-2.2,1.3-2.2,1.3v0.3l0.3,0.3v1.1c-2.1,1.8-4.1,5.8-4.6,8.3
	c-0.5,2.5,0.6,4.3,0.6,4.7c0,0.3-2.3,1.6-2.3,1.6v0.8h1.2v13.8h-0.6v0.8l0.6,1c0,0-2.8,0.9-6.7,3.2c-3.9,2.3-7.1,9.7-7.1,9.7h-1.8
	v3.1l2.1,2.1v19.9l-14.4-5V199l0.1-0.1v-1.3h-0.3v-6h0.3v-1.2h-0.4v-13.7l0.2-0.2v-0.9h-0.3v-29.8l0.3-0.3v-1.1h-0.3v-1.5v-3.8
	l1.8-2.2v-0.6l-7.6-3.1v-5.5h0.3V127h-0.4v-15.5h0.3v-1.2v-3l2.5-2.8v-1.3c0,0-6.1-0.3-7.2-0.7c-1.1-0.3-3.5-1.3-3.3-2
	c0.1-0.7,0.8-1.8,0.8-1.8s1.8-3,1.1-10.2c-0.7-7.2-6.3-13.1-12.9-14.9v-1.1h0.4V71h-1.4v-8l2.5-2v-0.6l-3-2.7v-1.2h0.4
	c0,0,1.5-1.8,0.7-4c-0.8-2.3-4.2-6.1-4.2-6.1v-0.5h0.5v-0.7c0,0-2.9-2.5-3-3.1c-0.1-0.6,0-2.8,0-2.8h0.6v-1.7c0,0,1-0.4,1.4-1.6
	c0.4-1.2,0.2-3-1.2-4.3c-1.4-1.3-3.6-4.4-3.7-5.2h-0.5v-4.9c0.5-0.2,0.9-0.7,0.9-1.3s-0.4-1.1-0.9-1.3V4.7h-0.5H463V19
	c-0.5,0.2-0.8,0.7-0.8,1.2c0,0.6,0.4,1,0.8,1.2v4.9h-0.5c0,0.8-2.3,3.9-3.7,5.2c-1.4,1.3-1.5,3.1-1.2,4.3c0.4,1.2,1.4,1.6,1.4,1.6
	v1.7h0.6c0,0,0.1,2.2,0,2.8c-0.1,0.6-3,3.1-3,3.1v0.7h0.5v0.5c0,0-3.3,3.8-4.2,6.1c-0.8,2.3,0.7,4,0.7,4h0.4v1.2l-3,2.7v0.6l2.5,2v8
	h-1.4v1.6h0.4v1.1c-6.5,1.8-12.2,7.7-12.9,14.9c-0.7,7.2,1.1,10.2,1.1,10.2s0.7,1.1,0.8,1.8c0.1,0.7-2.2,1.7-3.3,2
	c-1.1,0.3-7.2,0.7-7.2,0.7v1.3l2.5,2.8v3v1.2h0.3V127h-0.4v0.8h0.3v5.5l-7.6,3.1v0.6l1.8,2.2v3.8v1.5h-0.3v1.1l0.3,0.3v29.8h-0.3
	v0.9l0.2,0.2v7.9h-15.7v-21.4h-5.6v-2.9h-5.1v6H397v16h-3.6v-19.2h-3.6v-10.9h-3.1v-5.6h-3.1v-4.9h-1.3v4.7h-1.8v3.8h-2.5v1.6h-1.8
	v2.7h-4.9v13.8h-1.8v14h-8.5v2.7h-14.7v-0.9h-3.3v2h-8.2v4.2h-19.4v-10.7h-15.8v1.6H295v2.7h-6.2v4.9h-3.8v8.9h-2.7v11.6l-13.6-6.9
	V92.2l-2.2-1.1l-0.2-2.7l-12-4.5v-4.2L241.9,75L219,82.8V87l-15.6,6.2v3.3l-2.7,1.3v59.3h-2.9v4.8h-9l-1.4,1.4h-8.7v20.3l-14,6.9v-6
	h-14.5v-4.9h-7.6v-5.3h-7.4h-10.7v-6.7h-4.9v4.7h-3.1v22.9h-3.3v-10.5h-7l-0.8-53.4l0.6-0.6v-1.6l0.5-0.5v-1.5l0.3-0.3v-2.1h-0.6
	v-1.1h0.9v-2.6l1.8-1.7l0.5,1.4l1,0.1l2.2-1.9l-0.2-1.1l0.5-0.5v-0.9l0.4-0.4v-1.7l-6.6-0.7l-1.8-1.1l-2.5-2.6v-0.5h0.7V108h0.9
	v-1.3l-0.5-0.5l-0.3-0.8l-0.5-0.7l1.3-3.3l-0.1-11.6l0-1.3l-0.3-0.6l3.1-4.1l0.4-1.6l0.1-7l1.3-1.4l-0.6-0.9l1.1-1.3v-0.9l-0.5-0.1
	l-0.3-2l-1.5,0.6l-2.6,4.7l-1.2-0.4l-2.1,2l-1.5,0.2l-0.5,1.3l-2.1-1.2L95.4,77l-3-2.9h-0.6l-1,1.5l0.1,1.5L90.3,77l-0.9,0.9
	l3.1,2.1l-0.7,1.7l2.1,1.6l-0.1,2.4l0.9,1.5l0.1,0.9c0,0,0.7,1.2,1.3,1.3c0.6,0.1,1.5-0.7,1.5-0.7l0.9,0.1c0,0-2,9.4-2.1,10.8
	c-0.1,1.4,0.2,3.9,0.2,3.9l0.9,1l-0.6,0.9l-0.3,0.8l-0.5,0.5v1.3H97v1.7h0.7v0.5l-2.5,2.6l-1.8,1.1l-6.6,0.7v1.7l0.4,0.4v0.9
	l0.5,0.5l-0.2,1.1l2.2,1.9l1-0.1l0.5-1.4l1.8,1.7v2.6h0.9v1.1h-0.6v2.1l0.3,0.3v1.5l0.5,0.5v1.6l0.6,0.6l-0.8,55.2h-5.6v10.9h-7.6
	v-16h-2.5v-1.8h-3.1v1.3h-2v-2.2h-2.7v2.2h-3.1v3.6H50.1V170h-7.8v-4.7h-8.5v4.7h-2.5v-5.3h-8.2v5.6H14v60.2h1.3v5.8H6L6.1,250H0.5
	v37.6h688.9V250h-0.7v-57.2L690.7,190.7z"/>
</svg>
