<?xml version="1.0" encoding="utf-8"?>
<!-- Generator: Adobe Illustrator 21.0.0, SVG Export Plug-In . SVG Version: 6.00 Build 0)  -->
<svg version="1.1" id="Layer_1" xmlns="http://www.w3.org/2000/svg" xmlns:xlink="http://www.w3.org/1999/xlink" x="0px" y="0px"
	 viewBox="0 0 690 222" style="enable-background:new 0 0 690 222;" xml:space="preserve">
<style type="text/css">
	.st0{fill:#231F20;}
</style>
<path class="st0" d="M687.1,150.7v-0.6l2.4-1v-0.8l1.4-1.4l0.1-0.3l-1.5-0.2l0.8-0.6v-0.3h-4.8v-2.9l0.5-0.5l-1.1-1.1v-0.5l-1.7-0.7
	l-0.1-0.6l-1.2,0l0-1l1.7-0.2l1-1.7l-0.2-3.7l-0.2,0.1l0.1,3.3l-0.3,0.2l-0.1,0.4l-0.8,0.7l-1.8-0.8l0.5-0.8l-0.1-1.5l-0.7-1
	l-0.5,0.1l-0.1,0.2l-0.9,0.6l-0.1,1.5l0.3,0.3l-0.1,0.3l-0.9-0.1l-1.4,1.1l-0.8,2.5l0,1.3l-0.4-0.1l-1.2-0.9l0-0.3h0.7v-0.3
	l-0.4-0.3l-0.1-1.6l-0.9-0.8l-1.7,0l-0.8-0.4l-0.3,0.2l0.4,0.7l0.8,0.7l-0.6,1.1l0.2,0.7l-1,0.8l-3.8-2l0.6,1l0.3-0.1l0.3,2.6h-7.6
	l-0.6-0.5l0.7-1.1l-0.8-0.9l0.2-1l0.5-0.9l-0.2-0.8l-0.8,0.1l-0.3,0.5l-1.8-0.2l0-0.5l0.5-0.5l0.3-1.1l-1.1-1l-0.9,0.1l-0.8,0.9
	l0.4,1.3l-0.6,0.5l-0.5,3l-2,1.8l0.2-4.5l-4.1-0.2l1.5,1.5l-0.5,1.2l0.3,1l-0.1,0.7l-5.1-2.7l0.5,1l0.4-0.1l0.8,2.4h-18.5v-1.6
	l-0.6-0.1c0,0,0.5-0.8,0.5-1.4c0-0.6-2.2-1.9-2.2-1.9v-0.6l-1.4-0.2c0,0-1.6-0.9-1.6-3.2c0-2.3-0.1-3.9-0.1-3.9l0.5-0.4v-0.4l0.3,0
	l2-4h-1.9l1-2.6c0,0-5.3-4.6-6.7-5.3c-1.5-0.6-8.7-4.1-8.7-4.1l0.4-1.1l1.1,0.4l0.9-0.7l-3.1-4.8l-1.2-0.4l-1.4,1.6l-1.1,0.6l0-2.1
	l-0.6,0l-0.6,1.2l-0.6,0.3l0.3-0.8l-1.4-1.2l-1.3,0.1l-0.9,1.4l-1-1.5l0-0.6l-0.6-0.6l0.3-0.8L598,103l-0.6,0.6L597,103l0-1.8
	l-0.3-1.2l-0.3,1.2l0,1.8l-0.3,0.6l-0.6-0.6l-0.8,0.4l0.3,0.8l-0.6,0.6l0,0.6l-1,1.5l-0.9-1.4l-1.3-0.1l-1.4,1.2l0.3,0.8l-0.6-0.3
	l-0.6-1.2l-0.6,0l0,2.1l-1.1-0.6l-1.4-1.6l-1.3,0.4l-3.1,4.8l0.9,0.7l1.1-0.4l0.4,1.1c0,0-7.3,3.4-8.7,4.1c-1.5,0.6-6.7,5.3-6.7,5.3
	l1,2.6h-1.9l2,4l0.3,0v0.4l0.5,0.4c0,0-0.1,1.5-0.1,3.9c0,2.3-1.6,3.2-1.6,3.2l-1.4,0.2v0.6c0,0-2.2,1.3-2.2,1.9
	c0,0.6,0.5,1.4,0.5,1.4l-0.6,0.1v1.6h-11.1v-0.8h2.5V140h-2.5v-1.4h2.4v-1.2h1v-12h-0.8v-12.2h-2.5V92.8h-1v-3.9h-1.3v-3.6h-0.7
	l-0.4-3.2h-0.3l-0.4,3.3H549v3.4h-1.9v-1.3h-0.7v1.2h-0.2v0.9h0.3v2.7h-12.9v-5.9l0.9-0.9h0.9v-1.7h-1.1l-0.3-6.8h-0.6l-0.3,1.7
	h-0.3v1.8h-1v-3.7h-0.9l-0.2-2.9h-0.6l-0.2,3h-0.8v4.1l-6.7-4.5v-2.7h-1.3v-1.8h-0.3l-0.2-19.5h-0.3L520,71.9h-0.3v1.8h-0.8v2.8
	l-7.1,4V77h-0.6l-0.2-3.4h-0.4l-0.2,3.2h-0.4v3.8h-1.1v-1.9h-1.1l-0.2-1.1h-0.5l-0.2,6.1h-1.6v0.9h0.9v1.6h0.9v6h-12.1V89h-0.5
	l-0.3-1.9h-0.6l-0.3,1.3h-1.5l-0.6-6.1h-0.5l-0.6,6h-1.8v5.1h-3.1v1.3l1.9,1.4v1h0.9v7h-1v2.3h-68.5v-3.7h-0.8l-0.5-6.8h-0.5
	l-0.5,6.7h-1.1v2.7h-4.3v-2.6h1.8v-2.6h-1v-3.4h-0.9v-5.7h0.9V89h-1V82l-3.3-3.4v-4.4l1.7-1.7v-1.4l-5-6.4V60h0.7v-0.8h-1v-4.2h-0.5
	l-0.3-7.8h-0.5l-0.3,7.8h-0.6V59H400v1.3h0.9v4.3l-5.8,6.4v1.4l1.3,1.6v4.7l-3.8,3.3v5.7h-1.5v1.6l0.9,0.9v6.3h-1.5v3.4h-1.1v2.8h1
	v2.8H385v-2.9h-0.7l-0.6-6.6h-0.6l-0.6,6.8h-1.1v6.9h-1.6v1.2l1.7,2v4.9h-0.7v10.5h-1v2.5h1v12.3l-12.3-43.7L334.4,95l-7.7,15.2
	l22.1,78.8h-4.3l-2.2,2.4h-3.8l-0.3-9.8l-1.5-0.9l-0.1-1.6l-1.7-1.4h-3.8V177l-1.6-1.3l0.1-1.4l-2-1.7V170h-4.1v2.9l-5.6,5.6v2
	l-1.5,1.3v6.7h-4.2v1.9l-2.7-7.9v1l-0.8,0.6v-3.3l-4.9-4.3v-1.2h-1.9v1.7h-1.2l-0.1,1.1l-4.6,2.8h-4.4v-4.1l-0.8-0.2v-1.6l-1-0.1
	v1.8h-0.5v4.4H285v-1.6h0.3v-33.4h-3v-12.2h-2.2v2.8h-1.8l-0.1-9.8h-0.5v9.8h-1.7v-2.4h-2.5v2.4h0.6v3.2h-4.6v2.3h1v26.8h-0.8V168
	h-2.4v1.1l-4.2,7.9v-1.3l-5.3,0l-3.3,0.8v-1.7l-2.5-1.2h-9.7v1.5H238v1.1h-6.9l15.9-63.3l-9.9-15l-32.4,6.4l-16.1,68.7v-42.2H186
	v-29.4h0.9V86.7h-2.6v-7.6h-2v-5.5h1.1v-4.2h-2v-9.7H180v-8.6h-1.5v8.3h-2v-4.9h-2.4v-6c0,0-1.7,0-2.4,0c-0.7,0,0,6.7,0,6.7h-5.4v4
	h-3.5V50h-1.5v7h-1.8v2.2h-2.1v-3.1h-1.8v-4.4h-1V60l0.7,0.7v5l-0.9,0.9v5.1h-1.1v3.4h2.9v19.7h-3.1v2.3h1.3v3.1h1.1v12.3h-1.7v2.6
	h-3.7v2.1h-7v-5.1h2.2v-10.8h-1.6v-2h-2.5v-3.8h-2.8v2.9h-25.1v-4.2l2.2-2.2v-3.6h-1.5v-6.2h-1.7v-2.7h-2.2V69.4h-3v3.3h-2.9v-1.4
	h-1.1V55.7L104,55v-3.9h0.6V39.2l-0.8-0.2v-15h-3.3v2.3h-2.6l-1-13.2h-1l-1,10.3h-2.6l-0.6-11.2h-1.1l-0.6,10.5h-2.5v-23l-0.6,0.6
	v22.2l-2.7-2.7l-4.9,6.6L78.9,13h-0.8c0,0-0.6,3.5-0.6,4.3c0,0.8-1.4,0-1.4,0l-0.5-3.9h-0.9l-0.5,12.3h-1.7v3.4l-2.9,2.9v2.6h1.5
	v5.9h-1.7v3.3h0.9v19.1h-3.1v7.5c0,0-3.3,0-3.5,0c-0.2,0,0,5,0,5H62l-0.8-0.8h-4v6.4h-2.4v-2h-2.6v4.4h-1.5v2.6h-0.2v2h0.2v4.6h-1.1
	v5.7h-3.7v5.1h-9.7l-1-22.4h-0.8l-1,22.5c0,0-9.8,0-10.4,0l-0.7-3.9h-3.7l-0.7,4h0.6v3.1h-2v2.2l0.6,0.6v12.7h-2.8v4h-1.5v-3.5H9.9
	V121H0.4v10.4h1.3l-0.1,90.1h688l0-22.4h-0.8l-0.4-0.9v-36.2l0.6-0.5v-2.8l-0.3-0.8l-0.1-1l-1.4-0.5v-1.3l0.3-0.3v-0.6h-1v-3.3
	L687.1,150.7z M431.6,114.1h-10.7v-5h10.7V114.1z M449.2,114.1h-10.7v-5h10.7V114.1z M466.7,114.1H456v-5h10.7V114.1z M484.3,114.1
	h-10.7v-5h10.7V114.1z M560,175.3h-1v2.5l0.4,0.4v27.6h-20.3l-0.1-27.3l0.6-0.7l0-2.4l-0.9,0c0-0.3-0.8-4.7,2.3-7.8
	c3.7-3.6,6.7-3.3,6.7-3.3v0.7h2.2v-0.7c0,0,3-0.3,6.7,2.3C560.4,169.3,560,175.3,560,175.3z M607.7,205.9h-22.1v-28.8h0.5v-3h-0.3
	c0-2.8,1.7-5.6,3.6-7.6c1.9-2,6.4-2.7,6.4-2.7l0.1,0.6h0.8h0.8l0.1-0.6c0,0,4.5,0.7,6.4,2.7c1.9,2,3.7,4.8,3.6,7.6h-0.3v3h0.5V205.9
	z M654.6,175.5l-0.9,0l0,2.4l0.6,0.7l-0.1,27.3H634v-27.6l0.4-0.4v-2.5h-1c0,0-0.3-6,3.4-8.6c3.6-2.5,6.7-2.3,6.7-2.3v0.7h2.2v-0.7
	c0,0,3.1-0.3,6.7,3.3C655.4,170.8,654.6,175.2,654.6,175.5z M679.9,205.9h-12.3v-25.5h12.3V205.9z"/>
</svg>
