<?xml version="1.0" encoding="utf-8"?>
<!-- Generator: Adobe Illustrator 21.0.0, SVG Export Plug-In . SVG Version: 6.00 Build 0)  -->
<svg version="1.1" id="Layer_1" xmlns="http://www.w3.org/2000/svg" xmlns:xlink="http://www.w3.org/1999/xlink" x="0px" y="0px"
	 viewBox="0 0 200 103" style="enable-background:new 0 0 200 103;" xml:space="preserve">
<style type="text/css">
	.st0{fill:#231F20;}
</style>
<path class="st0" d="M200,93.2h-0.9V92h-0.4v0.8h-0.5v-1.1h-0.9v-1.2h-1.8v-3.4l-1.1-1.7h-4.5v-5.7h-0.5v-0.6h-4.2v0.4h-0.4v1.3
	h-1.6v10.2h-0.9v-3.4h-0.9v-4h-2v-5.2h-1.2V77h-1.3v-4.1h-0.4v-2.3h-0.5v-1.8h-0.3l-0.4-4.1h-0.2l-0.4,4.3h-0.4V70
	c-2.6,1.4-3.6,2.8-3.6,2.8v11h-0.9v3.8h-0.6v-4.4H169v-3.5h-1.5v3.5h-1.8V86h-2.3v7.2h-0.6v-0.9h-0.5v-15h-3v-4.9l-0.7-1v-1.2
	l-1-0.9v-4.1h-0.4v4.1l-0.9,0.8v-2.4h-0.4v-1.5h-0.5v-5.1h-6.1v5.1h-0.5v1.5h-0.4v15.7H147V83h-0.6v0.7h-2.4v5.1H143v-7.9h-1.1v-1
	H141v-8.9h0.9v-1.4h-2.1v-2h-1.2v-0.8h-3.8v0.7h-5v14.8H129v10.9h-1.4V79.9h-2.4V58.6h-0.2v-0.2h-0.2v-0.3h-0.3v-1.6h-1.2v1.6h-2.5
	v0.3h-0.7v0.2h-0.7l-4.3,4.1v8.2l-9.3-2.3v11.3h-0.5v-1H105v-2h-1.7v2h-1v1h-0.8v-7.2h0.5v-0.6h-1V61.7h-0.2v-0.3h-2.4v0.3h-1.7
	v10.4h-0.8v-5.4h-0.2v-0.2h-0.9v-0.7H90v0.7h-0.8v0.2H89v5.4h-1.1v0.6h0.5V84h-0.7v-5.3h-3.7V65h-0.7v-7.1h-1.6v-5.3h-2.1l-1.2-2.7
	h0l-0.6-9.2h0v-0.4h-0.8l-0.5-12.9h-0.2l-0.5,12.9h-0.8v0.4H75l-0.6,9.2h0l-1.2,2.7h-1.9v5.3h-1.7V65h-0.7v20.1h-1.3v-1.3h-0.2v-4.3
	h-1.5v4.3h-0.6v-1.3h-0.5v-0.6h-3.1v0.6h-0.6c-0.1-2.5-0.3-4.7-0.2-5.2c0-1.3,1.7-1.8,1.7-1.8v-3.1h-3v-1.8l-0.7-0.8l-0.1-1l0.6-0.4
	l0-1l-0.6-0.1l-0.1-1.6l-1.2,0.1c-1.1-0.4-1.3-3.5-1.3-3.5l-0.1-5.8l0.2-1.1l-0.2-3.8l0.4-0.7l0-0.3l-0.5-0.7l-0.4-4.2L55,41.6
	l0.8-0.3l1.9-2l0.9-0.2c0,0,1.8-1.9,1.8-2.3c0-0.3-0.4-0.7-0.4-0.7l0.9-1.7l-4.1-2.3l-2.4,2.7c0-0.3-0.1-1.3-0.3-1.7
	c-0.2-0.3-0.5-1.3-0.6-2.2c-0.1-0.9-0.5-1.6-0.8-2c-0.3-0.3-1.3-0.9-1.3-1.2c0-0.3-0.3-1.1-0.5-1.3c-0.2-0.2-0.2-0.5-0.1-0.7
	c0.1-0.2,0.1-0.9,0.1-1.1c0-0.2-0.1-0.3-0.1-0.3c-0.1,0-0.1-0.5-0.1-0.7c0-0.2,0.2-0.4,0.3-0.6c0.1-0.2-0.1-0.4-0.2-0.5
	c0-0.1,0-0.2,0-0.2c0.2-0.2,0.4-0.7,0.4-0.7l3.2,0l0-0.1l-3.2-0.3c0.1-0.3-0.1-0.6-0.1-0.6l3.3-1.3l0-0.1L50.8,20
	c-0.1-0.3-0.5-0.6-0.5-0.6l2.5-2.6l-0.1-0.1l-2.9,2.5c-0.5-0.3-1.2-0.3-1.2-0.3l-0.2-3.6l-0.2,0L48,18.8c-0.6,0-1.1,0.1-1.1,0.1
	l-2.8-2.2l-0.1,0.1l2.4,2.4c-0.3,0.2-0.7,0.7-0.7,0.7l-2.6-0.7c0-0.5-0.1-1.1-0.1-1.4c0-0.7-0.7-3.8-0.8-4.3c-0.1-0.4-0.2-0.7,0-0.9
	c0.2-0.2,0.4-0.5,0.4-0.6c0-0.1-0.2-0.4-0.3-0.5c-0.1-0.1,0-0.3,0-0.3c0.1-0.1,0.2-0.5,0.2-1.3c0-0.8-0.9-2.1-1-2.2
	c-0.1-0.1-0.1-0.2,0-0.3c0.1-0.1,0.2-0.2,0.2-0.2l0.1-0.7c0.3-0.1,1-0.6,1-1c0-0.4-0.5-0.7-0.5-0.7l0-0.7l-0.4,0l0-0.4
	c0.3-0.3,0.2-1.2,0.2-1.6c0-0.4-0.7-1.6-0.7-1.2c0.1,0.4-0.5,1-0.4,0.9c0-0.1,0.1-0.5,0-1c-0.1-0.5-0.5-1.2-0.7-1
	c-0.2,0.2-1.1,1.7-1.4,2.1c-0.3,0.5-0.1,1.2-0.1,1.4c0.1,0.2,0.2,0.3,0.2,0.3v0.4l-0.4,0.1c0,0,0.1,0.6-0.1,0.7
	C38.5,5,38,5.3,38.1,5.8c0.1,0.5,1.1,0.8,1.1,0.8s-0.1,0.7,0.1,0.8c0.1,0.1,0.1,0.1,0,0.3c-0.1,0.1-0.1,0.7-0.2,0.9
	c0,0.1,0.1,1,0.2,1.3c0.1,0.4,0.5,1.1,0.6,1.3c0.1,0.1,0.2,0.3,0,0.4c-0.2,0.1-0.3,0.4-0.2,0.8c0.1,0.3,0.4,0.6,0.4,0.6
	s0.2,5.5,0.2,6.2c0,0.8,0.6,2.1,0.6,2.1s-0.1,0.4-0.7,1.3c-0.6,0.9-0.9,2.3-0.9,3.4c0,1.2,0.8,1.4,1,1.4c0.2,0,0.4-0.3,0.1,0.5
	c-0.2,0.8,0.6,1.4,0.9,1.6c0.2,0.2-0.1,1.3-0.4,1.9c-0.3,0.6,0.9,2,1.2,3.2c0.3,1.2-0.9,3.3-1.2,4.1c-0.3,0.8,0.3,1.5,0.8,1.6
	c0.5,0.1,0.5,0.8,0.5,1.3c0.1,0.5-0.3,1.2-0.7,1.9c-0.4,0.7-0.2,1.7-0.2,1.7s0.5,4,0.6,4.8c0.1,0.9,0,1.9-0.2,2.2
	c-0.2,0.2-0.2,0.7-0.1,1c0.1,0.3,0,1.7-0.1,2.2c-0.1,0.5-0.1,1.9,0,2.4c0.1,0.4-0.3,1-0.5,1.2c-0.2,0.3,0.3,1,0.3,1s0,0.6-0.2,2.3
	c-0.2,1.7-1.8,3-1.8,3L38,65.5L37.9,67l-0.5,0.1l-0.1,0.9l0.6,0.6v1.3l-0.8,0.7L37,72.2l-3,0.2l0.1,3l1.7,1.3l-0.3,6.4h-3.6L30,64.7
	h-0.6V49.2h-9.1v15.5h-0.4L18,73.8h-3.4V63.7h-0.2v-1.4h-2.6v1.4H10v10.1H9v0.4H7.9v0.6H7.3v7.6H5.6v-0.9H2.4v0.9H1.9v4.3H0.2v16.3
	l199.8,0.1L200,93.2z M68.8,88.5h-1.3V88h1.3V88.5z M68.8,85.9v1.2h-1.3v-1.2H68.8z M44.2,21.6l1.2,0l0.2,0.2l-0.1,1.3
	c-0.1,0.5-0.4,0.9-0.6,1c-0.2,0.1-0.6-0.3-0.5-1.1C44.5,22.4,44.4,21.9,44.2,21.6z M45.5,20.4c0,0.1-0.1,0.7-0.1,0.7l-1.2,0.2
	c0,0,0-0.1,0-0.1c-0.1-0.4-0.9-0.9-0.9-0.9s0-0.4-0.1-0.8C43.7,19.7,45.5,20.3,45.5,20.4z"/>
</svg>
