<?xml version="1.0" encoding="utf-8"?>
<!-- Generator: Adobe Illustrator 21.0.0, SVG Export Plug-In . SVG Version: 6.00 Build 0)  -->
<svg version="1.1" id="Layer_1" xmlns="http://www.w3.org/2000/svg" xmlns:xlink="http://www.w3.org/1999/xlink" x="0px" y="0px"
	 viewBox="0 0 678 272" style="enable-background:new 0 0 678 272;" xml:space="preserve">
<style type="text/css">
	.st0{fill:#231F20;}
</style>
<path class="st0" d="M658.6,158.7v2.9l-6.4,0.3l-7.3-7.3h-8.4v3.8h-6.3l-0.7-2.5l-7.1-8.4v-17l7-6.4v-16.5l-4.1-37.3l-1.4,0.7
	l-3.8,32.5l-4.6-1.3l-11.5-57.7v-5.2l0.6-0.6l0-2.9h-1.3l0-8.8h-1.3v8.8h-1.1l-0.1,2.9l0.8,0.7l-0.2,5h-9.9l-0.1-5.3l0.6-0.5l0-2.8
	l-1-0.1l-0.1-8.5h-1.4v8.4l-1.1,0v2.8l0.5,0.5v6.3L580.7,76l-0.6-5.7l-1,0.2l-0.6,10.7l-5.1,21.7l-3.3,0.4l-2-30.8l-1.1-0.1
	l-6.1,35.5v16.2l4.4,4.4v5.3h-7.8v4.7h-9.3v7.3h-5.5v6.8H536v2.2h-4.4l-1.7-1.7h-5.3v-2.7h-17.9v-5.3h-1.8v-2.3h-2.3v-11.4H501v11.4
	h-1.1v5.6h-3.2v-7.9h-3.7v8.3h-2.6v0.9h-2.3v-2.5h-2.1v2.5h-4.7v-14.2h0.8v-1.4l-0.7-0.1v-27.4l2.9-6.7l-2.6-32l-0.9,0.4l-3.3,23.3
	l-3.7-0.9l-0.5-13.4l2.9-2.5l-1.8-25.5L472,65.3l-0.9-1.2l-0.5-12.2h-1.4l-3-19.1l-0.4,0l-0.8-31.6h-0.5l-0.8,31.6l-0.7,0l-1.6,19.5
	h-1.1l-1.2,12.9l-1.3,0.3l-3-16.7l-1.6,25.8l2.1,2.2l-0.7,13.6l-3.8,1.3l-2.2-22.1l-0.7,0.3l-3.6,32.5l3.9,3.9v22h1.7v12.5h-3.2
	l-0.3-18.3l-2.2,15.8l-1.6-2v-20l-2,12.4l-1.2-3.6l-0.9-15.5l-1.4,9.7l-2.4-7.8v-10.7h2.1v-2.6h-2.8v-2.9h-5.5v3.3H426v2.2h2.4v11.3
	l-2.4,7l-1.7-10.1l-0.4,15.4l-2,3.4l-2-12.6v16.7l-3.2,4.6v-12.9h-0.9v16.7h-1.1v-32.6l5.1-5.4L416.7,69h-0.7l-3.3,22.6l-2.2-0.4
	V77.8l2.1-2l-1.4-28h-0.7l-2,17h-1.4v-9.9h-1.4L403,27.7l-0.5,0l-0.5-27.9h-0.7L401,27.7l-0.7,0l-2.5,27.1h-1.4l-0.4,9.7h-1.4
	l-2.2-15.9l-0.8,0.1l-1.6,27l1.4,1.8v12.6l-3.2,0.8l-2.5-22.1l-0.8-0.4l-4.3,34.8l3,3.4V131l-4.7,0.4l-2.9,6.2v2.1h-2.1v12.6h-1.2
	v-25.1h-1.3v-1.4h1.3v-4.3l-4.5-4.5l-0.2-12L365,102v-8.6h-1.2v9l-2.1,2.6v12.2l-5.1,4.6v4.2h1.7v1.4h-1.7v29.8h-2.1v1.8h1.1v4.3
	h-11.2l-6.3,17.4h-9.6V200l-12.9-10.4v-9h-4.3v6.6l-8-5.9h-25.7v-9.6h1.6v-1.3l-7.9-6.6h-17.5V156h-3.2v-1.7l-1.6-1.6h-9.2v1.8h-3.9
	v-11.7h-3.3V155h-9.7v9.3h-8v-16.7h-4.9v-4.1h1.6l-0.1-1.8l-5.8-2.9h-27.8l-7.1,3.2v1.7h1.2v4.2h-2.9v5.2h-1.6v-1.6h-1.6v3.3h-21.9
	v-4h-1.3v-1.6c0,0,1.3-2.2,1.2-3.4c-0.1-1.2-3-3.7-3-3.7v-6.8h-0.8v7c0,0-2.2,1.8-2.7,3.2c-0.5,1.3,1,3.3,1,3.3l0.6,0.6v1.5h-1.1
	v3.9H133l-7-7h-2.9v-3.1h-2.6v-2h1.8v-3.5h-2v-22.2h1.2v-2.6l-3.4-3v-1.4c0,0,2.1-1.6,2.3-3.9c0.2-2.4-7.7-8.4-7.7-8.4v-3l1.1-1.2
	v-3l-3.9-3.8V67.1h-1v20l-3.9,3.9v2.8l0.8,0.8V98c0,0-6.9,6.3-6.8,8.9c0.1,2.6,2.4,3.3,2.4,3.3v1.3l-4,3.8v2.2H99v21.8h-2.1v3.9h1.3
	v2h-2.4v2.3l-9.1-0.1l-7.8-9.1v-4.1h1v-3.4h-1.2v-19l1.3-0.9l-0.6-1.5l-3.2-3.2c0,0-0.2-2.9,0.8-3.7c1-0.8,1.6-4.4,0.2-6.6
	c-1.4-2.2-7.3-5.4-7.3-5.4v-1.6l1-1.1v-1.2l-2.6-2.6v-4.6l-1.6-1.6v-22h-1.2v22l-1.7,1.7v5l-2.2,2.2v1.3l1.2,1.2l-0.2,1.6L55.8,97
	l-6.4-4.4l0.8-2.8v-1.7l-1.3-0.5v-3.8h-1.5V73.5h-0.8v10.5h-0.8l-0.1,3.8L44,88.5L43.9,90l0.3,2.8c0,0-8.4,4.6-8.2,6.8
	c0.2,2.2,2.4,3,2.4,3l-3.6,3.4l-3,1.8v2.2H35v1.9h1.2V129h-1.9v5H22.8L4.3,147.5v2.4h1.5v6.9l-5.9,8.3v2.8h5.6l0.1,17.8H3.3V203H0.2
	v68.6h678.2l0.1-112.9H658.6z"/>
</svg>
