<?xml version="1.0" encoding="utf-8"?>
<!-- Generator: Adobe Illustrator 21.0.0, SVG Export Plug-In . SVG Version: 6.00 Build 0)  -->
<svg version="1.1" id="Layer_1" xmlns="http://www.w3.org/2000/svg" xmlns:xlink="http://www.w3.org/1999/xlink" x="0px" y="0px"
	 viewBox="0 0 681 342" style="enable-background:new 0 0 681 342;" xml:space="preserve">
<style type="text/css">
	.st0{fill:#231F20;}
</style>
<path class="st0" d="M675.7,310.9v-2.1h-3.8v-77.3h-1.1v-0.9h-0.7v-5.6h-3.8v3.6h-1.2v0.7h-2.8v1.3h-11.1v0.9H650v51.1h-0.7V299
	h-1.5v2.3h-3v7.5h-0.9v-5.7h-1.9v-32H641v32h-0.5v5.7H640v2.1h-1.8v-34h-3.3v-17.8h-1.2v-11.5h-1.9v-2.1h-1.2v-1h-4.5v1h-6.2v2.1
	h-8.1v11.5h-1.7v16.1h-4.6v1.7h-4.3v-2.2h-1.5v-3.1h-3.4v3.1h-5.7v-5.2h-1.4v-0.9h-1V259h-0.8v9.6h-6.3v0.9h-9.7v5.2h-19.2v-2.2h-6
	v2.2h-0.5V274h-1.4v-0.9h1.4V270h-1.4v-0.9h1.4V266h-1.4v-0.9h1.4V262h-1.4v-0.9h1.4V258h-1.4v-0.9h1.4V254h-1.4v-0.9h1.4V250h-1.4
	v-0.9h1.4V246h-1.4v-0.9h1.4V242h-1.4v-0.9h1.4V238h-1.4v-0.9h1.4V234h-1.4v-0.9h1.4V230h-1.4v-0.9h1.4V226h-1.4v-0.9h1.4V222h-1.4
	v-0.9h1.4V218h-1.4v-0.9h1.4V214h-1.4V213h1.4V210h-1.4V209h1.4V206h-1.4V205h1.4V202h-1.4V201h1.4V198h-1.4V197h1.4V194h-1.4V193
	h1.4v-3.1h-1.4V189h1.4v-3.1h-1.4v-1.6l-13.4-8.2h-8.2v-8.9h-9.3v8.9H512v32.6h-2.4v-18.9h-1.4v-1h-19.4v1h-3.8l-10.8,8.2v110.8
	h-3.7v-67.8l-4.3-0.4l0.3-1.1l2.8-0.7l-8.4-7.4l-7.4-0.4l-5.5,1.5l-7.7,8.2l2.7-0.1v1.1l-3.4,1.1v32.8H439v7.5h-2.4v24.4h-3.3v-1.3
	l-2.4-1.4v-1H430v-0.5h0.9v-1.5H430v-0.5h0.9v-1.5H430v-0.5h0.9v-1.5H430v-0.5h0.9v-1.5H430v-0.5h0.9v-1.5H430v-0.5h0.9v-1.5H430
	v-0.5h0.9v-1.5H430v-0.5h0.9v-1.5H430v-0.5h0.9v-1.5H430v-0.5h0.9v-1.5H430v-0.5h0.9v-1.5H430V281h0.9v-1.5H430V279h0.9v-1.5H430
	V277h0.9v-1.5H430V275h0.9v-1.5H430V273h0.9v-1.5H430V271h0.9v-1.5H430v-0.5h0.9v-1.5H430v-0.5h0.9v-1.5H430v-0.5h0.9v-1.5H430v-0.5
	h0.9v-1.5H430v-0.5h0.9v-1.5H430v-0.5h0.9v-1.5H430v-0.5h0.9v-1.5H430v-0.5h0.9v-1.5H430v-0.5h0.9v-1.5H430v-0.5h0.9v-1.5H430v-0.5
	h0.9v-1.5H430v-0.5h0.9v-1.5H430v-0.5h0.9v-1.5H430v-0.5h0.9v-1.5H430v-0.5h0.9v-1.5H430v-0.5h0.9v-1.5H430v-0.5h0.9v-1.5H430v-0.5
	h0.9v-1.5H430v-0.5h0.9v-1.5H430v-0.5h0.9v-1.5H430v-0.5h0.9v-1.5H430v-0.5h0.9v-1.5H430v-1l-1.1-0.7h-3.1l-0.3-1.6l-6.1-5.9
	l-8.5-0.5l-4.9,1.8l-1.6,2l-2.6,0.4v2l-2.1,1.8v1.3l-3.9,1.6v1.1v20.4l-0.7-0.7v-3.3h-0.8v-1.5l0.5-0.5v-2.6l-0.9-0.9l-2.2-3.6
	c0,0-2.2-6.1-2.2-10.9c0-4.8-1.7-33-1.7-33l2.7-0.8l2.2-2.2l1.4-0.2v-1.7l1.1-0.2l-0.1-3.4h-4.7c0,0-1.7-2-2.3-7.7
	c-0.6-5.7-4-80.4-4-80.4l1.5-0.4v-2.5h-0.9l0.2-10.1h1.6v-4h2.3l0.9-2.3l-0.3-6.7l-4.7-2l-1.8-65.6l-1-0.2l-1,0.2L379,66.2l-4.7,2
	l-0.3,6.7l0.9,2.3h2.3v4h1.6l0.2,10.1h-0.9v2.5l1.5,0.4c0,0-3.4,74.7-4,80.4c-0.6,5.7-2.3,7.7-2.3,7.7h-4.7l-0.1,3.4l1.1,0.2v1.7
	l1.4,0.2l2.2,2.2l2.7,0.8c0,0-1.7,28.2-1.7,33c0,4.8-2.2,10.9-2.2,10.9l-2.2,3.6l-0.9,0.9v2.6l0.5,0.5v1.5h-0.8v4.5h0.6
	c-1.2,17.9-22.4,49.8-22.4,49.8h-3.1v2.6c-0.9-0.1-1.5-0.1-1.5-0.1v-44.3h0v-2h0v-1.2h0.1v-2h-0.1v-1.2h0.1v-2h-0.1v-1.2h0.1v-2
	h-0.1v-1.2h0.2v-2h-0.2v-1.2h0.2v-2h-0.2v-1.2h0.2v-29.4h-0.2v-1.2h0.3v-2h-0.3v-1.2h0.3v-2h-0.3v-1.2h0.3v-2h-0.3v-1.2h0.4v-2h-0.4
	v-1.2h0.4v-2h-0.4v-1.2h0.4v-2h-0.4v-1.2h0.5v-2h-0.5v-1.2h0.5v-2h-0.5V181h0.5v-2h-0.5v-1.2h0.6v-2h-0.6v-1.2h0.6v-2h-0.6v-1.2h0.6
	v-2h-0.6v-1.2h0.7v-2h-0.7V165h0.7v-2h-0.7v-1.2h0.7v-2h-0.7v-1.2h0.8v-2h-0.8v-1.2h0.8v-2h-0.8v-1.1l-1.2-0.7l-3.3-0.1l-9.5-9.1
	l-13.6-0.4l-7.1,4.1l-2.2,3l-3.2,2l-0.1,1.1l-7.5,5.4l0,1.1H294v1.3h0.5l0,0.3H294v1.3h0.5l0,0.3H294v1.3h0.5l0,0.3H294v1.3h0.5
	l0,0.3H294v1.3h0.5l0,0.3H294v1.3h0.5l0,0.3H294v1.3h0.5l0,0.3H294v1.3h0.5l0,0.3H294v1.3h0.5l0,0.3H294v1.3h0.5l0,0.3H294v1.3h0.4
	l0,0.3H294v1.3h0.4l0,0.3H294v1.3h0.4l0,0.3H294v1.3h0.4l0,0.3H294v1.3h0.4l0,0.3H294v1.3h0.4l0,0.3H294v1.3h0.4l0,0.3H294v1.3h0.4
	l0,0.3H294v1.3h0.4l0,0.3H294v1.3h0.4l0,0.3H294v1.3h0.4l0,0.3H294v1.3h0.4l0,0.3H294v1.3h0.4l0,0.3H294v1.3h0.3l0,0.3H294v1.3h0.3
	l0,0.3H294v1.3h0.3l0,0.3H294v1.3h0.3l0,0.3H294v1.3h0.3l0,0.3H294v1.3h0.3l0,0.3H294v1.3h0.3l0,0.3H294v1.3h0.3l0,0.3H294v28.8h0.3
	l0,0.3H294v1.3h0.3l0,0.3H294v1.3h0.3l0,0.3H294v1.3h0.3l0,0.3H294v1.3h0.3l0,0.3H294v1.3h0.2l0,0.3H294v1.3h0.2l0,0.3H294v1.3h0.2
	l0,0.3H294v1.3h0.2l0,0.3H294v1.3h0.2l0,0.3H294v1.3h0.2l0,0.3H294v1.3h0.2l0,0.3H294v1.3h0.2l0,0.3H294v1.3h0.2l0,0.3H294v1.3h0.2
	l0,0.3H294v1.3h0.2l0,0.3H294v1.3h0.2l0,0.3H294v1.3h0.2v0.3H294v1.3h0.1l0,0.3H294v1.3h0.1l0,0.3H294v0.8l-7-3.4v-49.3h-7.4v-41.4
	h-0.3v-0.6h0.3v-1.2h-0.3V171h0.4v-1.2h-0.4v-0.6h0.4v-1.2h-0.4v-0.6h0.5v-1.2h-0.5v-0.6h0.5v-1.2h-0.5v-0.6h0.6v-1.2h-0.6v-0.6h0.6
	v-1.2h-0.6v-0.6h0.7v-1.2h-0.7v-0.6h0.7v-1.2h-0.7v-0.5h-3.4l0.1-3.9l-1.4-2.3h-26.1l-5.7,4.4v2.2l-3.2,1.8v14.3h-6.3l-1.9,1.1v63.5
	h-6.5l-1.8,1.3l0,3.5h-0.7v2.5l-1.6,0.9v6.4H218l-0.4-122.5c5-1.6,8.6-6.3,8.6-11.8c0-6.2-4.6-11.3-10.5-12.2l-0.3-18.4
	c1.3-0.6,2.1-1.9,2.1-3.4c0-1.5-0.9-2.9-2.3-3.5l-0.8-53.2h-1.3L212.2,80c-1.4,0.6-2.3,1.9-2.3,3.5c0,1.5,0.9,2.8,2.2,3.4l-0.3,18.4
	c-5.9,0.9-10.4,6-10.4,12.2c0,5.5,3.5,10.1,8.4,11.7l-0.4,112.5h-3.6v5.4h-1.6l-1,0.4v2.9h0.4v1.1h-3.2v-1.2h-1.7v-0.9h1.7v-5.1
	h-1.7v-0.9h1.7v-5.1h-1.7v-0.9h1.7v-66.8h-1.7v-0.9h1.7v-5.1h-1.7v-0.9h1.7v-5.1h-1.7v-0.9h1.7v-5.1h-1.7v-0.9h1.7v-5.1h-1.7v-1.8
	H193v-10.8h-10.2v-5.5h-14.3v3.4h-1.7v-2.3h-3.5v3.5h-1.5v-2.5H159v2.3h-4.2v-30.2h-2.5v-5.9h-6.2l-0.6,3.4l-24.4,0.6l0.2,2.3
	l-3-0.2l-0.2,43.2l-4.2,0.8v55.6h-1.1v7.1h-2.7v6.2h-5.3v22.8l-6.2,0.1V198h-1.4v-2.7h-0.9v-5h-4.1v5h-16v2.7H72v31.4l-14.8-23.6
	v-1.7l-4.3,0.6l-0.2,2.1l-24,4.3l-0.4,11.7l-2.3,0.4v-4.9H9.3v7.9l-2.9,0.5L3.6,232v1.6H1.7v4.9h1.9v1.8H1.7v4.9h1.9v1.8H1.7v4.9
	h1.9v1.8H1.7v4.9h1.9v1.8H1.7v4.9h1.9v1.8H1.7v4.9h1.9v1.8H1.7v4.9h1.9v1.8H1.7v4.9h1.9v1.8H1.7v4.9h1.9v1.8H1.7v4.9h1.9v1.8H1.7
	v1.5H0.2v42.7h680.6v-33.6H675.7z M374.7,304.4c-2.2-0.8-7.3-1.5-12.9-2.1v-5.1h-1.1c4.4-9.9,9.8-14.4,13.9-16.4V304.4z M512,219.3
	v57.3h-2.4v-57.3H512z M509.6,282.8h2.4v26.1h-2.4V282.8z M656.1,279.8h-1.3v-1.5h1.3V279.8z M656.1,286.1v1.5h-1.3v-1.5H656.1z
	 M656.1,272.1h-1.3v-1.5h1.3V272.1z M654.9,237.8h1.3v3.1h-1.3V237.8z M656.1,247.2v1.5h-1.3v-1.5H656.1z M656.1,255v1.5h-1.3V255
	H656.1z M656.1,262.8v1.5h-1.3v-1.5H656.1z"/>
</svg>
