<?xml version="1.0" encoding="utf-8"?>
<!-- Generator: Adobe Illustrator 21.0.0, SVG Export Plug-In . SVG Version: 6.00 Build 0)  -->
<svg version="1.1" id="Layer_1" xmlns="http://www.w3.org/2000/svg" xmlns:xlink="http://www.w3.org/1999/xlink" x="0px" y="0px"
	 viewBox="0 0 688 308" style="enable-background:new 0 0 688 308;" xml:space="preserve">
<style type="text/css">
	.st0{fill:#231F20;}
</style>
<path class="st0" d="M688.1,253.2v-2l-1-1v-12l0.2-0.2v-0.5l0.6-0.3V237h-1.1l-0.6-0.6v-7.1h0.2v-0.7l0.6-0.3v-0.2l-2.8-0.3l0-0.3
	c0,0,0.7-0.4,0.7-1.4c0-1-0.8-1.7-1.8-1.9c-1-0.1-1.9-0.5-1.9-0.8c-0.1-0.4,0.5-0.2,0.5-0.2v-0.4h-0.4v-2.2h-0.3v-0.6H679v-0.7
	c0,0,0.9-0.1,1-1.4c0.1-1.3-1-1.9-1.2-2.1c-0.2-0.1,0-0.7,0-0.7h0.2V214h-1.7v1.2h0.2c0,0,0.1,0.5-0.1,0.7c-0.2,0.2-1.1,0.8-1,2
	c0.1,1.2,1.3,1.5,1.3,1.5v0.9H675c0,0-1-0.2-1-1.3c0-1.1,0-1.1,0-1.1s0.9-0.1,0.9-0.6c0-0.5,0.1-1,0.1-1l1.1-1v-0.2h-0.9v-0.5l1-0.6
	v-0.3h-1c0,0-1.6-0.4-2.4-1c-0.8-0.6-1.7-1.3-1.7-1.3l0-0.3l2.2-2.3c0,0,0.2-0.6-0.3-1c-0.5-0.3-1.9-0.3-1.9-0.3h-3.6
	c0,0-1.1-0.4-1.1-1c0-0.6,0-0.8,0-0.8l0.4-0.2v-0.4h-1.5v-2.3l0.4-0.4v-0.9l-0.8-0.5l0-0.7h-0.3l0-0.7l-0.4-1.1l-0.4,1v0.8h-0.3v0.7
	l-0.8,0.7v0.6l0.4,0.5v2.3h-1.6l0,0.4l0.3,0.2v1c0,0,0,0.8-0.4,0.8c-0.4,0-1-0.1-1-0.1l-4.6,5.5l0,1.1l-0.8,0.3l0,1.9l-0.8,0.9v1.5
	l0.5,0.4v0.4h-0.5v0.5l0.7,0.6l0,0.2h-1.6v-0.4l-0.5-0.3l0-0.6l0.3-0.1v-1h-1.8v1.2h0.3v1.1h-0.4v-0.8l-0.3-0.4h-1.1l-0.5,0.8v0.8
	l0.4,0.4v4.7l0.6,0.5l0,1.7l-1,0.1l-1.4,1.4l-0.1,1.8l-0.5-0.1l-0.3-5.6l0.3-0.2l0-0.5l-0.4-0.2v-6.6l0.2-0.1v-0.6l-0.5-0.1v-6.6
	l0.1-0.1l-0.1-0.6l-0.6-0.3v-6.3l0.2-0.4l0-0.5l-0.5-0.1v-6.3l0.2-0.2l-0.1-0.9l-0.7-0.3v-4.2l0.6-0.5l0.2-0.7l-0.5-0.6l0.1-0.7
	l2.7-4l0.1-1.1l0.6-0.6l0-0.5l-0.8,0.1v-0.4l0.7-0.5l-0.2-0.4l-0.7-0.4l0.1-1.6l0.9-0.4l1-0.1l-0.1-0.4l-2.9-0.6l-1.3,1.5l-2.2-0.1
	v-6.3c0,0,0.8-0.6,0.8-1.1c0-0.4-0.7-1-0.7-1s-0.1-1.5-1.4-2.3c-1.3-0.8-2.4-1.2-2.4-1.2l0-0.3c0,0,0.5-0.2,0.5-0.7
	c0-0.6-1.7-1.4-1.7-1.4l-0.1-0.5l-0.3,0l0-1.1h-0.2l-0.1,1.1l-0.4,0l-0.1,0.6c0,0-1.5,0.7-1.5,1.2c0,0.5,0.7,0.9,0.7,0.9v0.4
	c0,0-2.3,1.2-2.7,2c-0.4,0.8-0.6,2.1-0.6,2.1s-0.5,0.6-0.5,0.9c0,0.3,0.9,1.2,0.9,1.2v5.3l-0.5-0.6V177l-2.9,0.1l0,0.3l1.7,0.7
	l-0.2,1.6l-0.6,0.2v1.2l0.2,0.3l-1,0.4l0,0.6l-1.3,0.2l0.2,1.1l1,0.3l-0.1,1.1l-0.8,0.5l0.6,1l-0.3,0.4l0.3,0.9l0.5,0l-0.1,1.2h3.1
	v0.4c0,0-0.7,0.6-0.7,0.9c0,0.3,0.4,0.8,0.6,1c0.3,0.2,0.3,0.8,0.3,0.8l-0.1,0.8l0.3,0.3v6l-0.3,0.6l0,0.9l0.4,0.3v5.4l-0.3,0.7
	l0,0.5l0.3,0.3v5.9l-0.3,0.9l0.2,0.7l0.4,0.3v6l-0.3,0.7l0.1,0.4l0.4,0.5v5.5l-0.2,0.9l0.1,0.4l0.2,0.5v3.4l-9.5-0.2l-1.7-0.1
	l-0.1,0.2c0,0-3.3-0.6-3.5-0.8c-0.2-0.3,0.7-1.3,0.7-1.3l0-1.3l-0.4-0.3l0.1-2.4l-0.7-0.1v-8.8l0.4-0.6l0-0.8l-0.3-0.1l0-1.1l-0.2,0
	l0-0.8l1.9-1.1l-0.1-0.5l-2.2-2.3v-2.8l0.6-0.6l-1.3-1.8l0-2.4l1.1-0.8l-1.3-0.8l0.1-1.7l-1-0.3l-0.1-1.1l-0.5-0.2l0,0.6l-1.5-0.2
	v-2.6h0.3V196l-0.6-0.2c0,0-1-7.8-4.7-12.2c-3.7-4.5-9.8-6.8-9.8-6.8s-3.1-2.8-4.7-3.7c-1.6-0.9-1.9-1.1-1.9-1.1v-5.6l0.9-1.1l0-0.3
	l-0.5-0.1v-1.2l0.6-0.1l-0.5-1.1l-0.8-0.3l0-1.8l-0.3-0.1l0-1.2h-0.2v1.2l-0.4,0.3v1.2l-2-1.8l0-0.7l0.5-0.5l0-1.1l-1.1-0.8
	c0,0,0.3-0.5,0.3-0.7c0-0.2-1.1-1.1-1.1-1.1l-1.3-0.9v-0.6l0.1-0.1v-0.2l-0.3-0.1v-0.7c0,0,0.9-0.5,1-1.2c0.1-0.7-0.6-1.3-1-1.6
	c-0.4-0.3-0.2-1-0.2-1l0-0.7l0.8-0.1l0-0.5l-0.8-0.1l0-1.6l-0.3,0l-0.3,0l0,1.6l-0.8,0.1l0,0.5l0.8,0.1l0,0.7c0,0,0.2,0.7-0.2,1
	c-0.4,0.3-1.1,0.9-1,1.6c0.1,0.7,1,1.2,1,1.2v0.7l-0.3,0.1v0.2l0.1,0.1v0.6l-1.3,0.9c0,0-1.1,0.8-1.1,1.1c0,0.2,0.3,0.7,0.3,0.7
	l-1.1,0.8l0,1.1l0.5,0.5l0,0.7l-2,1.8v-1.2l-0.4-0.3v-1.2h-0.2l0,1.2l-0.3,0.1l0,1.8l-0.8,0.3l-0.5,1.1l0.6,0.1v1.2l-0.5,0.1l0,0.3
	l0.9,1.1v5.6c0,0-0.3,0.2-1.9,1.1c-1.6,0.9-4.7,3.7-4.7,3.7s-6,2.3-9.8,6.8c-3.7,4.5-4.7,12.2-4.7,12.2l-0.6,0.2v0.5h0.3v2.6
	l-1.5,0.2l0-0.6l-0.5,0.2l-0.1,1.1l-1,0.3l0.1,1.7l-1.3,0.8l1.1,0.8l0,2.4l-1.3,1.8l0.6,0.6v2.8l-2.2,2.3l-0.1,0.5l1.9,1.1l0,0.8
	l-0.2,0l0,1.1l-0.3,0.1l0,0.8l0.4,0.6v8.8l-0.7,0.1l0.1,2.4l-0.4,0.3l0,1.3c0,0,0.9,1,0.7,1.3c-0.2,0.3-3.5,0.8-3.5,0.8l-0.1-0.2
	l-1.7,0.1l-9.5,0.2v-3.4l0.2-0.5l0.1-0.4l-0.2-0.9v-5.5l0.4-0.5l0.1-0.4l-0.3-0.7v-6l0.4-0.3l0.2-0.7l-0.3-0.9v-5.9l0.3-0.3l0-0.5
	l-0.3-0.7v-5.4l0.4-0.3l0-0.9l-0.3-0.6v-6l0.3-0.3l-0.1-0.8c0,0,0-0.7,0.3-0.8c0.3-0.2,0.6-0.7,0.6-1c0-0.3-0.7-0.9-0.7-0.9V189h3.1
	l-0.1-1.2l0.5,0l0.3-0.9l-0.3-0.4l0.6-1l-0.8-0.5l-0.1-1.1l1-0.3l0.2-1.1l-1.3-0.2l0-0.6l-1-0.4l0.2-0.3v-1.2l-0.6-0.2l-0.2-1.6
	l1.7-0.7l0-0.3l-2.9-0.1v0.5l-0.5,0.6v-5.3c0,0,0.9-0.8,0.9-1.2c0-0.3-0.5-0.9-0.5-0.9s-0.2-1.4-0.6-2.1c-0.4-0.8-2.7-2-2.7-2v-0.4
	c0,0,0.7-0.5,0.7-0.9c0-0.5-1.5-1.2-1.5-1.2l-0.1-0.6l-0.4,0l-0.1-1.1h-0.2l0,1.1l-0.3,0l-0.1,0.5c0,0-1.7,0.8-1.7,1.4
	c0,0.6,0.5,0.7,0.5,0.7l0,0.3c0,0-1.1,0.4-2.4,1.2c-1.3,0.8-1.4,2.3-1.4,2.3s-0.7,0.6-0.7,1c0,0.4,0.8,1.1,0.8,1.1v6.3l-2.2,0.1
	l-1.3-1.5l-2.9,0.6l-0.1,0.4l1,0.1l0.9,0.4l0.1,1.6l-0.7,0.4l-0.2,0.4l0.7,0.5v0.4l-0.8-0.1l0,0.5l0.6,0.6l0.1,1.1l2.7,4l0.1,0.7
	l-0.5,0.6l0.2,0.7l0.6,0.5v4.2l-0.7,0.3l-0.1,0.9l0.2,0.2v6.3l-0.5,0.1l0,0.5l0.2,0.4v6.3l-0.6,0.3l-0.1,0.6l0.1,0.1v6.6l-0.5,0.1
	v0.6l0.2,0.1v6.6l-0.4,0.2l0,0.5l0.3,0.2l-0.3,5.6l-0.5,0.1l-0.1-1.8l-1.4-1.4l-1-0.1l0-1.7l0.6-0.5v-4.7l0.4-0.4V220l-0.5-0.8h-1.1
	l-0.3,0.4v0.8h-0.4v-1.1h0.3v-1.2h-1.8v1l0.3,0.1l0,0.6l-0.5,0.3v0.4h-1.6l0-0.2l0.7-0.6v-0.5H519v-0.4l0.5-0.4V217l-0.8-0.9l0-1.9
	l-0.8-0.3l0-1.1l-4.6-5.5c0,0-0.6,0.1-1,0.1c-0.4,0-0.4-0.8-0.4-0.8v-1l0.3-0.2l0-0.4h-1.6v-2.3l0.4-0.5v-0.6l-0.8-0.7v-0.7h-0.3
	v-0.8l-0.4-1l-0.4,1.1l0,0.7h-0.3l0,0.7l-0.8,0.5v0.9l0.4,0.4v2.3h-1.5v0.4l0.4,0.2c0,0,0,0.2,0,0.8c0,0.6-1.1,1-1.1,1h-3.6
	c0,0-1.4,0-1.9,0.3c-0.5,0.3-0.3,1-0.3,1l2.2,2.3l0,0.3c0,0-0.9,0.7-1.7,1.3c-0.8,0.6-2.4,1-2.4,1h-1v0.3l1,0.6v0.5h-0.9v0.2l1.1,1
	c0,0,0.1,0.5,0.1,1c0,0.5,0.9,0.6,0.9,0.6s0,0,0,1.1c0,1.1-1,1.3-1,1.3h-2.7v-0.9c0,0,1.2-0.3,1.3-1.5c0.1-1.2-0.8-1.8-1-2
	c-0.2-0.2-0.1-0.7-0.1-0.7h0.2V214h-1.6v1.2h0.2c0,0,0.2,0.6,0,0.7c-0.2,0.1-1.3,0.8-1.2,2.1c0.1,1.3,1,1.4,1,1.4v0.7h-1.8v0.6h-0.3
	v2.2h-0.4v0.4c0,0,0.6-0.2,0.5,0.2c-0.1,0.4-1,0.7-1.9,0.8c-1,0.2-1.8,0.9-1.8,1.9c0,1,0.7,1.4,0.7,1.4l0,0.3l-2.8,0.3v0.2l0.6,0.3
	v0.7h0.2v7.1l-0.6,0.6h-1.1v0.2l0.6,0.3v0.5l0.2,0.2v12l-1,1v2l-2.2,0.6v0.5l0.7,0.8v0.8h0.5v0.7h0.4v1.5l-0.4,0.2v0.3l0.3,0.4v1.7
	h0.4v3.6h0.2v13.2h-2.5v-11.8h-6V250H469v4.8h-6v-2h-1.8v-4.2h-4.8v1.4h-10.4v4.4h-3.4v-14.8h-6V237h-15v-4.4h-9.4v3.4h-8v-2h-6.2
	v-2.8h-8.4V223h-14v8.2h-10.4v9.3h-4.7v-14.1h0.2v-3.6h-0.2v-0.5h-6.3v0.5h-0.3v3.6h0.3v29.9h-6.5v10.8h-2.2V136h-3.1v-4.5h2.9V86.1
	h-1.8V82h-8V66.7h-4.1v-3.9h-15.3l-11.4-16.6V0.7h-2.2v46h-9.2V0.5h-2.1v59.2l-1.6,1.6v18.8h-6.5v3.8h-2.7v45h2.7v7.4h-2.8v129.9
	h-5.9v-3.5h1.4v-4h-0.9v-29.8h1v-3.4l-0.5-0.5v-7h-1.2v-7.2l2-1.7v-5.9h-1v2.1h-1.5v-11.4h-1.4v-5.4h-0.9v5.4c0,0-0.5-0.8-0.8-0.8
	c-0.3,0,0-5,0-5l0.3-0.3l0.8-0.8v-6.1h-1.6v1.9l-1.9-1.9v-10.7l-2-1.8v-6.1l-1.2-1v-4l-1.1-0.7l-0.3-7.9H263l-0.7,7.7l-0.7,0.9
	l-0.1,3.9l-0.8,0.9v6.4l-2,2.1v10.2l-1.1,2.3l-0.3-2h-1.1v6.9l1.5,0.4l0.1,5.7l-0.5,1v-4.3h-1.5v4.5h-0.3v12.8h-1.6L243.4,192v-2.3
	l-0.5-0.3v-6.9h-0.5v6.6h-16.1l0.1-3.9l1.3-2.7l-0.1-5.6h-0.8v2.1l-1.8-0.7l0.3-12.7l-1.5-1.1l-0.1-6.9l-1.6-0.7l0.2-2.9l-0.9-0.6
	l-0.1-9.4l-0.7-0.1v9.4l-1.1,0.4v3.4l-1.2,0.7v6.8l-1.4,1.2l-0.4,12.7l-1.4,0.8l-0.1-2.5h-1v6.3l1,2.4l0.1,3.2h-32.1v-23.9l0.9-0.7
	l-0.1-1.5l-0.9-0.3v-9.8l1.1-0.4l-0.1-1.9l-0.8-0.3v-12.1l-1.1-8.6h0.4v-1.3l-0.8-0.8v-15.2l-0.7-0.1v1.2h-0.6l-0.1-5.7l-1.5-3.9
	V102h-0.7l0.4-4.7h0.4v-0.7h-0.4v-6.1H178v5.7l-2.3,1.5v-8.1h0.4v-1h-0.5v-2.5h0.3v-1.2h-0.3v-4.3h-1.4v-3.1H173v-2.1h0.6v-5.3
	L172,68v-3.6l-0.9-0.2v-2.1h-0.7l0.1-0.7l0.2,0v-0.4h-0.2v-2.4l0.4-0.5v-2.6l-1-4l-1,4V58l0.4,0.5v2.4h-0.2v0.4l0.2,0l0.1,0.7h-0.7
	v2.1l-0.9,0.2V68l-1.6,2.1v5.3h0.6v2.1h-1.1v3.1H164v4.3h-0.3v1.2h0.3v2.5h-0.5v1h0.4v8.1l-2.3-1.5v-5.7H161v6.1h-0.4v0.7h0.4
	l0.4,4.7h-0.7v1.2l-1.5,3.9l-0.1,5.7h-0.6v-1.2l-0.7,0.1v15.2l-0.8,0.8v1.3h0.4l-1.1,8.6v12.1l-0.8,0.3l-0.1,1.9l1.1,0.4v9.8
	l-0.9,0.3l-0.1,1.5l0.9,0.7v23.9h-32.1l0.1-3.2l1-2.4v-6.3h-1l-0.1,2.5l-1.4-0.8l-0.4-12.7l-1.4-1.2v-6.8l-1.2-0.7v-3.4l-1.1-0.4
	v-9.4l-0.7,0.1l-0.1,9.4l-0.9,0.6l0.2,2.9l-1.6,0.7l-0.1,6.9l-1.5,1.1l0.3,12.7l-1.8,0.7v-2.1H112l-0.1,5.6l1.3,2.7l0.1,3.9H97.1
	v-6.6h-0.5v6.9l-0.5,0.3v2.3l-10.4,15.8h-1.6v-12.8h-0.3v-4.5h-1.5v4.3l-0.5-1L82,188l1.5-0.4v-6.9h-1.1l-0.3,2l-1.1-2.3v-10.2
	l-2-2.1v-6.4l-0.8-0.9L78,157l-0.7-0.9l-0.7-7.7h-0.8l-0.3,7.9l-1.1,0.7v4l-1.2,1v6.1l-2,1.8v10.7l-1.9,1.9v-1.9h-1.6v6.1l0.8,0.8
	l0.3,0.3c0,0,0.3,5,0,5c-0.3,0-0.8,0.8-0.8,0.8v-5.4h-0.9v5.4h-1.4v11.4h-1.5v-2.1h-1v5.9l2,1.7v7.2h-1.2v7l-0.5,0.5v3.4h1v8.9h-1.8
	v-3.8h-1.4v-2h1.4v-13.1h-1.4v-10.3h-1.1V162H47v-51.6h-2.6v20.4c0,0,0.2,3.5-3.2,12.2c-4.9,12.5-19.3,16.3-19.3,16.3H11.3v-4.5H8.8
	v108.8H6.7v4.3h-6.8v39.6h688.4v-43.3h0.2v-3.6h0.4V259l0.3-0.4v-0.3l-0.4-0.2v-1.5h0.4V256h0.5v-0.8l0.7-0.8v-0.5L688.1,253.2z
	 M485.3,281.9v4.3h-2.5v-4.3H485.3z M360.6,249h4.7v1.9h-4.7V249z M360.6,254.3h4.7v1.9h-4.7V254.3z M360.6,259.5h4.7v1.9h-4.7
	V259.5z M365.4,243.8v1.9h-4.7v-1.9H365.4z"/>
</svg>
