<?xml version="1.0" encoding="utf-8"?>
<!-- Generator: Adobe Illustrator 21.0.0, SVG Export Plug-In . SVG Version: 6.00 Build 0)  -->
<svg version="1.1" id="Layer_1" xmlns="http://www.w3.org/2000/svg" xmlns:xlink="http://www.w3.org/1999/xlink" x="0px" y="0px"
	 viewBox="0 0 676 364" style="enable-background:new 0 0 676 364;" xml:space="preserve">
<style type="text/css">
	.st0{fill:#231F20;}
</style>
<path class="st0" d="M670.9,293.6v1.1h-2.8v-1.7h-13.6v-83.8h-2.8v-3.6l-8.9-2.8l-0.4,4.5l-6.6-0.2v-9.3l-17-4.2h-14.2v-2.3h-2.5
	v-20.4l-17.2-8.5h-28.9v-3.6h-12.5v-40.3h-0.8v38.6h-2.5v-3.2H526v2.8h-3.4v-2.1h-1.9v6.8h-10.4v141.1h-3.6v-2.1h-3.8v16.6H499
	v-54.3h-6.6v-11.9h-5.1v-7.6h-7v-11.5h-1.1v18.3h-3.2V248h-5.3v2.1h-5.1v12.5h-3.3v-26.9h1.4v-3.8h-1.2v-3.1h-30.9v-64.2h1.3V162h-1
	l0.3-19.8h0.7v-4.2h-0.5v-12.5h-2.1v7h-4.8v-7.3h-2.6v9h-6.2V127h-5v0.6h-1.3v-13.9h0.7V93.4h-0.5v-8.6h-1.3V92h-1.2v-5.7H407v-8.5
	h-2.2V71h2.1v-4.4l-8.6-8.1h-1.7v-5.2h1v-5.5l-2.2-35.3h0.9v-1.9h-0.8L395.1,0h-0.4h-0.4L394,10.5h-0.8v1.9h0.9l-2.2,35.3v5.5h1v5.2
	h-1.7l-8.6,8.1V71h2.1v6.8h-2.2v8.5h-1.1V92h-1.2v-7.2h-1.3v8.6h-0.5v20.3h0.7v13.9h-1.3V127h-5v7.2h-6.2v-9H364v7.3h-4.8v-7H357
	v12.5h-0.5v4.2h0.7l0.3,19.8h-1v2.7h1.3v64.2h-30.9v3.1h-1.2v3.8h1.4v29.7h-2.5v-4.2h-2.3v4.2h-2.8v-4.2h-2.3v4.2h-2.8v-4.2H312v4.2
	h-2.8v-4.2h-2.3v4.2h-2.8v-4.2h-2.3v4.2h-2.8v-4.2h-2.3v4.2h-1.9v-7.2h2.5V249h-2.5v-2.5h-19.7c-5.1-8-12.4-8.8-14.4-8.9l-0.1-0.5
	l-0.2-0.1l-0.2-0.9L260,237l-0.2,0.1l-0.1,0.5c-2,0.1-9.3,0.9-14.4,8.9h-19.7v2.5H223v9.3h2.5v7.2h-1.9v-4.2h-2.3v4.2h-2.8v-4.2
	h-2.3v4.2h-2.8v-4.2h-2.3v4.2h-2.8v-4.2h-1.2l-1.4-74.6l1-1.5v-5.2h0.5v-1.6l3-3.3l-0.1-2.1l-3.1-0.2l-0.1-1.5l1.1-0.4l0.4-2.7
	l2.4-1.1v-2h5.7v-1.8l3.3-2.8l-11.9-8.5l-2,0.2l-0.1-6.1h2.7v-1h0.7v-0.5l-4-3.1l-0.1-2.3l1.2-2.8l0.5-1.8l-1-4.5l2.2-1l1.1-2.4
	l-5.6-7.6v-1.8l0.5-0.9l-0.7-1.4v-11.4h-0.3l-0.3,11.6l-0.4,0.4l-0.2,1l0.4,0.6l0.2,1.9l-2.5-0.9l-0.6-1.2l-0.2-1.4l-1.4-1l-0.6-2.5
	l-0.1,2.8l-1.1,1.1l0.6,1.6l0.5,2.4l-0.9,1.5l0.2,1.2l-1.1,0.3l-0.3,1.7l-0.7,1l0.3,1.9l-0.6,1.4l-1.1,0.2c0,0-1.2-0.1-2.6-1.3
	c-1.4-1.2-2-3.9-2-3.9s0.1,2,0.2,2.8c0.1,0.7,2.2,2.6,2.6,2.8c0.3,0.2,1.8,1.1,1.8,1.1l1.2-0.1l1.4-1.6l1.2,2l-1,4.1l2.4,3.3v1.4
	l-2.5,1l-0.1,0.9l-3.7,0.6l0.6,0.7v1l2.9,2.1v7.2l-14.6,2.5l3.4,3.3l0.2,2l9,5.7l0.1,2.7l1.1,0.8v1.7l-4.8,0.1l1.8,4.1l2,0.7v3.2
	h1.2v5.6l0.8,0.7l0,74.8h-0.3v4.2h-2.8v-4.2h-2.3v4.2h-2.8v-4.2h-2.3v4.2H183v-4.2h-2.3v4.2h-8.8v7.2h-4.4v4.9h4.4v3h-2.5v10.2h2.5
	v1.2h-6.6v-12.3h-5.6l-4.2,9.8l0.2,1.6h-5.9v-1.4h-1.5v-3.8l0.8-0.6l0.1-1.8h-1v-16.6l1.7-3.1l-3-3l-0.6-7.2h-2.2l-0.3-6.2l1.7-1.7
	l-0.1-1.4h-0.7l-0.3-5.5h-0.7l-0.2,5.7l-1.8-0.9v-4.5l-2-3l-0.4-3l0.5-0.7l-0.1-1.6l-1.1-0.5l-0.2-7.9l-0.5,0.1l-0.1,7.9l-0.8,0.7
	v1.7l0.6,0.5v2.6l-1.7,3.5v4.1l-2.1,0.8v-5.4h-0.8l-0.2,5.3h-0.6v1.6l2.1,2.1v6.2h-2.8v6.7l-3.4,4.5l2.8,2.5v15.7h-0.8v2l0.5,0.5v4
	h-1.8v1.2h-2v-12.3h-1.5v-1.5h-2.9v1.9h-1.4v10.9h-5.1v-38.6h-1.2v-7.7h-4.1v7.7h-3.7v-0.9H94.5v0.9h-0.7v33h-1.5v1.9h-5.3v-26.3
	h-4.8l-0.7,5.1l-35.3,0.3l-1.3-5.7h-3.5v10l-3,2.1l0.6,2.5v10.1l-3.5,0.4l-24,8.7l1.2,3l-0.4,5.7l-12,4.7v17.8H0.2v38.9H676v-2.1
	v-36.9v-31.1H670.9z"/>
</svg>
