<?xml version="1.0" encoding="utf-8"?>
<!-- Generator: Adobe Illustrator 21.0.0, SVG Export Plug-In . SVG Version: 6.00 Build 0)  -->
<svg version="1.1" id="Layer_1" xmlns="http://www.w3.org/2000/svg" xmlns:xlink="http://www.w3.org/1999/xlink" x="0px" y="0px"
	 viewBox="0 0 689 327" style="enable-background:new 0 0 689 327;" xml:space="preserve">
<style type="text/css">
	.st0{fill:#231F20;}
</style>
<path class="st0" d="M259.6-0.2v21.6h-1.8v3.2l-2,0.1l-0.1-1.4l-3.1,0.6l-0.1,1.8l-1.7,0.9v1.1c0,0-1.7,0.6-2,0.9
	c-0.4,0.4-0.4,1.3,0.3,1.6c0.7,0.3,3,1.4,2.2,2.9c-0.8,1.5-2.4,1.9-3.5,2.2c-1.1,0.3-14.5,4.6-14.5,4.6v2.7l-3.1,0.9l-0.2,1.2
	c0,0-4.8,1-5.9,2c-1.1,1-0.7,2.4,1.8,3.2c2.5,0.8,7.8,1.6,7.8,1.6V54c0,0-3.5,0.7-3.4,2c0.1,1.3,4.1,2.7,7.3,3.3
	c3.2,0.6,6.6,1.1,6.6,1.1l3.6,23.7c0,0,3.3,21.8,3.3,29.4c0,7.6,0.7,22.4,0.7,22.4s-0.2,12.6-0.6,15.7l-23.9,0.2v1.3h0.9v18.6h-5.7
	l0,34.7l-11.8,0.1v-1.3h-2.4V202h-4.1v9.2l-5.7,0v-0.8h-2.4v0.7h-3.5v-8.6H192v-4.9h-0.4v-7.5l-0.5-0.5v-5.4h-1.8v-5h-3.9v-1.6
	l-4.7-4.6l-7.6-0.3l-5.3,5.4H166v3.1h-1v2.9h-1.6v2.6H162v2.2h-0.8v-4.7h-5.4v1.1h-3.7v4.3h-8.3v1.5h1.3v7.8h-2.7v-6.9h-17v-0.9
	h-2.7v1.2H117v4h0.8v3.1h-0.6v1.3h1.1v16.7H114v-24.6h-0.8v-40.8h-0.8v-2.9h-3.2v-1.1h-4.5v-1.8l-25.5-3.1v8.9H76V237h-4.8v-2.2
	l-10.1-5v0.7h-2.7v-2l-5-2.7v6.9h-1v3.4H53v5.3h-5v-9l-0.7-0.7v-2.1l-2.9-1.4h-4.1v-29.5h1.1l1.4-1.2v-4.9l-11.8-1.3h-5.2v-5.1H23
	v1.8h-8.2v3.8H7.1v6h0.7v41.9H5.1l-2,0.8v-2.2H0.4v2.3H0v54h0v32.1h688.9v-32.1h-0.1v-61.9h-0.9v-3h1v-1.9h-1.1v-4.8h-2.3l-1.7-2
	v-2.7h-36.5v-5.2h0.2v-0.9l-0.4-0.4v-1h-0.7v0.4l-0.7-0.4v-0.8h-0.8l0,0.6l-2.4-0.3v-0.7h-0.8v0.6h-3l0-0.7h-0.9v0.8l-2.7,0.3l0-0.6
	l-0.8,0.2v0.6l-1.7,0.6v-0.5l-0.9,0.1v1.3h-0.3v2l0.2,0.2v4.3h-12.3v-0.6l0.1-0.1v-0.5H619v-1.7l0.8-1h1.2v-1.9h-2v-1.3h-0.3v-0.7
	h-0.3v-2.1h0.3v-1.2h-25.6l-0.5-0.9l-1-0.8v-14.7h0.2v-2.6l-0.3-0.6c0,0,1.1-1.2,1.3-2.4c0.2-1.1-0.1-2.7-1.1-3.7
	c-0.3-0.3-0.5-0.5-0.6-0.6v-0.9h-0.6v-1.6l-2.1-1.5v-0.6l-1.1-0.7l-0.2,0.7l-3-1.9l0.1-2.4h-0.6v-4.7c0,0,1.7-2.5,1.9-3.5
	c0.2-1.1-0.1-2.8-1.1-3.7c-1-0.9-2.4-1.8-2.4-1.8v-1.8h-0.7v-1.7l-1.3-0.7l0-0.7l-2.5-1.4l-0.2-1.6L577,150c0,0-0.9-6.2-3.4-10.3
	c-5.8-10.1-14.9-13.8-14.9-13.8l-0.7-1v-1.5l0.2-0.2v-0.7l-4.1-2.6c0,0,0.4-0.4,0.4-1c0-0.6-1.8-2.6-1.8-2.6v-7c0,0,0.4-0.4,0.4-0.9
	c0-0.5,0-0.9,0-0.9s1.1-1.6,1.1-2.1c0.1-0.9,0.2-1.3-0.7-2c-0.9-0.7-2.3-1.4-2.3-1.4s-0.1-1.4-0.8-2c-0.7-0.6-1.6-1.5-1.6-1.5v-2.8
	l0.2-0.2V94l-1.3-1.5l0-1.9h0.3v-1.2l0.7-0.1l0.3-0.5v-0.3l-0.2-0.4l0-0.6h-0.4l0-0.7c0,0,0.5-0.3,0.4-0.8c-0.1-0.5-0.8-2.1-0.8-2.1
	l-0.1-0.9l-0.8-0.3c0,0,0.3-0.3,0.1-0.7c-0.1-0.3-0.6-0.8-0.6-0.8l-0.1-1.1c0,0-0.3-0.1-0.3-0.1c0,0-0.3,0.1-0.3,0.1l-0.1,1.1
	c0,0-0.5,0.5-0.6,0.8c-0.1,0.3,0.1,0.7,0.1,0.7l-0.8,0.3l-0.1,0.9c0,0-0.7,1.6-0.8,2.1c-0.1,0.5,0.4,0.8,0.4,0.8l0,0.7h-0.4l0,0.6
	l-0.2,0.4v0.3l0.3,0.5l0.7,0.1v1.2h0.3l0,1.9L543,94v1.5l0.2,0.2v2.8c0,0-0.9,0.9-1.6,1.5c-0.7,0.6-0.8,2-0.8,2s-1.4,0.7-2.3,1.4
	c-0.9,0.7-0.9,1.1-0.7,2c0.1,0.4,1.1,2.1,1.1,2.1s0,0.4,0,0.9c0,0.5,0.4,0.9,0.4,0.9v7c0,0-1.8,2-1.8,2.6c0,0.6,0.4,1,0.4,1
	l-4.1,2.6v0.7l0.2,0.2v1.5l-0.7,1c0,0-9,3.7-14.9,13.8c-2.4,4.2-3.4,10.3-3.4,10.3l-0.6,0.5l-0.2,1.6l-2.5,1.4l0,0.7l-1.3,0.7v1.7
	h-0.7v1.8c0,0-1.4,0.9-2.4,1.8c-1,0.9-1.3,2.6-1.1,3.7c0.2,1.1,1.9,3.5,1.9,3.5v4.7h-0.6l0.1,2.4l-3,1.9l-0.2-0.7l-1.1,0.7v0.6
	l-2.1,1.5v1.6h-0.6v0.9c-0.1,0.1-0.3,0.2-0.6,0.6c-1,0.9-1.3,2.5-1.1,3.7c0.2,1.1,1.3,2.4,1.3,2.4l-0.3,0.6v2.6h0.2v14.7l-1,0.8
	l-0.5,0.9h-25.6v1.2h0.3v2.1h-0.3v0.7h-0.3v1.3h-2v1.9h1.2l0.8,1v1.7h-0.2v0.5l0.1,0.1v0.6h-12.3v-4.3l0.2-0.2v-2h-0.3v-1.3
	l-0.9-0.1v0.5l-1.7-0.6V210l-0.8-0.2l0,0.6l-2.7-0.3v-0.8h-0.9l0,0.7h-3v-0.6h-0.8v0.7l-2.4,0.3l0-0.6h-0.8v0.8l-0.7,0.4v-0.4H445v1
	l-0.4,0.4v0.9h0.2v2.1h-5l-4.1,2.3l-3.4-153.1l-8.5-13.3l-7.8,13.3l-3.4,153.9h-4.3v2.7l-1.7,2h-0.5v-17l-5.8-3.3v-14.1H399v1.7
	h-10.9v-5.4h-0.8v-9.5h-0.4v-1.1h0.5v-4.7h0.4v-2.2l-0.6-0.6v-1.5l-0.9-1.8h-0.7l-1.2,1.4h-3v-2.1h0.2v-1.9h-1.8l-3.4-5.1l-1-0.2
	v-3.7l-2.8-1.7h-1.4l-0.4,1.8v3.8h-0.9l-2.6,5.2h-2.5v2h0.6v3.2h-2.6l-1-1.9h-0.9l-1,1.9v1.4l-0.3,0.6v1.8h0.5v4.3h0.5v0.7H360v9.4
	h-0.5V241h-3.9v-0.8h-1.7v1.3h-1.4v-4.9h0.5v-4.2h-1v-49.2l-3.1-2.2h-24.7v38l-2.4-2.4l-0.2-26.8l-11.9,0.1v-66.2h-2.2v-1.9h-7.3v-1
	h-10.1v2.9h-1.4v26.9h-3.5v1.8h-3v31.7h-2.1v3h-4.6v25.4c0,0-3.1-26-3.8-36.5c-0.7-10.5-2.2-25.6-2.2-25.6l-0.7-34.8
	c0,0,2.1-18.2,3-24C272.7,85.6,277,60,277,60s4.5-0.8,7.2-1.7c2.7-0.9,5.3-2,5.3-2.7s-3.2-2.5-3.2-2.5v-2.7c0,0,5.5-0.4,7.5-1
	c2-0.6,3.7-1.6,2.1-3c-1.8-1.6-6-2.6-6-2.6v-1.4l-2.7-1v-2l-15.9-4.7c0,0-2.2-0.5-2.2-1.5s0.9-2.4,2-2.9c1.1-0.4,1-1.5,0-2
	c-1-0.5-2.2-0.9-2.2-0.9v-1.8l-3.5-0.7l-0.2-1.8l-1.6-0.1v1.6l-1.6,0.1l-0.1-2.8l-1.6-0.1V-0.2"/>
<path class="st0" d="M265,60.7c0,0,5.1-0.3,6.2-0.7l-4.7,36.5c0,0-1,3.6-1.6,3.8c-0.6,0.2-0.6-3.2-0.7-5.5
	C264.1,92.5,265,60.7,265,60.7z"/>
<path class="st0" d="M251.1,78.5c-0.9-6.4-1.9-17.9-1.9-17.9s2.2,0.3,5.5,0.4c0,0,0.5,20.5,0.9,36.9c0.2,9-1,15.3-1.4,10.5
	C254.3,108.4,252,84.9,251.1,78.5z"/>
</svg>
