<?xml version="1.0" encoding="utf-8"?>
<!-- Generator: Adobe Illustrator 21.0.0, SVG Export Plug-In . SVG Version: 6.00 Build 0)  -->
<svg version="1.1" id="Layer_1" xmlns="http://www.w3.org/2000/svg" xmlns:xlink="http://www.w3.org/1999/xlink" x="0px" y="0px"
	 viewBox="0 0 451 367" style="enable-background:new 0 0 451 367;" xml:space="preserve">
<g>
	<path d="M330.5,0.2"/>
</g>
<g>
	<g>
		<path d="M367.3,157.7c0.1-1.6,0.2-3.2,0.2-4.9c0-30.4-24.8-55.2-55.2-55.2c-10.4,0-20.4,2.9-29,8.3c-5.4-31.4-34.2-55-67.9-53.1
			c-32.1,1.6-57.5,25.1-61.7,55.2c-5.8-2.1-11.8-3.1-17.9-3.1c-30.5,0-55.2,24.8-55.2,55.2c0,0.7,0,1.3,0.1,2
			C65.1,166.3,43,175.2,43,206.8c0,23.4,19.5,43.6,46.1,44.8l8.1-12.5c-1,0-2.1,0-2.8,0.1l-2,0c-20.1,0-36.5-14.6-36.5-32.4
			c0-21.3,11.6-28.2,33.1-33.5l4.8-1.8l0.1-4.9l-0.2-2.6c-0.2-1.2-0.4-2.5-0.4-3.8c0-23.4,19-42.4,42.4-42.4c7.1,0,14,1.9,20.6,5.6
			l9.8,5.5l-0.2-11.2c-0.5-27.7,21.5-50.6,50.1-52l2.8-0.1c28.1,0,51.1,21.3,52.5,48.5c0.1,1,0,1.9-0.1,4.4l-0.6,16.5l11.6-11.8
			c8-8.2,18.8-12.7,30.2-12.7c23.4,0,42.4,19,42.4,42.4c0,2.9-0.3,5.7-0.9,8.5l-1.3,6.5l6.5,1.1c16.6,2.9,28.6,15.7,29.4,31.2
			c0.8,15.5-9.9,33.1-26.1,38.3l4.3,12c20.5-6.8,35.8-28,34.7-50.9C400.2,179.9,386.6,163.5,367.3,157.7z"/>
	</g>
	<g>
		<path d="M157.9,301.6L157.9,301.6c-21.3-28.6-19.9-77.8-20.9-62c-2.7,41.1-18.9,62-18.9,62l0,0c-1.4,2.6-2.1,5.4-2.1,8.4
			c0,10.9,9.8,19.7,22,19.7c12.2,0,22-8.8,22-19.7C160.1,307,159.3,304.2,157.9,301.6z"/>
	</g>
	<g>
		<path d="M225.7,262.8L225.7,262.8c-18.6-25-17.4-67.9-18.3-54.2c-2.3,35.9-16.5,54.2-16.5,54.2l0,0c-1.2,2.2-1.9,4.7-1.9,7.3
			c0,9.5,8.6,17.2,19.2,17.2c10.6,0,19.2-7.7,19.2-17.2C227.5,267.6,226.8,265.1,225.7,262.8z"/>
	</g>
	<g>
		<path d="M278.1,312.9L278.1,312.9c-17-22.8-15.9-62.2-16.7-49.6c-2.1,32.9-15.1,49.6-15.1,49.6l0,0c-1.1,2.1-1.7,4.3-1.7,6.7
			c0,8.7,7.9,15.8,17.6,15.8c9.7,0,17.6-7.1,17.6-15.8C279.8,317.2,279.2,314.9,278.1,312.9z"/>
	</g>
	<g>
		<path d="M299.3,245.8L299.3,245.8c-10.7-14.4-10-39.1-10.5-31.2c-1.4,20.7-9.5,31.2-9.5,31.2l0,0c-0.7,1.3-1.1,2.7-1.1,4.2
			c0,5.5,5,9.9,11.1,9.9c6.1,0,11.1-4.4,11.1-9.9C300.3,248.5,300,247.1,299.3,245.8z"/>
	</g>
</g>
</svg>
