<?xml version="1.0" encoding="utf-8"?>
<!-- Generator: Adobe Illustrator 21.0.0, SVG Export Plug-In . SVG Version: 6.00 Build 0)  -->
<svg version="1.1" id="Layer_1" xmlns="http://www.w3.org/2000/svg" xmlns:xlink="http://www.w3.org/1999/xlink" x="0px" y="0px"
	 viewBox="0 0 428 367" style="enable-background:new 0 0 428 367;" xml:space="preserve">
<g>
	<path d="M235.4,344.9c-17.1-22.8-15.9-62.2-16.7-49.6c-2.1,32.9-15.1,49.6-15.1,49.6c-1.1,2.1-1.7,4.3-1.7,6.7
		c0,8.7,7.9,15.8,17.6,15.8c9.7,0,17.6-7.1,17.6-15.8C237,349.2,236.4,347,235.4,344.9L235.4,344.9z"/>
	<path d="M324.7,53.6c-28.2,0-51.1,22.9-51.1,51.1c0,9.6,2.7,18.6,7.3,26.2c-3.7-0.8-7.6-1.2-11.5-1.2c-10.4,0-20.4,2.9-29,8.3
		c-5.4-31.4-34.2-55-67.9-53.1c-32.1,1.6-57.5,25.1-61.7,55.2c-5.8-2.1-11.8-3.1-17.9-3.1c-30.5,0-55.2,24.8-55.2,55.2
		c0,0.7,0,1.3,0.1,2c-15.4,4.2-37.6,13.1-37.5,44.7c0,23.4,19.5,43.6,46,44.8l8.1-12.6c-1,0-2.1,0.1-2.8,0.1l-2,0
		c-20.1,0-36.5-14.6-36.5-32.4c0-21.3,11.6-28.2,33.1-33.6l4.8-1.8l0.1-4.9l-0.2-2.6c-0.2-1.2-0.4-2.5-0.4-3.8
		c0-23.4,19-42.4,42.4-42.4c7.1,0,14,1.9,20.6,5.6l9.8,5.5l-0.2-11.2c-0.5-27.7,21.5-50.6,50-52l2.8-0.1c28.1,0,51.1,21.3,52.5,48.5
		c0.1,1,0,1.9-0.1,4.4l-0.6,16.5l11.6-11.8c8.1-8.2,18.8-12.7,30.2-12.7c23.4,0,42.4,19,42.4,42.4c0,2.9-0.3,5.7-0.9,8.5l-1.3,6.5
		l6.5,1.1c16.5,2.9,28.6,15.7,29.4,31.2c0.8,15.5-9.9,33.2-26.1,38.3l4.3,12c20.5-6.8,35.8-28,34.7-50.9
		c-1-19.5-14.6-35.9-33.9-41.8c0.2-1.6,0.2-3.2,0.2-4.9c0-11.1-3.3-21.3-8.9-30c2.9,0.5,5.9,0.8,8.9,0.8c28.2,0,51.1-22.9,51.1-51.1
		C375.8,76.5,352.9,53.6,324.7,53.6z M324.7,146.8c-23.2,0-42.1-18.9-42.1-42.2c0-23.2,18.9-42.2,42.1-42.2s42.2,18.9,42.2,42.2
		C366.9,127.9,348,146.8,324.7,146.8z"/>
	<path d="M279.6,64.8c1.3,1.5,3.5,1.6,5,0.3c1.5-1.3,1.6-3.5,0.3-5L258.6,30c-1.3-1.5-3.5-1.6-5-0.3c-1.5,1.3-1.6,3.5-0.3,5
		L279.6,64.8z"/>
	<path d="M324.9,47.4c1.9,0,3.5-1.6,3.5-3.6l-0.3-40.1c0-2-1.6-3.5-3.6-3.5c-2,0-3.5,1.6-3.5,3.6l0.3,40.1
		C321.3,45.8,322.9,47.4,324.9,47.4z"/>
	<path d="M223.6,98.7l39.9,3.3c2,0.1,3.7-1.3,3.8-3.3c0.2-1.9-1.3-3.7-3.3-3.8l-39.9-3.3c-2-0.1-3.7,1.3-3.8,3.3
		C220.1,96.8,221.6,98.5,223.6,98.7z"/>
	<path d="M416.1,152.7l-35.5-18.6c-1.7-0.9-3.9-0.2-4.8,1.5c-0.9,1.7-0.2,3.9,1.5,4.8l35.5,18.7c1.7,0.9,3.9,0.3,4.8-1.5
		C418.5,155.8,417.9,153.7,416.1,152.7z"/>
	<path d="M424.4,85.4l-39.8,4.7c-1.9,0.2-3.4,2-3.1,3.9c0.2,1.9,2,3.3,3.9,3.1l39.8-4.7c1.9-0.2,3.4-2,3.1-3.9
		C428.2,86.6,426.4,85.2,424.4,85.4z"/>
	<path d="M341.5,157c-1.9,0.6-2.8,2.7-2.2,4.5l13.3,37.8c0.6,1.8,2.7,2.8,4.5,2.2c1.9-0.7,2.8-2.7,2.2-4.5L346,159.2
		C345.4,157.3,343.3,156.4,341.5,157z"/>
	<path d="M365.9,61.1l24.7-31.6c1.2-1.5,0.9-3.8-0.6-5c-1.6-1.2-3.8-0.9-5,0.6l-24.7,31.6c-1.2,1.5-0.9,3.8,0.6,5
		C362.5,62.9,364.7,62.7,365.9,61.1z"/>
	<path d="M115.2,333.6c-21.3-28.6-19.9-77.8-20.9-62c-2.7,41.1-18.9,62-18.9,62c-1.3,2.6-2.1,5.4-2.1,8.4c0,10.9,9.9,19.7,22,19.7
		c12.2,0,22-8.8,22-19.7C117.3,339,116.5,336.2,115.2,333.6L115.2,333.6z"/>
	<path d="M182.9,294.9c-18.6-24.9-17.4-67.9-18.3-54.2c-2.3,35.9-16.5,54.2-16.5,54.2c-1.2,2.2-1.9,4.7-1.9,7.4
		c0,9.5,8.6,17.2,19.2,17.2c10.6,0,19.2-7.7,19.2-17.2C184.7,299.6,184,297.1,182.9,294.9L182.9,294.9z"/>
	<path d="M246,246.7c-1.4,20.7-9.5,31.2-9.5,31.2c-0.7,1.3-1.1,2.7-1.1,4.2c0,5.5,5,9.9,11.1,9.9c6.1,0,11.1-4.4,11.1-9.9
		c0-1.5-0.4-2.9-1.1-4.2C245.8,263.5,246.5,238.7,246,246.7z"/>
</g>
</svg>
