<?xml version="1.0" encoding="utf-8"?>
<!-- Generator: Adobe Illustrator 21.0.0, SVG Export Plug-In . SVG Version: 6.00 Build 0)  -->
<svg version="1.1" id="Layer_1" xmlns="http://www.w3.org/2000/svg" xmlns:xlink="http://www.w3.org/1999/xlink" x="0px" y="0px"
	 viewBox="0 0 375 356" style="enable-background:new 0 0 375 356;" xml:space="preserve">
<g>
	<g>
		<path d="M333.7,113.3c0.1-1.6,0.2-3.2,0.2-4.9c0-30.5-24.8-55.2-55.2-55.2c-10.4,0-20.4,2.9-29,8.3c-5.4-31.4-34.2-55-67.9-53.1
			C149.6,10,124.2,33.5,120,63.6c-5.8-2.1-11.8-3.1-17.9-3.1c-30.4,0-55.2,24.8-55.2,55.2c0,0.7,0,1.3,0.1,2
			C31.6,122,9.4,130.9,9.5,162.4c0,23.4,19.5,43.6,46.1,44.8l8.1-12.5c-1,0-2.1,0.1-2.8,0.1l-2,0c-20.1,0-36.5-14.6-36.5-32.4
			c0-21.3,11.6-28.2,33.1-33.6l4.8-1.8l0.1-4.9l-0.2-2.6c-0.2-1.3-0.4-2.5-0.4-3.8c0-23.4,19-42.4,42.4-42.4c7.1,0,14,1.9,20.6,5.6
			l9.8,5.5l-0.2-11.2c-0.5-27.7,21.5-50.6,50.1-52l2.8-0.1c28.1,0,51.1,21.3,52.5,48.5c0,1,0,1.9-0.1,4.4l-0.6,16.5l11.6-11.8
			c8-8.2,18.8-12.7,30.2-12.7c23.4,0,42.4,19,42.4,42.4c0,2.9-0.3,5.7-0.9,8.5l-1.3,6.5l6.5,1.1c16.6,2.9,28.6,15.7,29.4,31.2
			c0.8,15.5-9.9,33.2-26.1,38.3l4.3,12c20.5-6.8,35.8-28,34.7-50.9C366.7,135.6,353,119.1,333.7,113.3z"/>
	</g>
	<g>
		<path d="M82.1,233h3.7v-3.7h-3.7V233z M96.6,237.9l2.6,2.6l2.6-2.6l-2.6-2.6L96.6,237.9z M76.9,213.2l-2.6,2.7l2.6,2.6l2.6-2.6
			L76.9,213.2z M112.7,233h3.7v-3.7h-3.7V233z M85.6,198.4H82v3.7h3.7V198.4z M116.7,198.4H113v3.7h3.7V198.4z M101.8,193.3
			l-2.6-2.6l-2.6,2.6l2.6,2.6L101.8,193.3z M120.2,221.3l-2.4-5.7l2.4-5.4l-4.4,4.5h-7.1l2.6-4l-4.6-0.9l5-5.1h6.2l-5.7-2.1
			l-2.1-5.7v6.3l-4.9,5.1l-0.7-4.9l-4.1,2.8v-6.9l4.5-4.7l-5.3,2.7l-5.6-2.4l4.5,4.5v6.9l-4.2-2.5l-0.7,4.6l-5-5.1v-6.3l-2,5.7
			l-5.8,2.2H87l5,4.9l-5.2,1.1l3.2,3.7h-7.1l-4.5-4.5l2.1,5.6l-2.1,5.5l4.5-4.7H90l-3.2,4.1l5.2,0.8l-5,5h-6.3l5.8,2l1.9,5.6
			l0.1-6.2l4.8-4.8l0.9,5l4.2-3.1v7.1l-4.5,4.4l5.5-2.4l5.3,2.4l-4.4-4.4v-7.1l4.1,2.8l0.7-4.9l5,5l0.1,6.2l1.8-5.5l5.8-2.2h-6.2
			l-5-4.8l4.8-1.4l-2.9-3.7h7.1L120.2,221.3z M93.9,212l3.1,2.8h-4.1L93.9,212z M94.1,219.8l-1.2-3.1H97L94.1,219.8z M98.4,222.3
			l-2.8-1.1l2.8-3V222.3z M98.4,213.4l-2.8-2.8l2.8-1.2V213.4z M104.7,212l1.1,2.8h-4.1L104.7,212z M100.5,209.3l2.9,1.2l-2.9,2.8
			V209.3z M100.5,222.4v-4.3l2.9,2.8L100.5,222.4z M104.5,219.8l-2.9-3.1h4.4L104.5,219.8z M121.3,213.1l-2.6,2.6l2.6,2.6l2.6-2.6
			L121.3,213.1z"/>
	</g>
	<g>
		<path d="M231.4,213.2h4.8v-4.8h-4.8V213.2z M250.2,219.6l3.4,3.4l3.4-3.4l-3.4-3.4L250.2,219.6z M224.7,187.5l-3.4,3.4l3.4,3.3
			l3.4-3.3L224.7,187.5z M271.1,213.2h4.8v-4.8h-4.8V213.2z M236,168.3h-4.8v4.8h4.8V168.3z M276.3,168.3h-4.8v4.8h4.8V168.3z
			 M256.9,161.7l-3.4-3.4l-3.4,3.4l3.4,3.4L256.9,161.7z M280.7,198.1l-3.1-7.4l3.1-7l-5.7,5.9h-9.2l3.3-5.2l-5.9-1.1l6.5-6.6h8
			l-7.3-2.7l-2.8-7.3v8.1l-6.4,6.6l-1-6.3l-5.3,3.6v-9l5.8-6l-6.9,3.5l-7.2-3.2l5.8,5.8v9l-5.4-3.3l-0.9,5.9l-6.5-6.6v-8.1l-2.5,7.3
			l-7.6,2.9h8.1l6.5,6.4l-6.7,1.5l4.1,4.8h-9.2l-5.8-5.9l2.8,7.2l-2.8,7.2l5.8-6.1h9.2l-4.1,5.4l6.7,1.1l-6.5,6.5h-8.1l7.6,2.6
			l2.4,7.3l0.1-8l6.3-6.3l1.1,6.5l5.4-4v9.2l-5.8,5.7l7.1-3.1l7,3.1l-5.7-5.7V203l5.3,3.6l1-6.3l6.5,6.5l0.1,8l2.4-7.1l7.5-2.8h-8
			l-6.5-6.2l6.3-1.8l-3.7-4.8h9.2L280.7,198.1z M246.7,186l3.9,3.7h-5.3L246.7,186z M247,196l-1.6-4h5.3L247,196z M252.5,199.4
			l-3.6-1.5l3.6-3.9V199.4z M252.5,187.8l-3.6-3.7l3.6-1.6V187.8z M260.7,186l1.4,3.7h-5.3L260.7,186z M255.2,182.5l3.8,1.6
			l-3.8,3.7V182.5z M255.2,199.5v-5.5l3.8,3.7L255.2,199.5z M260.5,196l-3.7-4h5.7L260.5,196z M282.3,187.4l-3.4,3.4l3.4,3.4
			l3.4-3.4L282.3,187.4z"/>
	</g>
	<g>
		<path d="M115.7,337.5h4.8v-4.8h-4.8V337.5z M134.6,343.9l3.4,3.4l3.4-3.4l-3.4-3.4L134.6,343.9z M109,311.9l-3.4,3.4l3.4,3.4
			l3.4-3.4L109,311.9z M155.4,337.5h4.8v-4.8h-4.8V337.5z M120.3,292.6h-4.8v4.8h4.8V292.6z M160.6,292.6h-4.8v4.8h4.8V292.6z
			 M141.3,286.1l-3.4-3.4l-3.4,3.4l3.4,3.4L141.3,286.1z M165.1,322.5l-3.1-7.4l3.1-7l-5.7,5.9h-9.2l3.3-5.2l-5.9-1.1l6.5-6.6h8
			l-7.3-2.7l-2.8-7.3v8.1l-6.4,6.6l-1-6.3l-5.3,3.6v-9l5.8-6l-6.9,3.4l-7.2-3.2l5.8,5.8v9l-5.4-3.3l-0.9,6l-6.5-6.6v-8.1l-2.5,7.3
			l-7.6,2.9h8.1l6.5,6.4l-6.7,1.5l4.1,4.8h-9.2l-5.8-5.9l2.8,7.2l-2.8,7.2l5.8-6.1h9.2l-4.1,5.4l6.7,1l-6.5,6.5h-8.1l7.6,2.6
			l2.4,7.2l0.1-8l6.3-6.3l1.1,6.5l5.4-4v9.2l-5.8,5.6l7.1-3.1l6.9,3.1l-5.7-5.6v-9.2l5.3,3.6l1-6.3l6.5,6.5l0.1,8l2.4-7.1l7.5-2.8
			h-8l-6.5-6.3l6.3-1.8l-3.7-4.8h9.2L165.1,322.5z M131,310.3l3.9,3.7h-5.3L131,310.3z M131.3,320.4l-1.6-4h5.3L131.3,320.4z
			 M136.8,323.7l-3.6-1.5l3.6-3.9V323.7z M136.8,312.1l-3.6-3.7l3.6-1.6V312.1z M145,310.3l1.4,3.7h-5.3L145,310.3z M139.5,306.9
			l3.8,1.6l-3.8,3.7V306.9z M139.5,323.8v-5.5l3.8,3.7L139.5,323.8z M144.8,320.4l-3.7-4h5.7L144.8,320.4z M166.6,311.8l-3.4,3.4
			l3.4,3.4l3.4-3.4L166.6,311.8z"/>
	</g>
	<g>
		<path d="M191.8,275.9h3.4v-3.3h-3.4V275.9z M204.9,280.3l2.4,2.4l2.4-2.4l-2.4-2.4L204.9,280.3z M187.1,258.1l-2.4,2.4l2.4,2.3
			l2.3-2.3L187.1,258.1z M219.4,275.9h3.4v-3.3h-3.4V275.9z M195,244.7h-3.3v3.3h3.3V244.7z M223,244.7h-3.4v3.3h3.4V244.7z
			 M209.5,240.1l-2.4-2.4l-2.4,2.4l2.4,2.4L209.5,240.1z M226.1,265.4l-2.1-5.1l2.1-4.8l-3.9,4.1h-6.4l2.3-3.6l-4.1-0.8l4.5-4.6h5.6
			l-5.1-1.9l-1.9-5.1v5.6l-4.4,4.6l-0.7-4.4l-3.7,2.5v-6.2l4-4.2l-4.8,2.4l-5-2.2l4,4v6.2l-3.7-2.2l-0.6,4.1l-4.5-4.6v-5.6l-1.8,5.1
			l-5.3,2h5.7l4.5,4.4l-4.6,1l2.8,3.3h-6.4l-4-4.1l1.9,5l-1.9,5l4-4.2h6.4l-2.8,3.7l4.6,0.7l-4.5,4.5h-5.7l5.3,1.8l1.7,5l0.1-5.6
			l4.3-4.3l0.8,4.5l3.7-2.8v6.4l-4,3.9l4.9-2.1l4.8,2.1l-3.9-3.9v-6.4l3.7,2.5l0.7-4.4l4.5,4.5l0.1,5.6l1.6-4.9l5.2-1.9h-5.6
			l-4.5-4.3l4.4-1.3l-2.6-3.3h6.4L226.1,265.4z M202.4,257l2.7,2.5h-3.7L202.4,257z M202.6,264l-1.1-2.8h3.7L202.6,264z
			 M206.4,266.3l-2.5-1l2.5-2.7V266.3z M206.4,258.2l-2.5-2.5l2.5-1.1V258.2z M212.1,257l1,2.5h-3.7L212.1,257z M208.3,254.6
			l2.6,1.1l-2.6,2.5V254.6z M208.3,266.4v-3.9l2.6,2.6L208.3,266.4z M212,264l-2.6-2.8h3.9L212,264z M227.1,258l-2.4,2.3l2.4,2.4
			l2.4-2.4L227.1,258z"/>
	</g>
	<g>
		<path d="M158.8,210.8h2.4v-2.3h-2.4V210.8z M168,213.9l1.7,1.7l1.7-1.7l-1.7-1.7L168,213.9z M155.5,198.3l-1.7,1.7l1.7,1.6
			l1.6-1.6L155.5,198.3z M178.2,210.8h2.4v-2.3h-2.4V210.8z M161,188.9h-2.3v2.3h2.3V188.9z M180.7,188.9h-2.4v2.3h2.4V188.9z
			 M171.3,185.6l-1.7-1.7l-1.7,1.7l1.7,1.7L171.3,185.6z M182.9,203.4l-1.5-3.6l1.5-3.4l-2.8,2.9h-4.5l1.6-2.5l-2.9-0.5l3.2-3.2h3.9
			l-3.6-1.3l-1.4-3.6v4l-3.1,3.2l-0.5-3.1l-2.6,1.8v-4.4l2.8-3l-3.4,1.7l-3.5-1.6l2.8,2.8v4.4l-2.6-1.6l-0.4,2.9l-3.2-3.2v-4
			l-1.2,3.6l-3.7,1.4h4l3.2,3.1l-3.3,0.7l2,2.4h-4.5l-2.8-2.9l1.4,3.5l-1.4,3.5l2.8-3h4.5l-2,2.6l3.3,0.5l-3.2,3.2h-4l3.7,1.3
			l1.2,3.6l0-3.9l3.1-3.1l0.5,3.2l2.6-2v4.5l-2.8,2.8l3.4-1.5l3.4,1.5l-2.8-2.8v-4.5l2.6,1.8l0.5-3.1l3.2,3.2l0.1,3.9l1.1-3.5
			l3.7-1.4h-3.9l-3.2-3.1l3.1-0.9l-1.8-2.3h4.5L182.9,203.4z M166.2,197.5l1.9,1.8h-2.6L166.2,197.5z M166.4,202.4l-0.8-1.9h2.6
			L166.4,202.4z M169.1,204l-1.7-0.7l1.7-1.9V204z M169.1,198.4l-1.7-1.8l1.7-0.8V198.4z M173.1,197.5l0.7,1.8h-2.6L173.1,197.5z
			 M170.4,195.8l1.9,0.8l-1.9,1.8V195.8z M170.4,204.1v-2.7l1.9,1.8L170.4,204.1z M173,202.4l-1.8-1.9h2.8L173,202.4z M183.6,198.2
			l-1.7,1.6l1.7,1.7l1.7-1.7L183.6,198.2z"/>
	</g>
	<g>
		<path d="M259.1,280.4h2.7v-2.7h-2.7V280.4z M269.7,284l1.9,1.9l1.9-1.9l-1.9-1.9L269.7,284z M255.4,266.1l-1.9,1.9l1.9,1.9
			l1.9-1.9L255.4,266.1z M281.3,280.4h2.7v-2.7h-2.7V280.4z M261.7,255.3H259v2.7h2.7V255.3z M284.2,255.3h-2.7v2.7h2.7V255.3z
			 M273.4,251.6l-1.9-1.9l-1.9,1.9l1.9,1.9L273.4,251.6z M286.7,272l-1.7-4.1l1.7-3.9l-3.2,3.3h-5.2l1.9-2.9l-3.3-0.6l3.6-3.7h4.5
			l-4.1-1.5l-1.5-4.1v4.5l-3.5,3.7l-0.5-3.5l-3,2v-5l3.2-3.4l-3.8,1.9l-4-1.8l3.2,3.2v5l-3-1.8l-0.5,3.3l-3.6-3.7v-4.5l-1.4,4.1
			l-4.2,1.6h4.5l3.6,3.6l-3.7,0.8l2.3,2.7h-5.1l-3.2-3.3l1.5,4l-1.5,4l3.2-3.4h5.1l-2.3,3l3.7,0.6l-3.6,3.6h-4.5l4.2,1.5l1.4,4.1
			l0-4.5l3.5-3.5l0.6,3.6l3-2.2v5.2l-3.2,3.2l4-1.7l3.9,1.7l-3.1-3.2v-5.2l3,2l0.5-3.5l3.6,3.6l0.1,4.5l1.3-4l4.2-1.6h-4.5l-3.6-3.5
			l3.5-1l-2.1-2.7h5.2L286.7,272z M267.7,265.2l2.2,2.1h-3L267.7,265.2z M267.8,270.8l-0.9-2.2h3L267.8,270.8z M270.9,272.7l-2-0.8
			l2-2.2V272.7z M270.9,266.2l-2-2.1l2-0.9V266.2z M275.5,265.2l0.8,2.1h-3L275.5,265.2z M272.4,263.3l2.1,0.9l-2.1,2.1V263.3z
			 M272.4,272.7v-3.1l2.1,2.1L272.4,272.7z M275.4,270.8l-2.1-2.2h3.2L275.4,270.8z M287.5,266l-1.9,1.9l1.9,1.9l1.9-1.9L287.5,266z
			"/>
	</g>
</g>
</svg>
