<?xml version="1.0" encoding="utf-8"?>
<!-- Generator: Adobe Illustrator 21.0.0, SVG Export Plug-In . SVG Version: 6.00 Build 0)  -->
<svg version="1.1" id="Layer_1" xmlns="http://www.w3.org/2000/svg" xmlns:xlink="http://www.w3.org/1999/xlink" x="0px" y="0px"
	 viewBox="0 0 451 412" style="enable-background:new 0 0 451 412;" xml:space="preserve">
<g>
	<g>
		<path d="M367.7,107.3c0.2-1.6,0.2-3.2,0.2-4.8c0-30.5-24.8-55.2-55.2-55.2c-10.4,0-20.4,2.9-29,8.3c-5.4-31.4-34.2-55-67.9-53.1
			C183.6,4,158.2,27.5,154,57.6c-5.8-2.1-11.8-3.1-17.9-3.1c-30.4,0-55.2,24.8-55.2,55.2c0,0.7,0,1.3,0.1,2
			c-15.4,4.2-37.6,13.1-37.5,44.7c0,23.4,19.5,43.6,46,44.8l8.1-12.5c-1,0-2.1,0-2.8,0.1l-2,0.1c-20.1,0-36.5-14.6-36.5-32.4
			c0-21.3,11.6-28.2,33.1-33.5l4.8-1.8l0.1-4.9l-0.2-2.6c-0.2-1.2-0.4-2.5-0.4-3.8c0-23.4,19-42.4,42.4-42.4c7,0,14,1.9,20.6,5.6
			l9.8,5.5l-0.2-11.2c-0.5-27.7,21.5-50.6,50.1-52l2.8-0.1c28.1,0,51.1,21.3,52.5,48.5c0.1,1,0,1.9-0.1,4.4l-0.6,16.5l11.6-11.8
			c8-8.2,18.8-12.7,30.2-12.7c23.4,0,42.4,19,42.4,42.4c0,2.9-0.3,5.7-0.9,8.5l-1.3,6.5l6.5,1.1c16.6,2.9,28.6,15.7,29.4,31.2
			c0.8,15.5-9.9,33.1-26.1,38.3l4.3,12c20.5-6.8,35.8-28,34.7-50.9C400.7,129.6,387,113.1,367.7,107.3z"/>
	</g>
	<g>
		<polygon points="107,410.6 109.1,407.4 181.2,296.2 111.1,296.1 170.8,200.9 176.5,200.9 136.2,283.8 211.4,284.1 		"/>
	</g>
	<g>
		<polygon points="218.3,366.6 220.1,363.8 284.8,264.1 222,264 275.4,178.6 280.6,178.6 244.4,252.9 311.8,253.2 		"/>
	</g>
</g>
</svg>
