<?xml version="1.0" encoding="utf-8"?>
<!-- Generator: Adobe Illustrator 21.0.0, SVG Export Plug-In . SVG Version: 6.00 Build 0)  -->
<svg version="1.1" id="Layer_1" xmlns="http://www.w3.org/2000/svg" xmlns:xlink="http://www.w3.org/1999/xlink" x="0px" y="0px"
	 viewBox="0 0 375 382" style="enable-background:new 0 0 375 382;" xml:space="preserve">
<g>
	<g>
		<path d="M356.7,162.6c-11.3,0-17.1-6.4-21.9-11.5c-4.5-4.8-8-8.6-15.3-8.6c-7.4,0-10.9,3.8-15.3,8.6c-4.8,5.1-10.6,11.4-21.9,11.4
			c-11.2,0-17.1-6.4-21.8-11.5c-4.5-4.8-8-8.6-15.3-8.6c-7.3,0-10.9,3.8-15.3,8.6c-4.7,5.1-10.6,11.5-21.8,11.5
			c-11.2,0-17.1-6.4-21.8-11.5c-4.5-4.8-8-8.6-15.3-8.6c-7.3,0-10.8,3.8-15.3,8.6c-4.7,5.1-10.6,11.5-21.8,11.5
			c-11.2,0-17.1-6.4-21.8-11.5c-4.4-4.8-7.9-8.6-15.2-8.6c-7.3,0-10.8,3.8-15.3,8.6c-4.7,5.1-10.6,11.4-21.8,11.4
			c-11.2,0-17.1-6.4-21.8-11.5c-4.4-4.8-7.9-8.6-15.3-8.6v-8.9c11.2,0,17.1,6.4,21.8,11.5c4.4,4.8,7.9,8.6,15.3,8.6
			c7.3,0,10.8-3.8,15.3-8.6c4.7-5.1,10.6-11.5,21.8-11.5c11.2,0,17.1,6.4,21.8,11.5c4.4,4.8,8,8.6,15.3,8.6c7.3,0,10.8-3.8,15.3-8.6
			c4.7-5.1,10.6-11.5,21.8-11.5c11.2,0,17.1,6.4,21.8,11.5c4.5,4.8,8,8.6,15.3,8.6c7.3,0,10.8-3.8,15.3-8.6
			c4.7-5.1,10.6-11.5,21.8-11.5c11.2,0,17.1,6.4,21.8,11.5c4.5,4.8,8,8.6,15.3,8.6c7.3,0,10.9-3.8,15.3-8.6
			c4.8-5.1,10.6-11.5,21.9-11.5c11.2,0,17.1,6.4,21.9,11.5c4.5,4.8,8,8.6,15.3,8.6V162.6z"/>
	</g>
	<g>
		<path d="M356.7,202.8c-11.3,0-17.1-6.4-21.9-11.5c-4.5-4.8-8-8.6-15.3-8.6c-7.4,0-10.9,3.8-15.3,8.6c-4.7,5.1-10.6,11.5-21.9,11.5
			c-11.2,0-17.1-6.4-21.8-11.5c-4.5-4.8-8-8.6-15.3-8.6c-7.3,0-10.9,3.8-15.3,8.6c-4.7,5.1-10.6,11.5-21.8,11.5
			c-11.2,0-17.1-6.4-21.8-11.5c-4.5-4.8-8-8.6-15.3-8.6c-7.3,0-10.8,3.8-15.3,8.6c-4.7,5.1-10.6,11.5-21.8,11.5
			c-11.2,0-17.1-6.4-21.8-11.5c-4.4-4.8-7.9-8.6-15.2-8.6c-7.3,0-10.8,3.8-15.3,8.6c-4.7,5.1-10.6,11.5-21.8,11.5
			c-11.2,0-17.1-6.4-21.8-11.5c-4.4-4.8-7.9-8.6-15.3-8.6v-8.9c11.2,0,17.1,6.4,21.8,11.5c4.5,4.8,7.9,8.6,15.3,8.6
			c7.3,0,10.8-3.8,15.3-8.6c4.7-5.1,10.6-11.5,21.8-11.5c11.2,0,17.1,6.3,21.8,11.5c4.4,4.8,8,8.6,15.3,8.6c7.3,0,10.8-3.8,15.3-8.6
			c4.7-5.1,10.6-11.5,21.8-11.5c11.2,0,17.1,6.3,21.8,11.5c4.5,4.8,8,8.6,15.3,8.6c7.3,0,10.8-3.8,15.3-8.6
			c4.7-5.1,10.6-11.5,21.8-11.5c11.2,0,17.1,6.3,21.8,11.5c4.5,4.8,8,8.6,15.3,8.6c7.3,0,10.9-3.8,15.3-8.6
			c4.7-5.1,10.6-11.5,21.9-11.5c11.2,0,17.1,6.3,21.9,11.5c4.5,4.8,8,8.6,15.3,8.6V202.8z"/>
	</g>
	<g>
		<path d="M356.7,246.8c-11.3,0-17.1-6.4-21.9-11.5c-4.5-4.8-8-8.6-15.3-8.6c-7.4,0-10.9,3.8-15.3,8.6c-4.8,5.1-10.6,11.4-21.9,11.4
			c-11.2,0-17.1-6.4-21.8-11.5c-4.5-4.8-8-8.6-15.3-8.6c-7.3,0-10.9,3.8-15.3,8.6c-4.7,5.1-10.6,11.5-21.8,11.5
			c-11.2,0-17.1-6.4-21.8-11.5c-4.5-4.8-8-8.6-15.3-8.6c-7.3,0-10.8,3.8-15.3,8.6c-4.7,5.1-10.6,11.5-21.8,11.5
			c-11.2,0-17.1-6.4-21.8-11.5c-4.4-4.8-7.9-8.6-15.2-8.6c-7.3,0-10.8,3.8-15.3,8.6c-4.7,5.1-10.6,11.4-21.8,11.4
			c-11.2,0-17.1-6.4-21.8-11.5c-4.4-4.8-7.9-8.6-15.3-8.6v-8.9c11.2,0,17.1,6.4,21.8,11.5c4.4,4.8,7.9,8.6,15.3,8.6
			c7.3,0,10.8-3.8,15.3-8.6c4.7-5.1,10.6-11.5,21.8-11.5c11.2,0,17.1,6.4,21.8,11.4c4.4,4.8,8,8.6,15.3,8.6c7.3,0,10.8-3.8,15.3-8.6
			c4.7-5.1,10.6-11.5,21.8-11.5c11.2,0,17.1,6.4,21.8,11.5c4.5,4.8,8,8.6,15.3,8.6c7.3,0,10.8-3.8,15.3-8.6
			c4.7-5.1,10.6-11.5,21.8-11.5c11.2,0,17.1,6.4,21.8,11.5c4.5,4.8,8,8.6,15.3,8.6c7.3,0,10.9-3.8,15.3-8.6
			c4.8-5.1,10.6-11.4,21.9-11.4c11.2,0,17.1,6.4,21.9,11.4c4.5,4.8,8,8.6,15.3,8.6V246.8z"/>
	</g>
</g>
</svg>
