<?xml version="1.0" encoding="utf-8"?>
<!-- Generator: Adobe Illustrator 21.0.0, SVG Export Plug-In . SVG Version: 6.00 Build 0)  -->
<svg version="1.1" id="Layer_1" xmlns="http://www.w3.org/2000/svg" xmlns:xlink="http://www.w3.org/1999/xlink" x="0px" y="0px"
	 viewBox="0 0 375 382" style="enable-background:new 0 0 375 382;" xml:space="preserve">
<g>
	<g>
		<path d="M333.3,109.5c0.2-1.6,0.2-3.2,0.2-4.8c0-30.4-24.8-55.2-55.3-55.2c-10.4,0-20.4,2.9-29,8.3c-5.4-31.4-34.2-55-67.9-53.1
			c-32.1,1.6-57.5,25.1-61.7,55.2c-5.8-2.1-11.8-3.1-17.9-3.1c-30.4,0-55.2,24.8-55.2,55.2c0,0.7,0,1.3,0.1,2
			c-15.4,4.2-37.6,13.1-37.5,44.7c0,23.4,19.5,43.5,46.1,44.8l8.1-12.5c-1,0-2.1,0-2.8,0.1l-2,0.1C38.4,191,22,176.5,22,158.6
			c0-21.3,11.6-28.2,33.1-33.5l4.8-1.8l0.1-4.9l-0.2-2.6c-0.2-1.2-0.3-2.5-0.3-3.8c0-23.4,19-42.4,42.4-42.4c7.1,0,14,1.9,20.6,5.6
			l9.8,5.5L132,69.4c-0.5-27.7,21.5-50.6,50.1-52l2.8-0.1c28.1,0,51.1,21.3,52.4,48.5c0.1,1,0,1.9-0.1,4.5l-0.6,16.5L248.1,75
			c8.1-8.2,18.8-12.7,30.2-12.7c23.4,0,42.4,19,42.4,42.4c0,2.9-0.3,5.7-0.9,8.5l-1.3,6.5l6.5,1.1c16.6,2.9,28.6,15.7,29.4,31.2
			c0.8,15.5-9.9,33.2-26.1,38.3l4.3,11.9c20.5-6.8,35.8-28,34.7-50.8C366.3,131.8,352.7,115.3,333.3,109.5z"/>
	</g>
	<g>
		<path d="M97.5,336.8c0,1.5-1.8,2.8-4,2.8l0,0c-2.2,0-4-1.3-4-2.8V182.6c0-1.5,1.8-2.8,4-2.8l0,0c2.2,0,4,1.2,4,2.8V336.8z"/>
	</g>
	<g>
		<path d="M133.7,360.5c0,1.6-1.8,2.8-3.9,2.8l0,0c-2.2,0-4-1.2-4-2.8V206.3c0-1.6,1.8-2.8,4-2.8l0,0c2.2,0,3.9,1.3,3.9,2.8V360.5z"
			/>
	</g>
	<g>
		<path d="M188.2,326.8c0,1.6-1.8,2.8-3.9,2.8l0,0c-2.2,0-4-1.3-4-2.8V172.6c0-1.5,1.8-2.8,4-2.8l0,0c2.2,0,3.9,1.2,3.9,2.8V326.8z"
			/>
	</g>
	<g>
		<path d="M231.6,375.2c0,1.5-1.8,2.8-3.9,2.8l0,0c-2.2,0-4-1.3-4-2.8V221c0-1.5,1.8-2.8,4-2.8l0,0c2.2,0,3.9,1.2,3.9,2.8V375.2z"/>
	</g>
	<g>
		<path d="M272.7,326.8c0,1.6-1.8,2.8-4,2.8l0,0c-2.2,0-4-1.3-4-2.8V172.6c0-1.5,1.8-2.8,4-2.8l0,0c2.2,0,4,1.2,4,2.8V326.8z"/>
	</g>
</g>
</svg>
